<svg width="12" height="6" viewBox="0 0 12 6" fill="none" xmlns="http://www.w3.org/2000/svg">
<path d="M0.861468 4.57134e-07C1.06153 -0.000390055 1.25541 0.0692849 1.40945 0.196932L5.99883 4.03283L10.5968 0.33393C10.6843 0.262807 10.7851 0.209694 10.8933 0.177644C11.0015 0.145594 11.1149 0.135239 11.2271 0.147174C11.3393 0.159109 11.448 0.193098 11.547 0.247189C11.646 0.30128 11.7334 0.374407 11.804 0.462364C11.8752 0.549945 11.9283 0.65072 11.9603 0.758895C11.9924 0.86707 12.0027 0.980513 11.9908 1.0927C11.9789 1.20489 11.9449 1.31362 11.8908 1.41263C11.8367 1.51164 11.7636 1.59899 11.6756 1.66964L6.53825 5.80522C6.38504 5.93115 6.19287 6 5.99455 6C5.79622 6 5.60405 5.93115 5.45084 5.80522L0.313484 1.52408C0.226783 1.4522 0.155115 1.36393 0.102583 1.26431C0.0500521 1.16469 0.0176892 1.05568 0.00734946 0.943538C-0.00299027 0.831392 0.00889729 0.718308 0.0423274 0.610763C0.0757585 0.503218 0.130077 0.403325 0.202173 0.316804C0.281848 0.218584 0.382293 0.139234 0.496289 0.0844569C0.610283 0.0296797 0.734998 0.000836818 0.861468 4.57134e-07Z" fill="white"/>
</svg>
