<svg width="59" height="51" viewBox="0 0 59 51" fill="none" xmlns="http://www.w3.org/2000/svg">
<path d="M34.0804 34.5362C35.7884 31.8696 36.6339 30.0954 36.6423 30.0778C36.9405 29.4474 37.6932 29.1781 38.3233 29.4757C38.9541 29.7736 39.224 30.526 38.9261 31.1569C38.8896 31.2341 38.0116 33.0817 36.2073 35.8986C35.9662 36.2749 35.5587 36.4805 35.1427 36.4805C34.9096 36.4805 34.6736 36.416 34.4626 36.2807C33.8756 35.9047 33.7042 35.1236 34.0804 34.5362Z" fill="#222222"/>
<path d="M0.962589 48.3647L14.0572 36.0405L20.1107 29.8807C20.4003 28.7866 20.7888 27.6847 21.3015 26.5964C23.5311 21.8629 27.6335 18.3877 33.4944 16.2624L35.7466 13.9707V9.96522C35.7466 4.78076 39.9644 0.562988 45.1488 0.562988C47.053 0.562988 48.7514 1.4568 49.8499 2.84591C51.3782 2.89243 55.87 3.28498 57.6316 6.24274C58.8391 8.27019 58.4939 10.9658 56.6053 14.2547C56.4356 14.5503 56.1208 14.732 55.781 14.732C55.7739 14.732 55.767 14.732 55.7599 14.7318C55.4122 14.7241 55.0964 14.5272 54.9364 14.2181C54.8364 14.0247 54.6739 13.7408 54.4666 13.4169C53.8656 13.8772 53.0966 14.2257 52.1662 14.4577C51.7935 14.5507 51.442 14.6117 51.1414 14.6524V20.8858C51.1414 29.9752 43.8791 37.3995 34.8525 37.6629L36.4363 41.4639H41.2963C41.8215 41.4639 42.247 41.8896 42.247 42.4145C42.247 42.9394 41.8215 43.3651 41.2963 43.3651H35.808C35.8063 43.3651 35.8046 43.3653 35.8029 43.3653C35.8018 43.3653 35.8006 43.3651 35.7995 43.3651H31.3208C30.7956 43.3651 30.3702 42.9394 30.3702 42.4145C30.3702 41.8896 30.7957 41.4639 31.3208 41.4639H34.3765L32.796 37.6707H32.7702C29.8374 40.3104 26.2828 42.8678 22.0686 44.8639C21.9399 44.9248 21.8008 44.9553 21.6616 44.9553C21.539 44.9553 21.4165 44.9317 21.3006 44.8842C21.0533 44.7827 20.86 44.5816 20.7684 44.3303C20.7363 44.2424 20.5409 43.694 20.3064 42.8024L14.0392 45.2413C13.9259 45.2855 13.8094 45.3063 13.6948 45.3063C13.3142 45.3063 12.9549 45.0763 12.8086 44.7002C12.6182 44.211 12.8604 43.66 13.3498 43.4696L19.8835 40.9268C19.7041 39.9827 19.5436 38.8808 19.4548 37.6706H15.0991L5.82704 46.3972L10.3268 44.646C10.8161 44.4554 11.367 44.6978 11.5574 45.1872C11.7477 45.6765 11.5056 46.2275 11.0161 46.4178L1.9588 49.9426C1.84615 49.9864 1.72946 50.0075 1.61434 50.0075C1.29579 50.0075 0.988609 49.8468 0.810184 49.5642C0.567329 49.1796 0.631199 48.6766 0.962589 48.3647ZM51.1413 12.7306C51.8455 12.6092 52.7165 12.3599 53.321 11.8946C52.7986 11.3169 52.2144 10.834 51.6532 10.6987C51.4713 10.6549 51.3045 10.655 51.1413 10.698V12.7306ZM51.1413 6.55555V8.77482C51.4553 8.7479 51.776 8.77279 52.0991 8.85063C53.6014 9.21289 54.8885 10.6762 55.7055 11.8432C56.5679 9.89448 56.6677 8.34306 55.9996 7.21845C55.2347 5.93106 53.5332 5.32561 52.2408 5.04457C51.7583 4.93958 51.2945 4.87087 50.8857 4.82593C51.0513 5.37382 51.1413 5.95426 51.1413 6.55555ZM49.2401 6.55555H49.24C49.24 5.3612 48.7252 4.2848 47.9063 3.53606C44.4516 5.02373 42.2469 7.87774 42.2469 10.9245C42.2469 14.4236 45.0694 17.5402 49.2401 18.7991V6.55555ZM22.2445 42.6597C25.9502 40.7767 29.1007 38.446 31.7246 36.0532C31.7482 36.0291 31.7731 36.0063 31.7994 35.9848C34.6155 33.4057 36.8207 30.7591 38.4438 28.5264C38.7525 28.1016 39.3472 28.008 39.7717 28.3165C40.1965 28.6253 40.2905 29.2198 39.9816 29.6445C38.6368 31.4944 36.9057 33.6184 34.774 35.7633C42.7884 35.5411 49.2399 28.9528 49.2399 20.8856V20.7732C43.9657 19.3947 40.3454 15.4326 40.3454 10.9245C40.3454 8.90042 41.0693 6.94101 42.4389 5.25802C43.3161 4.18015 44.4312 3.24905 45.7223 2.50528C45.5347 2.4788 45.3432 2.46416 45.1486 2.46416C41.0126 2.46416 37.6476 5.829 37.6476 9.96511V14.3595C37.6476 14.6087 37.5496 14.8481 37.3752 15.0259L34.7026 17.7453C34.6978 17.7503 34.6925 17.7544 34.6874 17.7593C34.6722 17.7742 34.6564 17.7887 34.6402 17.8026C34.6336 17.8082 34.6269 17.8138 34.6202 17.8192C34.6013 17.8344 34.582 17.8488 34.5619 17.8628C34.5567 17.8663 34.5514 17.8699 34.5462 17.8733C34.5246 17.8876 34.5023 17.9009 34.4794 17.9136C34.4754 17.9157 34.4715 17.9178 34.4675 17.9199C34.4431 17.933 34.4177 17.9449 34.3917 17.9559C34.3903 17.9566 34.3886 17.9572 34.3869 17.958C34.371 17.9646 34.3557 17.9718 34.3393 17.9776C28.8672 19.9177 25.0614 23.0856 23.0275 27.3931C22.5427 28.4199 22.1828 29.4668 21.9186 30.5098C21.9108 30.5564 21.8988 30.6023 21.8839 30.6477C20.6512 35.6798 21.6795 40.5933 22.2445 42.6597ZM19.3822 35.7694C19.3804 34.9439 19.418 34.0853 19.5087 33.2057L16.9892 35.7694H19.3822Z" fill="#222222"/>
<path d="M41.4132 9.02441C42.2175 9.02441 42.8721 9.67774 42.8721 10.4807C42.8721 11.2837 42.2175 11.937 41.4132 11.937C40.6089 11.937 39.9544 11.2837 39.9544 10.4807C39.9542 9.67774 40.6086 9.02441 41.4132 9.02441Z" fill="#222222"/>
</svg>
