<?xml version="1.0" encoding="utf-8"?>
<!-- Generator: Adobe Illustrator 24.0.0, SVG Export Plug-In . SVG Version: 6.00 Build 0)  -->
<svg version="1.1" id="Layer_1" xmlns="http://www.w3.org/2000/svg" xmlns:xlink="http://www.w3.org/1999/xlink" x="0px" y="0px"
	 viewBox="0 0 29 32" style="enable-background:new 0 0 29 32;" xml:space="preserve">
<style type="text/css">
	.st0{fill:#222222;}
</style>
<g>
	<path class="st0" d="M9.9,24.3L9.9,24.3c-1.9,0-3.5,1.5-3.5,3.5s1.6,3.5,3.5,3.5s3.5-1.6,3.5-3.5C13.4,25.9,11.8,24.3,9.9,24.3z
		 M9.9,29.5c-0.9,0-1.7-0.8-1.7-1.7s0.8-1.7,1.7-1.7s1.7,0.8,1.7,1.7C11.6,28.7,10.8,29.5,9.9,29.5z"/>
	<path class="st0" d="M23.4,24.3c-1.9,0-3.5,1.5-3.5,3.5s1.5,3.5,3.5,3.5s3.5-1.6,3.5-3.5C26.9,25.9,25.3,24.3,23.4,24.3z
		 M25.1,27.8c0,0.9-0.8,1.7-1.7,1.7s-1.7-0.8-1.7-1.7s0.8-1.7,1.7-1.7C24.3,26.1,25.1,26.9,25.1,27.8z"/>
	<path class="st0" d="M28.5,7c-0.2-0.2-0.4-0.4-0.7-0.4H6.6L6.2,4.1c-0.3-2-2-3.4-4-3.4c0,0,0,0,0,0H1.1c-0.5,0-0.9,0.4-0.9,0.9
		s0.4,0.9,0.9,0.9h1.1c0,0,0,0,0,0c1.1,0,2,0.8,2.2,1.9L7,19.3c0.3,2,2,3.4,4,3.4c0,0,0,0,0,0h14.4c0.5,0,0.9-0.4,0.9-0.9
		s-0.4-0.9-0.9-0.9H10.9c0,0,0,0,0,0c-1.1,0-2.1-0.8-2.2-1.9l-0.2-0.9h13.8c0,0,0,0,0,0c1.8,0,3.3-1.1,3.8-2.8l2.4-7.5
		C28.7,7.5,28.6,7.2,28.5,7z M26.5,8.4l-2,6.3v0c-0.3,1-1.2,1.6-2.2,1.6c0,0,0,0,0,0H8.2L6.9,8.4H26.5z"/>
</g>
</svg>
