<svg width="35" height="49" viewBox="0 0 35 49" fill="none" xmlns="http://www.w3.org/2000/svg">
<path d="M32.4128 44.7978H25.2064L24.9196 32.9087C24.8968 31.9634 25.0384 31.0299 25.3402 30.1344L28.3692 21.1477C28.5869 20.5018 28.6754 19.8291 28.6324 19.1486L28.1877 12.1067C28.1951 12.1009 28.203 12.0947 28.2103 12.0889C28.951 11.4993 29.3653 10.5812 29.3186 9.63271C29.2848 8.94865 29.2261 7.9808 29.1382 7.25479C29.1303 7.18984 29.1141 7.12631 29.09 7.0656C29.0444 6.95093 28.9876 6.83496 28.9186 6.71676L28.9422 6.68872C29.1339 6.46171 29.2485 6.17298 29.265 5.87578C29.3346 4.62364 29.4779 1.60543 29.3061 0.62498C29.2659 0.395851 29.1231 0.197986 28.9191 0.0886655C28.7149 -0.0207556 28.4723 -0.0292269 28.261 0.0652686C27.9677 0.196473 27.4589 0.502045 26.4254 1.63559C26.4166 1.64487 26.4079 1.65435 26.3995 1.66403C25.8122 2.30986 25.2299 3.02942 24.787 3.5975H21.6875C21.2447 3.02942 20.6624 2.30996 20.0753 1.66423C20.0666 1.65414 20.0576 1.64436 20.0484 1.63478C19.0153 0.501743 18.5066 0.196271 18.2136 0.0651677C18.0024 -0.0293277 17.7596 -0.0206547 17.5555 0.0885647C17.3513 0.197784 17.2086 0.39565 17.1684 0.624779C16.9964 1.60594 17.1399 4.62374 17.2095 5.87568C17.226 6.17298 17.3408 6.46181 17.5324 6.68883L17.556 6.71666C17.487 6.83485 17.4301 6.95073 17.3845 7.0654C17.3604 7.12621 17.3442 7.18984 17.3363 7.25479C17.2484 7.9809 17.1898 8.94865 17.156 9.63271C17.1202 10.3605 17.3567 11.0699 17.803 11.6273L15.9301 15.0834L10.2452 17.0556C6.30473 18.4226 3.35332 21.8259 2.54244 25.9375C1.50884 31.1791 0.319464 38.3732 0.522937 42.8797C0.577236 44.0825 0.892815 45.2567 1.43581 46.2754C2.11195 47.5439 3.26045 49 6.16478 49H32.4129C33.5637 49 34.5 48.0575 34.5 46.899C34.5 45.7406 33.5636 44.7978 32.4128 44.7978ZM18.9447 2.66112C18.9514 2.66889 18.9584 2.67645 18.9654 2.68391C19.6639 3.45198 20.3719 4.35437 20.7328 4.82544C20.9062 5.05185 21.1843 5.1538 21.4494 5.11004H25.0253C25.2907 5.1538 25.5685 5.05174 25.742 4.82544C26.1046 4.35205 26.8179 3.4428 27.5198 2.67221C27.5211 2.6707 27.5225 2.66929 27.5238 2.66788C27.6556 2.52316 27.7759 2.39548 27.8857 2.28263C27.8819 3.29112 27.8295 4.61628 27.7674 5.74448L27.3959 6.18438C27.1596 6.46413 27.1571 6.87439 27.39 7.15717C27.5322 7.32982 27.6134 7.45931 27.6598 7.55028C27.7351 8.21881 27.7871 9.08389 27.8179 9.70764C27.8406 10.1687 27.6389 10.6153 27.2785 10.9021C26.4222 11.5835 24.802 12.8198 23.5725 13.4435C23.3627 13.5499 23.1121 13.5499 22.9024 13.4435C21.6726 12.8196 20.0526 11.5835 19.1966 10.9021C18.836 10.6152 18.6344 10.1686 18.6571 9.70764C18.6878 9.08389 18.7397 8.21891 18.8151 7.55028C18.8614 7.45921 18.9426 7.32962 19.0849 7.15717C19.3178 6.87449 19.3154 6.46423 19.079 6.18438L18.7076 5.74448C18.6453 4.61628 18.593 3.29112 18.5891 2.28263C18.697 2.39377 18.8153 2.51923 18.9447 2.66112ZM32.4128 47.4872H6.16468C4.18475 47.4872 3.3941 46.7498 2.75994 45.5601C2.32263 44.7397 2.06817 43.7891 2.02409 42.811C1.82743 38.456 2.99897 31.3916 4.01644 26.232C4.72353 22.6464 7.29785 19.6782 10.7348 18.4857L16.6951 16.418C16.8722 16.3566 17.0202 16.2307 17.1098 16.0652L18.9674 12.6374C19.9782 13.4105 21.1984 14.2732 22.2261 14.7945C22.5428 14.955 22.89 15.0354 23.2374 15.0354C23.5847 15.0354 23.932 14.9551 24.2486 14.7945C25.0302 14.398 25.9233 13.8037 26.7512 13.2016L27.1328 19.2444C27.1633 19.7269 27.1004 20.2038 26.9462 20.6616L23.9172 29.6483C23.5585 30.7126 23.3903 31.8219 23.4175 32.9454L23.7033 44.7977H22.6517L21.0021 32.3438C21 32.3273 20.9972 32.3108 20.9938 32.2945L18.8566 21.6045C18.7748 21.195 18.379 20.9298 17.9717 21.0122C17.5649 21.0946 17.3015 21.4933 17.3833 21.903L19.5157 32.5685L19.7306 34.1908C18.998 32.4473 17.7639 30.9452 16.1285 29.8622C15.7821 29.6328 15.316 29.7294 15.0878 30.0784C14.8598 30.4274 14.9559 30.8964 15.3026 31.126C17.5025 32.5829 18.8439 34.9367 18.983 37.5837C19.1219 40.2308 18.0345 42.7138 15.9995 44.396L15.5135 44.7978H13.4841C10.9359 44.7978 8.45177 44.0713 6.30022 42.6968C5.94978 42.4729 5.48553 42.5775 5.26322 42.9302C5.04092 43.2829 5.14461 43.7502 5.49505 43.9741C7.88763 45.5026 10.6503 46.3105 13.4841 46.3105H32.413C32.7352 46.3105 32.9973 46.5744 32.9973 46.8987C32.9973 47.223 32.735 47.4872 32.4128 47.4872ZM21.1355 44.7978H17.7811C19.2304 43.2944 20.1417 41.3948 20.4122 39.3363L21.1355 44.7978Z" fill="#222222"/>
</svg>
