<svg width="57" height="50" viewBox="0 0 57 50" xmlns="http://www.w3.org/2000/svg">
<path d="M41.8043 6.54604C42.3207 6.54604 42.7394 6.12737 42.7394 5.61091C42.7394 5.09445 42.3207 4.67578 41.8043 4.67578C41.2878 4.67578 40.8691 5.09445 40.8691 5.61091C40.8691 6.12737 41.2878 6.54604 41.8043 6.54604Z"/>
<path d="M4.99866 47.1435C6.10122 48.1005 7.51228 48.6272 8.97225 48.6266H12.069C12.7153 49.2281 13.5656 49.5623 14.4485 49.5618H27.7772C28.0252 49.5618 28.2631 49.4632 28.4384 49.2879C28.6138 49.1125 28.7123 48.8746 28.7123 48.6266V46.6735C28.7121 46.0436 28.5492 45.4244 28.2394 44.8759C27.9297 44.3274 27.4835 43.8682 26.9442 43.5427L28.1956 42.9171C28.2854 42.8721 28.3675 42.8129 28.4386 42.7418L31.0396 40.1404L33.4211 48.8721C33.4749 49.0701 33.5924 49.2449 33.7554 49.3695C33.9184 49.4941 34.1179 49.5617 34.3231 49.5618H42.7392C42.9478 49.5618 43.1504 49.492 43.3147 49.3637C43.4791 49.2353 43.5959 49.0557 43.6464 48.8534L44.5816 45.1129C44.6387 44.8843 44.6075 44.6426 44.4942 44.4361C44.3808 44.2296 44.1937 44.0735 43.9702 43.9989L41.6523 43.2263L40.8691 40.0955V31.0502L41.8005 28.877C42.8049 26.5361 43.2531 23.9942 43.1097 21.4509C43.4939 21.5296 43.8903 21.5268 44.2734 21.4428C44.6565 21.3588 45.0177 21.1954 45.3337 20.9632C45.6498 20.731 45.9136 20.435 46.1082 20.0945C46.3028 19.754 46.4238 19.3765 46.4635 18.9863C46.5032 18.5962 46.4606 18.202 46.3385 17.8293C46.2165 17.4566 46.0176 17.1136 45.7548 16.8225C45.4919 16.5314 45.171 16.2987 44.8127 16.1393C44.4543 15.9799 44.0666 15.8974 43.6744 15.8972C43.6419 15.8972 43.6097 15.8986 43.5775 15.8996L44.4169 12.9618L48.5335 12.1385C48.6533 12.1146 48.7672 12.0673 48.8688 11.9996L51.6742 10.1293C51.8022 10.0439 51.9072 9.92821 51.9799 9.79249C52.0525 9.65677 52.0905 9.50521 52.0905 9.35128V4.67564C52.0905 4.42763 51.992 4.18977 51.8166 4.0144C51.6413 3.83903 51.4034 3.74051 51.1554 3.74051H46.1227L44.5108 0.516892C44.4332 0.361558 44.3138 0.230923 44.166 0.139628C44.0183 0.0483328 43.848 -1.58021e-05 43.6744 3.87417e-09H38.9987C38.8798 -1.02457e-05 38.762 0.022683 38.6516 0.0668615L33.9759 1.93712C33.8497 1.9876 33.736 2.065 33.6428 2.16392C33.5495 2.26284 33.479 2.38091 33.436 2.50988L32.5009 5.31527L30.7008 10.7168L28.9867 12.4308C28.9156 12.5019 28.8564 12.5839 28.8113 12.6738C27.6437 15.002 25.9527 17.0282 23.8708 18.5935L17.3745 23.4657C13.8948 26.0845 11.3819 29.7833 10.2292 33.9829L9.4397 36.8768C9.33496 36.7812 9.23685 36.6785 9.14607 36.5696C8.8717 36.2399 8.66928 35.8565 8.5518 35.444C8.08051 33.8007 7.24103 32.2864 6.09709 31.016C4.94986 29.7476 3.52868 28.7574 1.9415 28.1206C1.80773 28.0671 1.66342 28.0453 1.51982 28.0568C1.37622 28.0683 1.23723 28.1128 1.11367 28.1869C0.990112 28.2609 0.885338 28.3625 0.807519 28.4838C0.7297 28.605 0.680942 28.7426 0.665046 28.8857L0.64985 29.022C0.028594 34.6055 1.03534 40.2495 3.54875 45.2738C3.90369 45.9868 4.3965 46.6223 4.99866 47.1435ZM37.8149 43.194L37.1289 40.1081V34.987L38.9992 33.1167V40.2105C38.9992 40.2869 39.0086 40.3631 39.0273 40.4373L39.8892 43.8855L37.8149 43.194ZM42.5577 45.4995L42.0096 47.6915H40.1964L40.8411 45.1129C40.8555 45.055 40.8645 44.9958 40.8678 44.9362L42.5577 45.4995ZM44.6095 18.7026C44.6096 18.9091 44.5413 19.1098 44.4153 19.2734C44.2893 19.437 44.1126 19.5543 43.9129 19.6068C43.7131 19.6594 43.5016 19.6443 43.3114 19.564C43.1211 19.4837 42.9629 19.3426 42.8613 19.1628C42.8465 18.8081 42.8779 18.453 42.9548 18.1065C43.0775 17.9585 43.243 17.8519 43.4285 17.8013C43.614 17.7507 43.8106 17.7585 43.9915 17.8237C44.1724 17.8888 44.3289 18.0082 44.4395 18.1655C44.5501 18.3228 44.6096 18.5104 44.6097 18.7027L44.6095 18.7026ZM50.2203 5.61077V6.29493C49.9366 6.13031 49.7008 5.89448 49.5362 5.61077H50.2203ZM39.1789 1.87026H43.0965L44.7083 5.09387C44.7859 5.24919 44.9053 5.37981 45.053 5.47111C45.2008 5.5624 45.371 5.61076 45.5446 5.61077H47.5333C47.7017 6.25717 48.0394 6.84695 48.5118 7.31928C48.9841 7.79161 49.5739 8.12937 50.2203 8.29774V8.85087L47.9852 10.3409L43.7346 11.191L41.8041 10.5481V9.35128C41.8041 9.10326 41.7056 8.86541 41.5302 8.69004C41.3549 8.51467 41.117 8.41615 40.869 8.41615C40.621 8.41615 40.3831 8.51467 40.2078 8.69004C40.0324 8.86541 39.9339 9.10326 39.9339 9.35128V11.2215C39.9338 11.4178 39.9956 11.6091 40.1104 11.7683C40.2251 11.9276 40.3871 12.0467 40.5733 12.1087L42.5293 12.7606L41.4038 16.6999C41.3498 16.7008 41.296 16.7014 41.242 16.7014C39.8757 16.7043 38.5245 16.4157 37.2787 15.8549C36.0328 15.2941 34.9209 14.4739 34.0172 13.4492C34.119 13.4575 34.2209 13.4629 34.323 13.4629C35.315 13.4617 36.266 13.0669 36.9673 12.3653C37.6686 11.6636 38.0628 10.7123 38.0635 9.7203V6.54589C38.0635 6.29788 37.965 6.06003 37.7896 5.88466C37.6142 5.70929 37.3764 5.61077 37.1284 5.61077C36.8804 5.61077 36.6425 5.70929 36.4671 5.88466C36.2918 6.06003 36.1932 6.29788 36.1932 6.54589V9.72007C36.1933 10.0586 36.1014 10.3908 35.9275 10.6812C35.7535 10.9717 35.504 11.2095 35.2055 11.3692C34.907 11.529 34.5708 11.6047 34.2326 11.5883C33.8945 11.572 33.5671 11.4642 33.2855 11.2764L32.6309 10.8398L33.5621 8.04607L34.2752 5.90697V5.90603L35.0727 3.51304L39.1789 1.87026ZM18.4964 24.9618L24.9926 20.0896C27.2651 18.381 29.1192 16.178 30.4146 13.6471L31.2624 12.7994C32.2367 14.5027 33.632 15.9274 35.3147 16.9368C36.9974 17.9463 38.9111 18.5069 40.8725 18.5647C40.8703 18.6104 40.869 18.6563 40.869 18.7026C40.869 19.0096 40.9196 19.3146 41.0188 19.6052C41.0314 19.7256 41.0466 19.8456 41.0664 19.9649C41.5285 22.728 41.1867 25.5658 40.0817 28.1402L39.1453 30.3254L35.5321 33.9385C35.4453 34.0253 35.3764 34.1284 35.3294 34.2419C35.2824 34.3553 35.2582 34.4769 35.2582 34.5997V40.2105C35.2582 40.2787 35.2657 40.3467 35.2806 40.4133L36.1035 44.1164C36.1057 44.1263 36.1094 44.1357 36.1119 44.1455C36.1183 44.1704 36.1251 44.1951 36.1334 44.2189C36.1383 44.2334 36.1443 44.2473 36.1499 44.2615C36.1577 44.2819 36.1665 44.3019 36.1763 44.3217C36.1827 44.3347 36.1891 44.3478 36.1962 44.3606C36.2078 44.3822 36.2207 44.403 36.234 44.4235C36.2402 44.4331 36.2457 44.4429 36.2525 44.4522C36.272 44.4799 36.2931 44.5065 36.3155 44.5318C36.3244 44.5419 36.3341 44.5512 36.3434 44.5609C36.3586 44.5766 36.3741 44.592 36.3902 44.6066C36.4019 44.6172 36.4136 44.6273 36.4253 44.6373C36.4416 44.6506 36.4586 44.663 36.4758 44.6753C36.4874 44.6837 36.4991 44.6924 36.5114 44.7004C36.5393 44.7182 36.568 44.7345 36.5976 44.7494C36.6092 44.7551 36.6209 44.7599 36.6326 44.7653C36.6548 44.7753 36.6773 44.7845 36.7002 44.7927C36.7069 44.7952 36.7131 44.7985 36.7197 44.8008L38.8159 45.4995L38.2686 47.6915H35.0374L32.4199 38.0948C32.3768 37.9367 32.293 37.7928 32.1768 37.6773C32.0606 37.5619 31.9161 37.479 31.7578 37.4369C31.5994 37.3949 31.4329 37.3951 31.2747 37.4377C31.1165 37.4803 30.9723 37.5636 30.8565 37.6794L27.2233 41.3126L26.1245 41.862C26.6095 40.8344 26.7521 39.6782 26.5315 38.5635C26.3071 37.4225 25.8232 36.3484 25.1174 35.4243C24.4115 34.5002 23.5026 33.7507 22.4609 33.234L21.65 32.8286C21.5401 32.7733 21.4205 32.7403 21.2978 32.7314C21.1752 32.7224 21.052 32.7378 20.9352 32.7765C20.8185 32.8153 20.7106 32.8767 20.6176 32.9572C20.5247 33.0377 20.4485 33.1357 20.3935 33.2457C20.3385 33.3557 20.3057 33.4755 20.2971 33.5981C20.2884 33.7208 20.304 33.844 20.343 33.9606C20.382 34.0772 20.4437 34.185 20.5244 34.2778C20.6051 34.3706 20.7033 34.4465 20.8134 34.5013L21.6245 34.9068C22.411 35.2969 23.0971 35.8627 23.63 36.5604C24.1629 37.258 24.5281 38.0689 24.6976 38.9303C24.8452 39.6752 24.7417 40.448 24.4033 41.1278C24.1212 41.6966 23.6854 42.175 23.1453 42.5088C22.6052 42.8425 21.9824 43.0181 21.3475 43.0159C21.0995 43.0159 20.8616 43.1144 20.6863 43.2898C20.5109 43.4651 20.4124 43.703 20.4124 43.951C20.4124 44.199 20.5109 44.4369 20.6863 44.6122C20.8616 44.7876 21.0995 44.8861 21.3475 44.8861H25.0546C25.5285 44.8867 25.9828 45.0751 26.3179 45.4102C26.653 45.7453 26.8414 46.1996 26.842 46.6735V47.6915H14.4485C14.0154 47.691 13.6003 47.5187 13.2941 47.2125C12.9879 46.9063 12.8157 46.4911 12.8152 46.0581V44.9146C12.8152 44.9067 12.8152 44.8985 12.8152 44.8906V44.8834C12.8149 44.844 12.8122 44.8046 12.807 44.7655C12.8063 44.7603 12.8057 44.7552 12.805 44.7502C12.7993 44.7094 12.7909 44.669 12.7799 44.6293L10.981 38.3336L12.033 34.4748C13.0757 30.676 15.3488 27.3304 18.4964 24.9618ZM2.40251 30.415C3.26445 30.907 4.04281 31.5327 4.70854 32.2688C5.6618 33.3272 6.36136 34.5888 6.75413 35.958C6.93905 36.6044 7.25328 37.2064 7.67778 37.7278C8.10227 38.2491 8.6282 38.6788 9.22368 38.9908L10.9454 45.0167V46.0577C10.9453 46.2923 10.9688 46.5262 11.0155 46.756H8.97225C8.19328 46.756 7.4297 46.5391 6.76709 46.1295C6.10448 45.7199 5.56903 45.1339 5.22075 44.4371C3.3319 40.6495 2.34622 36.4757 2.34103 32.2432C2.34103 31.6354 2.36172 31.024 2.40251 30.415Z"/>
<path d="M51.9423 40.2114C51.9356 40.2114 51.9289 40.2114 51.9223 40.2114C51.9156 40.2114 51.9094 40.2114 51.903 40.2114C50.6629 40.2103 49.4732 40.7019 48.5956 41.5779C47.7179 42.454 47.2243 43.6428 47.2231 44.8829C47.222 46.1229 47.7136 47.3126 48.5896 48.1903C49.4657 49.0679 50.6545 49.5616 51.8946 49.5627C51.8972 49.5627 51.8997 49.5627 51.9023 49.5627H51.9072C53.1347 49.5485 54.3074 49.052 55.1721 48.1805C56.0367 47.3091 56.5239 46.1325 56.5285 44.9049C56.5331 43.6773 56.0547 42.4971 55.1967 41.6192C54.3386 40.7413 53.1697 40.2361 51.9423 40.2126V40.2114ZM49.0976 44.886C49.0985 44.2432 49.3197 43.6201 49.7244 43.1207C50.1292 42.6213 50.6929 42.2757 51.3216 42.1416C52.0178 43.905 52.0178 45.867 51.3216 47.6304C50.6929 47.4963 50.1292 47.1508 49.7244 46.6513C49.3197 46.1519 49.0985 45.5288 49.0976 44.886ZM53.4132 47.2483C53.8163 45.6992 53.8163 44.0728 53.4132 42.5238C53.8102 42.777 54.137 43.1261 54.3633 43.539C54.5897 43.9519 54.7084 44.4152 54.7084 44.886C54.7084 45.3569 54.5897 45.8201 54.3633 46.233C54.137 46.6459 53.8102 46.9951 53.4132 47.2483Z" fill="#222222"/>
</svg>
