<svg width="48" height="34" viewBox="0 0 48 34" fill="none" xmlns="http://www.w3.org/2000/svg">
<path d="M47.0995 16.3658C45.099 12.5632 42.2112 9.39053 38.7483 7.19076C35.2707 4.98176 31.3085 3.81411 27.29 3.81411C26.4653 3.81411 25.6429 3.86416 24.8266 3.96141C21.4178 0.118201 15.9711 -0.599136 13.9678 0.863119C12.9854 1.58018 12.6136 2.59806 12.8627 3.88836C13.0483 4.8498 13.5514 5.8538 14.0839 6.91688C14.2648 7.27806 14.4486 7.64728 14.6213 8.01668C13.3269 8.96223 12.1257 10.0495 11.0356 11.2581C9.6196 8.95319 7.48603 7.35066 5.14233 6.88328C3.66401 6.5884 2.3265 6.82766 1.56478 7.52317C-0.110714 9.05291 0.783333 11.2852 1.64797 13.4439C2.19609 14.8124 2.76293 16.2276 2.76293 17.5125C2.76293 18.7974 2.19618 20.2124 1.64797 21.581C0.783333 23.7397 -0.110714 25.9719 1.56478 27.5017C2.11189 28.0012 2.95589 28.2654 3.93597 28.2653C4.31943 28.2653 4.7239 28.2249 5.13941 28.1422C7.48375 27.6758 9.61896 26.0729 11.0355 23.7671C11.9399 24.7697 12.9208 25.6892 13.9682 26.5132C13.4798 27.4907 13.035 28.4187 12.8628 29.31C12.6136 30.6003 12.9854 31.6181 13.9678 32.3352C14.601 32.7974 15.562 33.0355 16.6844 33.0354C18.6398 33.0353 21.0839 32.3118 23.1316 30.791C24.4989 31.0687 25.891 31.2107 27.2899 31.2107C31.3034 31.2107 35.2614 30.0457 38.7358 27.8419C42.1934 25.6487 45.0792 22.4852 47.0814 18.6929C47.4722 17.978 47.4792 17.0869 47.0995 16.3658ZM15.0446 2.33843C16.0237 1.62374 19.7651 1.82986 22.6267 4.34323C20.3676 4.85994 18.1832 5.74933 16.1565 6.98857C16.0116 6.68712 15.863 6.39041 15.7169 6.09882C14.5468 3.76325 14.2857 2.89239 15.0446 2.33843ZM4.78298 26.3509C3.78455 26.5497 3.05333 26.3876 2.79644 26.1529C2.10532 25.5218 2.54202 24.2613 3.34356 22.2601C3.92756 20.8021 4.58947 19.1495 4.58947 17.5126C4.58947 15.8755 3.92756 14.223 3.34356 12.7649C2.54202 10.7637 2.10523 9.50313 2.79644 8.8721C3.05361 8.63721 3.78583 8.47521 4.78517 8.67457C5.55666 8.82844 8.12008 9.57099 9.78873 12.7566C9.43741 13.2147 9.1008 13.6866 8.77971 14.1717C8.27278 13.4981 7.6032 12.8113 6.93828 12.4124C6.50578 12.1529 5.94478 12.2931 5.68534 12.7256C5.42589 13.1581 5.56607 13.719 5.99866 13.9786C6.61728 14.3497 7.38594 15.2627 7.73379 15.8977C7.65416 16.0416 7.57544 16.1863 7.49845 16.3321C7.10787 17.0473 7.10084 17.9382 7.48065 18.6592C7.56183 18.8136 7.64512 18.9665 7.72922 19.1188C7.37425 19.6733 6.61436 20.5914 5.92944 21.0924C5.52233 21.3902 5.43365 21.9615 5.73146 22.3686C5.91026 22.6132 6.18789 22.7428 6.46925 22.7428C6.65637 22.7428 6.84504 22.6855 7.00769 22.5666C7.60512 22.1296 8.25223 21.4515 8.75468 20.8154C9.08335 21.314 9.42828 21.7987 9.78882 22.2687C8.11899 25.4559 5.55429 26.1975 4.78298 26.3509ZM15.0446 30.8601C14.3426 30.3476 14.5141 29.5629 15.4703 27.5992C15.5902 27.6787 15.7105 27.7572 15.8318 27.8342C17.3773 28.8159 19.0186 29.5913 20.7179 30.1507C18.2953 31.4005 15.7946 31.4076 15.0446 30.8601ZM9.09678 17.8085C8.99979 17.6244 9.00208 17.3879 9.10244 17.2058C9.10509 17.201 9.10783 17.196 9.11038 17.1911C12.8693 10.0665 19.8354 5.64065 27.29 5.64065C28.7896 5.64065 30.2692 5.82001 31.7068 6.16384C30.3925 7.37724 29.2871 8.81758 28.4637 10.4C28.0097 11.2725 27.643 12.1902 27.3645 13.1352C26.4689 12.7605 25.5134 12.5646 24.5502 12.5646C21.7527 12.5646 19.1489 14.2046 17.7535 16.8451C17.5302 17.2575 17.5272 17.7504 17.7457 18.1653C19.1395 20.8145 21.7468 22.4602 24.5502 22.4602C25.5136 22.4602 26.469 22.2644 27.3645 21.8897C27.6433 22.8357 28.0104 23.7543 28.465 24.6276C29.2883 26.209 30.3931 27.6483 31.7067 28.8609C30.2689 29.2049 28.7894 29.3844 27.2899 29.3844C19.8244 29.3845 12.8533 24.949 9.09678 17.8085ZM26.7573 16.5993H24.7695C24.2653 16.5993 23.8563 17.0082 23.8563 17.5126C23.8563 18.0169 24.2653 18.4258 24.7695 18.4258H26.7573C26.7903 18.9795 26.8546 19.5304 26.9465 20.0764C26.1921 20.4425 25.3738 20.6339 24.5503 20.6339C22.4964 20.6339 20.5691 19.4439 19.4705 17.5126C20.5688 15.5817 22.497 14.3912 24.5503 14.3912C25.3736 14.3912 26.192 14.5829 26.9464 14.9488C26.8545 15.4947 26.7903 16.0457 26.7573 16.5993ZM45.4776 17.8192C45.475 17.8242 45.4722 17.829 45.4697 17.8339C42.8379 22.8223 38.6337 26.4873 33.7905 28.2368C30.5049 25.6658 28.5564 21.6921 28.5564 17.5126C28.5564 13.3331 30.505 9.35884 33.7909 6.78784C38.6425 8.54014 42.8517 12.2144 45.4833 17.2165C45.5802 17.4007 45.578 17.6372 45.4776 17.8192Z" fill="#222222"/>
<path d="M39.564 13.2915H39.5634C39.0591 13.2915 38.6504 13.7004 38.6504 14.2048C38.6504 14.7092 39.0596 15.118 39.564 15.118C40.0684 15.118 40.4773 14.7092 40.4773 14.2048C40.4773 13.7004 40.0684 13.2915 39.564 13.2915Z" fill="#222222"/>
<path d="M32.1673 13.9332C31.7029 13.7354 31.1668 13.9516 30.9692 14.4156C30.5571 15.3831 30.3481 16.4253 30.3481 17.513C30.3481 18.6009 30.5571 19.643 30.9692 20.6105C31.1172 20.9578 31.4547 21.1661 31.8099 21.1661C31.9292 21.1661 32.0506 21.1426 32.1673 21.0929C32.6313 20.8953 32.8472 20.3588 32.6496 19.8948C32.3344 19.1548 32.1746 18.3535 32.1746 17.5129C32.1746 16.6725 32.3344 15.8712 32.6496 15.1311C32.8472 14.6672 32.6313 14.1308 32.1673 13.9332Z" fill="#222222"/>
</svg>
