<svg width="64" height="64" viewBox="0 0 64 64" fill="none" xmlns="http://www.w3.org/2000/svg">
<circle cx="31.7368" cy="31.7368" r="31.7368" fill="#E9E9EE"/>
<path d="M31.7391 26.5302C28.8572 26.5302 26.5326 28.8553 26.5326 31.7378C26.5326 34.6204 28.8572 36.9454 31.7391 36.9454C34.621 36.9454 36.9456 34.6204 36.9456 31.7378C36.9456 28.8553 34.621 26.5302 31.7391 26.5302ZM31.7391 35.1234C29.8767 35.1234 28.3542 33.6051 28.3542 31.7378C28.3542 29.8705 29.8722 28.3522 31.7391 28.3522C33.606 28.3522 35.124 29.8705 35.124 31.7378C35.124 33.6051 33.6015 35.1234 31.7391 35.1234V35.1234ZM38.3729 26.3172C38.3729 26.9925 37.8292 27.5318 37.1585 27.5318C36.4834 27.5318 35.9441 26.9879 35.9441 26.3172C35.9441 25.6464 36.4879 25.1025 37.1585 25.1025C37.8292 25.1025 38.3729 25.6464 38.3729 26.3172ZM41.8212 27.55C41.7442 25.9229 41.3726 24.4816 40.1809 23.2941C38.9937 22.1066 37.5528 21.735 35.926 21.6534C34.2494 21.5582 29.2242 21.5582 27.5476 21.6534C25.9254 21.7305 24.4845 22.1021 23.2928 23.2896C22.101 24.477 21.734 25.9183 21.6524 27.5454C21.5573 29.2224 21.5573 34.2487 21.6524 35.9257C21.7295 37.5528 22.101 38.994 23.2928 40.1815C24.4845 41.369 25.9209 41.7406 27.5476 41.8222C29.2242 41.9174 34.2494 41.9174 35.926 41.8222C37.5528 41.7451 38.9937 41.3735 40.1809 40.1815C41.3681 38.994 41.7397 37.5528 41.8212 35.9257C41.9164 34.2487 41.9164 29.2269 41.8212 27.55V27.55ZM39.6553 37.725C39.3018 38.6133 38.6176 39.2977 37.7249 39.6558C36.3882 40.186 33.2163 40.0637 31.7391 40.0637C30.2619 40.0637 27.0854 40.1815 25.7532 39.6558C24.8651 39.3022 24.1809 38.6179 23.8229 37.725C23.2928 36.388 23.4151 33.2153 23.4151 31.7378C23.4151 30.2603 23.2973 27.0831 23.8229 25.7506C24.1764 24.8623 24.8606 24.1779 25.7532 23.8199C27.09 23.2896 30.2619 23.412 31.7391 23.412C33.2163 23.412 36.3927 23.2941 37.7249 23.8199C38.6131 24.1734 39.2973 24.8578 39.6553 25.7506C40.1854 27.0877 40.0631 30.2603 40.0631 31.7378C40.0631 33.2153 40.1854 36.3925 39.6553 37.725Z" fill="white"/>
</svg>
