<svg width="64" height="64" viewBox="0 0 64 64" fill="none" xmlns="http://www.w3.org/2000/svg">
<circle cx="32.2446" cy="31.7368" r="31.7368" fill="url(#paint0_linear)"/>
<path d="M32.6659 26.9481C29.7839 26.9481 27.4594 29.2732 27.4594 32.1558C27.4594 35.0383 29.7839 37.3634 32.6659 37.3634C35.5478 37.3634 37.8723 35.0383 37.8723 32.1558C37.8723 29.2732 35.5478 26.9481 32.6659 26.9481ZM32.6659 35.5414C30.8035 35.5414 29.281 34.0231 29.281 32.1558C29.281 30.2885 30.799 28.7701 32.6659 28.7701C34.5327 28.7701 36.0507 30.2885 36.0507 32.1558C36.0507 34.0231 34.5282 35.5414 32.6659 35.5414V35.5414ZM39.2997 26.7351C39.2997 27.4104 38.7559 27.9498 38.0853 27.9498C37.4101 27.9498 36.8709 27.4059 36.8709 26.7351C36.8709 26.0643 37.4147 25.5205 38.0853 25.5205C38.7559 25.5205 39.2997 26.0643 39.2997 26.7351ZM42.748 27.9679C42.671 26.3408 42.2994 24.8995 41.1077 23.7121C39.9205 22.5246 38.4795 22.153 36.8528 22.0714C35.1762 21.9762 30.151 21.9762 28.4744 22.0714C26.8522 22.1484 25.4112 22.5201 24.2195 23.7075C23.0278 24.895 22.6607 26.3363 22.5792 27.9634C22.484 29.6403 22.484 34.6667 22.5792 36.3436C22.6562 37.9707 23.0278 39.412 24.2195 40.5995C25.4112 41.7869 26.8477 42.1586 28.4744 42.2402C30.151 42.3353 35.1762 42.3353 36.8528 42.2402C38.4795 42.1631 39.9205 41.7915 41.1077 40.5995C42.2949 39.412 42.6664 37.9707 42.748 36.3436C42.8432 34.6667 42.8432 29.6449 42.748 27.9679V27.9679ZM40.582 38.143C40.2286 39.0313 39.5444 39.7157 38.6517 40.0737C37.315 40.604 34.1431 40.4816 32.6659 40.4816C31.1886 40.4816 28.0122 40.5995 26.68 40.0737C25.7919 39.7202 25.1076 39.0358 24.7497 38.143C24.2195 36.8059 24.3419 33.6333 24.3419 32.1558C24.3419 30.6782 24.224 27.5011 24.7497 26.1686C25.1031 25.2803 25.7873 24.5959 26.68 24.2378C28.0167 23.7075 31.1886 23.8299 32.6659 23.8299C34.1431 23.8299 37.3195 23.7121 38.6517 24.2378C39.5398 24.5913 40.2241 25.2757 40.582 26.1686C41.1122 27.5056 40.9898 30.6782 40.9898 32.1558C40.9898 33.6333 41.1122 36.8105 40.582 38.143Z" fill="white"/>
<defs>
<linearGradient id="paint0_linear" x1="4.76953" y1="59.452" x2="62.1715" y2="8.35601" gradientUnits="userSpaceOnUse">
<stop stop-color="#FFDD55"/>
<stop offset="0.5" stop-color="#FF543E"/>
<stop offset="1" stop-color="#C837AB"/>
</linearGradient>
</defs>
</svg>
