<svg width="193" height="50" viewBox="0 0 193 50" fill="none" xmlns="http://www.w3.org/2000/svg">
<circle cx="25" cy="25" r="25" fill="#187073"/>
<path d="M77.2 16.1626C78.7167 16.1626 80.0333 16.4126 81.15 16.9126C82.2833 17.4126 83.15 18.1293 83.75 19.0626C84.35 19.9959 84.65 21.1043 84.65 22.3876C84.65 23.6543 84.35 24.7626 83.75 25.7126C83.15 26.6459 82.2833 27.3626 81.15 27.8626C80.0333 28.3626 78.7167 28.6126 77.2 28.6126H73.25V33.6626H70V16.1626H77.2ZM77.05 25.8626C78.4667 25.8626 79.5417 25.5626 80.275 24.9626C81.0083 24.3626 81.375 23.5043 81.375 22.3876C81.375 21.2709 81.0083 20.4126 80.275 19.8126C79.5417 19.2126 78.4667 18.9126 77.05 18.9126H73.25V25.8626H77.05Z" fill="#222222"/>
<path d="M100.097 27.0626C100.097 27.2793 100.08 27.5876 100.047 27.9876H89.5717C89.755 28.9709 90.23 29.7543 90.9967 30.3376C91.78 30.9043 92.7467 31.1876 93.8967 31.1876C95.3633 31.1876 96.5717 30.7043 97.5217 29.7376L99.1967 31.6626C98.5967 32.3793 97.8383 32.9209 96.9217 33.2876C96.005 33.6543 94.9717 33.8376 93.8217 33.8376C92.355 33.8376 91.0633 33.5459 89.9467 32.9626C88.83 32.3793 87.9633 31.5709 87.3467 30.5376C86.7467 29.4876 86.4467 28.3043 86.4467 26.9876C86.4467 25.6876 86.7383 24.5209 87.3217 23.4876C87.9217 22.4376 88.7467 21.6209 89.7967 21.0376C90.8467 20.4543 92.03 20.1626 93.3467 20.1626C94.6467 20.1626 95.805 20.4543 96.8217 21.0376C97.855 21.6043 98.655 22.4126 99.2217 23.4626C99.805 24.4959 100.097 25.6959 100.097 27.0626ZM93.3467 22.6626C92.3467 22.6626 91.4967 22.9626 90.7967 23.5626C90.1133 24.1459 89.6967 24.9293 89.5467 25.9126H97.1217C96.9883 24.9459 96.58 24.1626 95.8967 23.5626C95.2133 22.9626 94.3633 22.6626 93.3467 22.6626Z" fill="#222222"/>
<path d="M111.123 32.9376C110.757 33.2376 110.307 33.4626 109.773 33.6126C109.257 33.7626 108.707 33.8376 108.123 33.8376C106.657 33.8376 105.523 33.4543 104.723 32.6876C103.923 31.9209 103.523 30.8043 103.523 29.3376V22.9126H101.323V20.4126H103.523V17.3626H106.648V20.4126H110.223V22.9126H106.648V29.2626C106.648 29.9126 106.807 30.4126 107.123 30.7626C107.44 31.0959 107.898 31.2626 108.498 31.2626C109.198 31.2626 109.782 31.0793 110.248 30.7126L111.123 32.9376Z" fill="#222222"/>
<path d="M129.544 16.1626V33.6626H126.294V26.1626H117.244V33.6626H113.994V16.1626H117.244V23.3876H126.294V16.1626H129.544Z" fill="#222222"/>
<path d="M139.933 33.8376C138.583 33.8376 137.367 33.5459 136.283 32.9626C135.2 32.3793 134.35 31.5709 133.733 30.5376C133.133 29.4876 132.833 28.3043 132.833 26.9876C132.833 25.6709 133.133 24.4959 133.733 23.4626C134.35 22.4293 135.2 21.6209 136.283 21.0376C137.367 20.4543 138.583 20.1626 139.933 20.1626C141.3 20.1626 142.525 20.4543 143.608 21.0376C144.692 21.6209 145.533 22.4293 146.133 23.4626C146.75 24.4959 147.058 25.6709 147.058 26.9876C147.058 28.3043 146.75 29.4876 146.133 30.5376C145.533 31.5709 144.692 32.3793 143.608 32.9626C142.525 33.5459 141.3 33.8376 139.933 33.8376ZM139.933 31.1626C141.083 31.1626 142.033 30.7793 142.783 30.0126C143.533 29.2459 143.908 28.2376 143.908 26.9876C143.908 25.7376 143.533 24.7293 142.783 23.9626C142.033 23.1959 141.083 22.8126 139.933 22.8126C138.783 22.8126 137.833 23.1959 137.083 23.9626C136.35 24.7293 135.983 25.7376 135.983 26.9876C135.983 28.2376 136.35 29.2459 137.083 30.0126C137.833 30.7793 138.783 31.1626 139.933 31.1626Z" fill="#222222"/>
<path d="M162.972 20.3126V33.6626H159.997V31.9626C159.497 32.5626 158.872 33.0293 158.122 33.3626C157.372 33.6793 156.563 33.8376 155.697 33.8376C153.913 33.8376 152.505 33.3459 151.472 32.3626C150.455 31.3626 149.947 29.8876 149.947 27.9376V20.3126H153.072V27.5126C153.072 28.7126 153.338 29.6126 153.872 30.2126C154.422 30.7959 155.197 31.0876 156.197 31.0876C157.313 31.0876 158.197 30.7459 158.847 30.0626C159.513 29.3626 159.847 28.3626 159.847 27.0626V20.3126H162.972Z" fill="#222222"/>
<path d="M171.188 33.8376C170.105 33.8376 169.047 33.6959 168.013 33.4126C166.98 33.1293 166.155 32.7709 165.538 32.3376L166.738 29.9626C167.338 30.3626 168.055 30.6876 168.888 30.9376C169.738 31.1709 170.572 31.2876 171.388 31.2876C173.255 31.2876 174.188 30.7959 174.188 29.8126C174.188 29.3459 173.947 29.0209 173.463 28.8376C172.997 28.6543 172.238 28.4793 171.188 28.3126C170.088 28.1459 169.188 27.9543 168.488 27.7376C167.805 27.5209 167.205 27.1459 166.688 26.6126C166.188 26.0626 165.938 25.3043 165.938 24.3376C165.938 23.0709 166.463 22.0626 167.513 21.3126C168.58 20.5459 170.013 20.1626 171.813 20.1626C172.73 20.1626 173.647 20.2709 174.563 20.4876C175.48 20.6876 176.23 20.9626 176.813 21.3126L175.613 23.6876C174.48 23.0209 173.205 22.6876 171.788 22.6876C170.872 22.6876 170.172 22.8293 169.688 23.1126C169.222 23.3793 168.988 23.7376 168.988 24.1876C168.988 24.6876 169.238 25.0459 169.738 25.2626C170.255 25.4626 171.047 25.6543 172.113 25.8376C173.18 26.0043 174.055 26.1959 174.738 26.4126C175.422 26.6293 176.005 26.9959 176.488 27.5126C176.988 28.0293 177.238 28.7626 177.238 29.7126C177.238 30.9626 176.697 31.9626 175.613 32.7126C174.53 33.4626 173.055 33.8376 171.188 33.8376Z" fill="#222222"/>
<path d="M192.479 27.0626C192.479 27.2793 192.463 27.5876 192.429 27.9876H181.954C182.138 28.9709 182.613 29.7543 183.379 30.3376C184.163 30.9043 185.129 31.1876 186.279 31.1876C187.746 31.1876 188.954 30.7043 189.904 29.7376L191.579 31.6626C190.979 32.3793 190.221 32.9209 189.304 33.2876C188.388 33.6543 187.354 33.8376 186.204 33.8376C184.738 33.8376 183.446 33.5459 182.329 32.9626C181.213 32.3793 180.346 31.5709 179.729 30.5376C179.129 29.4876 178.829 28.3043 178.829 26.9876C178.829 25.6876 179.121 24.5209 179.704 23.4876C180.304 22.4376 181.129 21.6209 182.179 21.0376C183.229 20.4543 184.413 20.1626 185.729 20.1626C187.029 20.1626 188.188 20.4543 189.204 21.0376C190.238 21.6043 191.038 22.4126 191.604 23.4626C192.188 24.4959 192.479 25.6959 192.479 27.0626ZM185.729 22.6626C184.729 22.6626 183.879 22.9626 183.179 23.5626C182.496 24.1459 182.079 24.9293 181.929 25.9126H189.504C189.371 24.9459 188.963 24.1626 188.279 23.5626C187.596 22.9626 186.746 22.6626 185.729 22.6626Z" fill="#222222"/>
</svg>
