<svg width="50" height="50" viewBox="0 0 50 50" fill="none" xmlns="http://www.w3.org/2000/svg">
<path d="M49.1269 22.2682L47.3581 22.0711L48.5281 21.6293C48.711 21.5603 48.859 21.4214 48.9395 21.2433C49.02 21.0651 49.0265 20.8623 48.9574 20.6794C48.8884 20.4965 48.7495 20.3485 48.5714 20.268C48.3933 20.1874 48.1904 20.181 48.0075 20.25L46.5941 20.784L47.9456 18.9545C48.0051 18.8768 48.0485 18.7881 48.0732 18.6934C48.098 18.5988 48.1037 18.5001 48.09 18.4033C48.0763 18.3064 48.0434 18.2132 47.9933 18.1292C47.9432 18.0452 47.8768 17.972 47.7981 17.9138C47.7194 17.8557 47.6299 17.8138 47.5349 17.7906C47.4398 17.7675 47.3411 17.7634 47.2445 17.7788C47.1479 17.7942 47.0553 17.8286 46.9721 17.8802C46.8889 17.9317 46.8169 17.9993 46.7601 18.079L45.0641 20.3751C44.3439 20.656 43.166 20.9399 42.5654 20.6539C42.4729 20.6093 42.3922 20.5437 42.3295 20.4624C42.2668 20.3811 42.224 20.2863 42.2045 20.1856C41.5618 18.0276 41.1335 17.2733 39.7125 17.1019C39.6974 16.7125 39.7115 16.3226 39.7546 15.9353C39.8662 15.1553 40.2271 14.7224 41.0181 13.7727C41.7958 12.8589 42.5224 11.9028 43.1946 10.9088C43.4384 10.5434 43.6382 10.1504 43.7897 9.73803C44.0203 9.58372 44.2158 9.38242 44.3632 9.14733C44.5107 8.91223 44.6068 8.64863 44.6453 8.3738C44.6838 8.09898 44.6637 7.81912 44.5866 7.55256C44.5094 7.286 44.3767 7.03876 44.1974 6.82703C44.1097 4.87729 43.474 2.9918 42.3632 1.387C41.9979 0.896696 41.5057 0.51543 40.9397 0.284315C40.3736 0.0532007 39.7552 -0.0189911 39.1511 0.0755257C36.5732 0.468461 34.7357 1.30824 33.3813 2.69636C33.3059 2.71208 33.2315 2.73219 33.1585 2.75658C32.7378 2.91657 32.3834 3.21382 32.1526 3.60024C31.9217 3.98666 31.828 4.43965 31.8866 4.88593C31.15 6.63751 31.3273 8.2063 31.4785 9.4765C31.6403 10.8393 31.695 11.5962 31.0271 12.2102C30.5608 12.4494 30.1262 12.7076 29.7059 12.9733C28.3161 11.4151 27.7265 11.2411 25.0732 12.4654C24.9866 12.5148 24.8898 12.5435 24.7903 12.5492C24.6908 12.5549 24.5913 12.5374 24.4996 12.4983C23.8881 12.2376 23.3204 11.1636 23.0567 10.438L23.6577 7.64827C23.68 7.55299 23.683 7.45422 23.6667 7.35775C23.6504 7.26127 23.615 7.16901 23.5626 7.08635C23.5103 7.00369 23.442 6.93229 23.3617 6.8763C23.2815 6.82031 23.1909 6.78086 23.0952 6.76026C22.9996 6.73965 22.9008 6.7383 22.8046 6.75627C22.7084 6.77425 22.6168 6.8112 22.535 6.86497C22.4533 6.91874 22.383 6.98825 22.3284 7.06944C22.2738 7.15064 22.2359 7.24189 22.217 7.33788L21.7377 9.56115L21.2037 8.14776C21.1708 8.05541 21.1199 7.97054 21.0538 7.89812C20.9878 7.8257 20.9079 7.76718 20.819 7.72599C20.7301 7.6848 20.6338 7.66176 20.5358 7.65823C20.4379 7.6547 20.3402 7.67074 20.2485 7.70542C20.1569 7.74009 20.073 7.79271 20.0019 7.86019C19.9308 7.92766 19.8739 8.00864 19.8345 8.09838C19.7951 8.18812 19.7739 8.28483 19.7724 8.38283C19.7708 8.48084 19.7887 8.57818 19.8252 8.66915L20.2675 9.83953L18.9488 8.64177C18.8041 8.51031 18.6131 8.44171 18.4178 8.45107C18.2226 8.46043 18.039 8.54698 17.9075 8.69168C17.7761 8.83638 17.7075 9.02738 17.7168 9.22266C17.7262 9.41795 17.8127 9.60151 17.9574 9.73298L19.9238 11.5191C20.7935 15.3516 21.6227 15.9833 23.6998 16.7435C24.1894 16.9457 24.6497 17.2124 25.0686 17.5365C23.9378 19.3291 23.1545 21.3184 22.7594 23.4007C21.5663 22.9437 20.1638 22.6363 19.1287 23.2857C18.3243 23.7911 17.9039 24.7622 17.8787 26.1748C17.8496 27.8051 17.4411 28.2557 17.2667 28.3736C17.198 28.4192 17.1186 28.4463 17.0364 28.4524L16.4316 26.852C16.3974 26.7615 16.3457 26.6786 16.2794 26.6081C16.2132 26.5375 16.1337 26.4808 16.0455 26.4409C15.9573 26.4011 15.8622 26.3791 15.7655 26.376C15.6688 26.373 15.5724 26.3891 15.4819 26.4233C15.3914 26.4575 15.3085 26.5092 15.238 26.5754C15.1674 26.6416 15.1106 26.7211 15.0708 26.8093C15.031 26.8975 15.009 26.9927 15.0059 27.0894C15.0029 27.1861 15.019 27.2825 15.0532 27.373L15.4221 28.35L15.1012 28.1272C14.9406 28.0156 14.7422 27.9722 14.5497 28.0068C14.3572 28.0413 14.1863 28.1509 14.0746 28.3115C13.9629 28.4721 13.9196 28.6704 13.9541 28.8629C13.9887 29.0555 14.0983 29.2264 14.2589 29.3381L15.0228 29.8687L14.1759 30.0822C14.082 30.1059 13.9938 30.1479 13.9161 30.2057C13.8385 30.2635 13.773 30.3361 13.7234 30.4192C13.6738 30.5023 13.641 30.5944 13.627 30.6902C13.613 30.7859 13.618 30.8835 13.6417 30.9774C13.6654 31.0713 13.7073 31.1595 13.7651 31.2372C13.8229 31.3148 13.8955 31.3803 13.9786 31.4299C14.0617 31.4795 14.1538 31.5123 14.2496 31.5263C14.3454 31.5403 14.443 31.5353 14.5368 31.5116L15.7161 31.2143C15.9972 31.5695 16.3535 31.858 16.7594 32.0592C17.1653 32.2603 17.6106 32.369 18.0636 32.3775C18.3631 32.3762 18.6609 32.3323 18.948 32.247C19.7997 31.9583 20.5431 31.4165 21.0786 30.694C21.6142 29.9716 21.9164 29.1028 21.9449 28.2039V28.1959C22.0916 28.2692 22.2324 28.3537 22.3661 28.4486C22.3988 30.5321 22.7832 32.5952 23.5032 34.5507C23.4021 37.1787 19.3409 43.2631 15.1087 45.1637C11.6974 46.6925 6.36393 44.911 3.17749 43.8442C2.36424 43.5722 1.66134 43.3389 1.13616 43.2049C1.00573 43.172 0.868783 43.1754 0.740149 43.2148C0.611514 43.2541 0.496104 43.3279 0.406425 43.4282C0.316746 43.5285 0.256218 43.6514 0.231401 43.7836C0.206584 43.9158 0.218425 44.0523 0.265639 44.1782C0.771441 45.5192 1.73231 46.6399 2.98039 47.3444C5.85379 49.0007 9.10302 49.8946 12.4193 49.9413C14.361 49.9729 16.2849 49.5665 18.048 48.7524C23.854 45.9378 26.1632 40.6805 27.9817 36.3789C29.7357 35.5078 31.4027 34.4715 32.9602 33.2843C33.2032 33.3296 33.4413 33.3984 33.6711 33.4898L33.6652 33.4953C33.0089 34.1105 32.5564 34.9116 32.3682 35.7912C32.18 36.6708 32.2652 37.587 32.6123 38.4169C32.8595 38.9594 33.2636 39.4154 33.7723 39.7263C34.2811 40.0371 34.8713 40.1884 35.4669 40.1608C35.4854 40.1608 35.5056 40.1571 35.5241 40.1571L36.0813 41.2403C36.1731 41.4098 36.3276 41.5367 36.5118 41.5936C36.6959 41.6506 36.8951 41.6331 37.0665 41.545C37.238 41.4568 37.368 41.305 37.4289 41.1221C37.4897 40.9392 37.4765 40.7397 37.3919 40.5664L36.9923 39.7898L37.8952 40.0122C38.0851 40.059 38.2858 40.0284 38.4532 39.9273C38.6205 39.8261 38.7408 39.6626 38.7876 39.4727C38.8344 39.2828 38.8039 39.0821 38.7027 38.9147C38.6016 38.7474 38.438 38.6271 38.2481 38.5803L37.8691 38.4868L38.8458 38.1174C39.0256 38.0462 39.1702 37.9071 39.2484 37.7302C39.3266 37.5534 39.3321 37.3528 39.2638 37.1719C39.1955 36.991 39.0588 36.8441 38.8832 36.7631C38.7077 36.682 38.5072 36.6732 38.3252 36.7386L36.7291 37.3416C36.6772 37.2768 36.6435 37.1993 36.6313 37.1172C36.6048 36.9066 36.6735 36.3031 37.8725 35.2051C38.9182 34.2525 39.3697 33.2935 39.2147 32.3544C39.0488 31.3474 38.2195 30.4794 36.6305 29.659C37.9633 27.9429 38.9005 25.9535 39.3752 23.8332C39.5576 23.8962 39.735 23.9731 39.9058 24.0631C40.8104 24.5533 41.5142 24.8612 42.354 24.8612C43.3226 24.8612 44.477 24.4464 46.3208 23.4386L48.9623 23.7334C48.9903 23.7363 49.0184 23.7377 49.0465 23.7376C49.2346 23.7371 49.4155 23.6646 49.5519 23.5351C49.6884 23.4055 49.7701 23.2287 49.7804 23.0408C49.7907 22.853 49.7287 22.6683 49.6072 22.5246C49.4857 22.381 49.3139 22.2892 49.1269 22.2682ZM42.8762 7.61205C42.9697 7.65359 43.0489 7.72163 43.1041 7.80775C43.1592 7.89387 43.1879 7.99428 43.1866 8.09654C43.1852 8.19881 43.1539 8.29843 43.0965 8.38307C43.0391 8.46771 42.9581 8.53364 42.8636 8.5727C42.8551 8.57692 42.8463 8.58028 42.8379 8.58492C42.7569 8.61402 42.6701 8.62281 42.585 8.6105C42.4999 8.59819 42.4191 8.56517 42.3497 8.51432C42.2803 8.46348 42.2245 8.39638 42.1871 8.31892C42.1498 8.24145 42.132 8.156 42.1354 8.07006C42.1388 7.98412 42.1632 7.90032 42.2065 7.82604C42.2499 7.75175 42.3108 7.68925 42.384 7.64403C42.4571 7.5988 42.5403 7.57223 42.6261 7.56666C42.7119 7.56108 42.7978 7.57667 42.8762 7.61205ZM33.372 4.81349C33.3268 4.68386 33.334 4.54169 33.3922 4.4173C33.4503 4.29291 33.5547 4.19614 33.6831 4.14763C33.8116 4.09912 33.9539 4.10271 34.0797 4.15763C34.2055 4.21255 34.3049 4.31446 34.3567 4.44162C34.406 4.57219 34.4013 4.71698 34.3438 4.84414C34.2863 4.9713 34.1807 5.07041 34.0501 5.11967C33.9195 5.16893 33.7747 5.1643 33.6476 5.1068C33.5204 5.0493 33.4213 4.94365 33.372 4.81307V4.81349ZM24.2048 15.3575C22.7308 14.8184 22.174 14.6146 21.4526 11.5928L21.6825 11.5056H21.6851H21.6872L21.8708 11.4361C22.2224 12.2262 22.8992 13.4181 23.9201 13.8544C24.2035 13.977 24.5104 14.0355 24.819 14.0258C25.1276 14.0161 25.4303 13.9385 25.7054 13.7984C26.6833 13.3473 27.3533 13.0782 27.6764 13.1321C27.873 13.1654 28.1093 13.3957 28.4888 13.8224C27.5377 14.5555 26.6794 15.4016 25.9328 16.3421C25.4045 15.9365 24.8231 15.6052 24.2048 15.3575ZM21.2146 26.7657C20.8882 26.9206 20.4957 27.2896 20.4742 28.1706C20.4495 28.7557 20.2524 29.3204 19.9078 29.7939C19.5631 30.2673 19.0862 30.6283 18.5369 30.8315C18.2301 30.9254 17.9017 30.9212 17.5974 30.8194C17.2931 30.7177 17.0282 30.5234 16.8397 30.2638L16.9029 30.0982L16.9083 30.0848L16.9677 29.9289C17.3543 29.9396 17.7348 29.8311 18.0577 29.6181C18.8869 29.0833 19.3236 27.9335 19.3544 26.2001C19.3649 25.5932 19.4706 24.8102 19.9137 24.5336C20.238 24.3297 20.9544 24.2459 22.5198 24.892C22.441 25.5321 22.3934 26.163 22.3715 26.7808C22.1898 26.6992 21.9932 26.6557 21.794 26.6531C21.5948 26.6505 21.3972 26.6888 21.2134 26.7657H21.2146ZM27.0813 35.1795C26.9234 35.258 26.7988 35.3905 26.73 35.553C24.9006 39.8858 22.826 44.7965 17.4061 47.4236C13.7063 49.216 8.32987 48.6816 3.7073 46.0595C3.30415 45.8316 2.93711 45.545 2.6182 45.2092L2.71043 45.2399C6.10071 46.3737 11.7753 48.2722 15.7127 46.5064C20.3799 44.4115 25.0387 37.6866 24.978 34.3822C24.9761 34.2793 24.9527 34.1779 24.9094 34.0845C23.5444 31.149 21.7929 18.5347 31.7742 13.4812C31.8264 13.4548 31.8753 13.4222 31.9199 13.3844C33.2857 12.2195 33.1092 10.7362 32.9387 9.30172C32.7725 8.34019 32.7725 7.35729 32.9387 6.39577C33.2974 6.58361 33.7048 6.65793 34.1067 6.60889C34.5087 6.55984 34.8862 6.38974 35.1893 6.12114C35.4923 5.85255 35.7065 5.49817 35.8035 5.10501C35.9005 4.71185 35.8756 4.2985 35.7322 3.91981C35.609 3.59921 35.4045 3.31619 35.1388 3.09856C36.187 2.30932 37.5356 1.81194 39.3667 1.53229C39.7064 1.48066 40.0537 1.52128 40.3723 1.6499C40.6909 1.77852 40.9691 1.99042 41.1777 2.26341C41.9642 3.40668 42.4684 4.72008 42.6492 6.0959C42.3259 6.09486 42.0073 6.17262 41.7209 6.32246C41.4345 6.47231 41.1889 6.68971 41.0054 6.95585C40.8219 7.22199 40.7061 7.52885 40.668 7.84984C40.6298 8.17083 40.6705 8.49629 40.7864 8.79802C40.8918 9.07551 41.0576 9.32602 41.2719 9.53133C41.4863 9.73663 41.7437 9.89156 42.0255 9.98483C42.0057 10.016 41.9909 10.0514 41.9703 10.0821C41.3265 11.0354 40.63 11.952 39.8839 12.8276C39.0285 13.854 38.4638 14.5316 38.2928 15.726C38.2166 16.524 38.2075 17.327 38.2658 18.1266C38.4322 22.3457 38.7064 29.4059 27.0813 35.1795ZM37.7613 32.5944C37.8455 33.1107 37.3292 33.7067 36.8798 34.1165C35.602 35.2852 35.0268 36.3726 35.1763 37.3484C35.2335 37.7309 35.4033 38.0877 35.664 38.3735L35.5903 38.5137C35.5865 38.5213 35.5823 38.528 35.5789 38.5356L35.4993 38.6872C35.1802 38.7175 34.8595 38.6478 34.5818 38.4877C34.304 38.3277 34.0829 38.0852 33.949 37.794C33.7383 37.2476 33.6938 36.651 33.8212 36.0794C33.9486 35.5078 34.2422 34.9866 34.665 34.5814C35.3186 33.9796 35.3321 33.4371 35.2289 33.088C35.1526 32.876 35.0308 32.6832 34.8721 32.5231C34.7135 32.3631 34.5217 32.2397 34.3104 32.1615C34.8027 31.7167 35.2508 31.2695 35.6581 30.8214C37.2664 31.5929 37.6981 32.2053 37.7613 32.5944ZM40.6096 22.7681C40.2975 22.6048 39.971 22.4709 39.6342 22.368C39.7795 21.1154 39.8217 19.8531 39.7605 18.5936C40.2162 18.72 40.3552 19.1441 40.7869 20.5928C40.8633 20.895 41.0056 21.1766 41.2037 21.4173C41.4017 21.658 41.6506 21.8519 41.9324 21.9852C42.9356 22.4623 44.2748 22.1827 45.0995 21.9245L45.2566 22.3423C42.5161 23.8003 41.9939 23.5169 40.6104 22.7681H40.6096Z" fill="#222222"/>
<path d="M33.9308 27.8548C34.0101 27.9104 34.0996 27.9498 34.1941 27.9708C34.2886 27.9918 34.3863 27.994 34.4817 27.9772C34.577 27.9604 34.6681 27.925 34.7498 27.873C34.8315 27.821 34.9021 27.7534 34.9576 27.6741C35.5147 26.8833 35.9782 26.0305 36.339 25.1329C36.4116 24.9514 36.4091 24.7485 36.3321 24.5688C36.2551 24.3891 36.1099 24.2474 35.9284 24.1748C35.7469 24.1022 35.544 24.1047 35.3643 24.1817C35.1846 24.2587 35.0429 24.4039 34.9703 24.5854C34.6509 25.3772 34.2411 26.1295 33.7489 26.8272C33.6934 26.9066 33.654 26.9962 33.6331 27.0908C33.6122 27.1855 33.6101 27.2833 33.627 27.3787C33.6439 27.4741 33.6794 27.5653 33.7316 27.647C33.7837 27.7287 33.8514 27.7993 33.9308 27.8548Z" fill="#222222"/>
</svg>
