<svg width="52" height="35" viewBox="0 0 52 35" xmlns="http://www.w3.org/2000/svg">
<path d="M21.2197 14.3917C21.4909 14.0887 21.9566 14.0629 22.2598 14.3344C22.5578 14.6014 22.8339 14.9363 23.0801 15.3299C23.2959 15.6748 23.1913 16.1292 22.8465 16.345C22.725 16.421 22.5899 16.4573 22.4563 16.4573C22.211 16.4573 21.9711 16.3348 21.8313 16.1114C21.6583 15.8351 21.4718 15.6064 21.2769 15.4319C20.9738 15.1603 20.9481 14.6947 21.2197 14.3917Z" />
<path d="M42.1402 8.97998C43.1975 8.97998 44.0576 9.84025 44.0576 10.8975C44.0576 11.9548 43.1974 12.8151 42.1402 12.8151C41.0829 12.8151 40.2226 11.9548 40.2226 10.8975C40.2226 9.84025 41.0829 8.97998 42.1402 8.97998ZM42.1402 11.342C42.3851 11.342 42.5844 11.1427 42.5844 10.8976C42.5844 10.6526 42.3851 10.4533 42.1402 10.4533C41.8951 10.4533 41.6958 10.6526 41.6958 10.8976C41.6958 11.1427 41.8951 11.342 42.1402 11.342Z"/>
<path d="M8.2604 19.9484C7.98775 19.025 7.84515 17.9984 7.84505 16.8767C7.84485 15.0262 8.15953 12.2517 9.65998 9.54254C11.1178 6.91065 13.3155 5.02285 16.192 3.93177C20.3198 2.36612 24.8468 2.65025 27.9175 3.16441C29.6167 3.44894 31.0541 3.82698 32.0642 4.13262C31.9349 3.34032 32.1098 2.52031 32.5858 1.72712C33.3265 0.492456 34.8605 -0.180126 36.403 0.0531364C37.3629 0.198397 39.5201 0.903783 40.8555 4.24056C41.3146 4.36009 42.9708 4.83732 44.8829 5.94195C47.8232 7.64069 49.9701 10.0318 51.0916 12.8566C51.1833 13.0876 51.1523 13.3493 51.0093 13.5525C50.9406 13.6501 49.7276 15.3202 47.0875 15.8923C47.0806 15.9007 47.0744 15.9094 47.067 15.9175C45.783 17.3441 44.0066 18.1189 42.0837 18.1189C41.7484 18.1189 41.4084 18.0954 41.066 18.0475C40.7161 17.9987 40.3722 17.9247 40.0384 17.8291C40.0219 17.861 40.0036 17.8923 39.982 17.9223C37.4708 21.4029 34.159 22.945 33.3348 23.2893C33.1371 23.7138 32.9437 24.0872 32.7776 24.3899C32.7736 24.3973 32.7668 24.4097 32.7761 24.4297C32.7872 24.4533 32.8066 24.4571 32.8148 24.4586L32.9977 24.4938C34.0841 24.7027 34.8724 25.6572 34.8724 26.7634V27.0374C34.8724 27.4443 34.5427 27.774 34.1358 27.774H30.536C29.8498 27.774 29.2455 27.3134 29.0664 26.6538C28.937 26.1769 28.7913 25.5732 28.643 24.8966C27.6181 25.2461 26.4216 25.4214 25.1902 25.4214C24.472 25.4214 23.7422 25.3612 23.0283 25.2423C23.0313 25.251 23.0348 25.2592 23.0377 25.2678L23.5499 26.8045C23.6249 27.0291 23.5872 27.2761 23.4487 27.4682C23.3103 27.6602 23.0879 27.774 22.8511 27.774H16.47C15.6924 27.774 15.0412 27.1912 14.9554 26.4183L14.833 25.3174C13.5674 25.1545 12.4521 24.7842 11.5052 24.2251C10.8502 24.3329 9.3611 24.6496 7.93098 25.2343C6.31052 25.8967 5.38111 26.6735 5.38111 27.3654C5.38111 27.6921 5.64246 28.2653 6.37603 28.8944C8.34634 30.5841 11.9218 31.2755 13.8778 31.5373C18.4875 32.1541 24.3824 31.9185 31.3992 30.8364C31.7915 30.7761 32.1633 31.0387 32.2358 31.4304C32.3082 31.822 32.0564 32.2003 31.6671 32.2844C25.8936 33.532 20.7634 34.1594 16.3571 34.1594C15.0077 34.1594 13.7262 34.1006 12.5148 33.9827C7.32087 33.4773 4.50591 31.9794 3.05919 30.8118C1.65962 29.6828 0.857006 28.3071 0.857006 27.0377C0.857006 22.599 6.18972 20.5692 8.2604 19.9484ZM30.4882 26.2681C30.4948 26.2924 30.5171 26.3011 30.5359 26.3011H33.2594C33.1383 26.1185 32.9468 25.9845 32.7193 25.9408L32.5364 25.9057C32.1349 25.8284 31.784 25.5909 31.5589 25.2569L30.2798 25.4471C30.3524 25.7496 30.4225 26.0258 30.4882 26.2681ZM16.4195 26.256C16.4224 26.2817 16.4439 26.3011 16.4699 26.3011H21.829L21.6399 25.7341C21.5482 25.459 21.3253 25.2537 21.0438 25.185L19.9121 24.9087C18.9048 25.2449 17.7356 25.4146 16.4096 25.4145C16.382 25.4145 16.3538 25.4139 16.3259 25.4138L16.4195 26.256ZM16.1708 23.9391C18.561 23.9784 20.3335 23.4348 21.4352 22.3232C22.4878 21.2612 22.6804 19.9218 22.6567 18.9852C22.6464 18.5785 22.9677 18.2404 23.3744 18.2301C23.3808 18.23 23.3872 18.2299 23.3935 18.2299C23.7916 18.2299 24.1194 18.5474 24.1295 18.9479C24.1733 20.677 23.5881 22.2441 22.4816 23.3605C22.4096 23.4332 22.3346 23.5029 22.2587 23.5718C24.288 24.1117 26.6644 24.0699 28.3425 23.4401C28.0984 22.181 27.8727 20.8166 27.729 19.5951C27.6815 19.1911 27.9704 18.825 28.3745 18.7776C28.7776 18.7293 29.1446 19.019 29.192 19.423C29.3649 20.8919 29.6593 22.5715 29.9582 24.0054L31.4363 23.7857C31.4522 23.7508 31.4671 23.7155 31.4858 23.6815C32.1023 22.5578 33.1366 20.3743 33.1366 18.3772C33.1366 17.9703 33.4663 17.6406 33.8732 17.6406C34.2801 17.6406 34.6098 17.9703 34.6098 18.3772C34.6098 19.3422 34.4119 20.3265 34.1317 21.2375C35.3647 20.5219 37.1438 19.2522 38.6326 17.2679C37.6029 16.7262 36.7808 15.9665 36.3609 15.1092C36.1819 14.7438 36.3331 14.3027 36.6985 14.1237C37.0638 13.9445 37.5051 14.0959 37.684 14.4613C38.1876 15.4895 39.662 16.3643 41.2694 16.5886C42.0348 16.6955 43.2965 16.7166 44.5428 16.0576C44.1593 16.0301 43.7575 15.9801 43.3368 15.9036C42.9365 15.8308 42.671 15.4473 42.7438 15.047C42.8166 14.6468 43.2 14.3809 43.6004 14.4541C47.0593 15.083 48.9159 13.6396 49.5514 12.9938C47.6076 8.61135 43.3454 6.64861 41.4015 5.95668C41.405 5.97083 41.4087 5.98458 41.4121 5.99872C41.5088 6.39384 41.267 6.7927 40.8718 6.88944C40.4769 6.98608 40.0779 6.74427 39.9811 6.34915C39.0022 2.35197 36.9986 1.63323 36.1824 1.50987C35.2236 1.3649 34.2858 1.75679 33.8488 2.48515C33.4732 3.11118 33.3965 3.68908 33.6145 4.25176C34.2755 5.95786 37.3981 7.22386 38.5456 7.56772C38.9352 7.6842 39.1567 8.09425 39.0405 8.48397C38.9451 8.80356 38.6522 9.01021 38.3348 9.01021C38.2651 9.01021 38.1942 9.00019 38.1241 8.97937C38.0758 8.96503 36.927 8.61911 35.6466 7.9595C34.4815 7.3593 33.5927 6.70067 32.985 5.99224C31.923 5.60016 23.5964 2.69858 16.7143 5.30925C9.85032 7.91275 9.3177 14.8211 9.31799 16.8764C9.31838 19.0532 9.93518 20.8401 11.102 22.0441C12.2857 23.2656 13.991 23.9031 16.1708 23.9391ZM3.98429 29.6656C5.33191 30.7532 7.08368 31.4887 9.064 31.96C7.26312 31.3424 6.12402 30.6194 5.41696 30.0129C4.44384 29.1784 3.90788 28.2383 3.90788 27.3657C3.90788 24.8537 7.77532 23.5689 10.004 23.0376C9.52827 22.5392 9.12735 21.967 8.80422 21.3271C7.11727 21.8254 2.33024 23.5475 2.33024 27.0377C2.33024 27.8475 2.9486 28.8298 3.98429 29.6656Z" />
</svg>
