<svg width="15" height="14" viewBox="0 0 15 14" fill="none" xmlns="http://www.w3.org/2000/svg">
<path fill-rule="evenodd" clip-rule="evenodd" d="M0.479492 6.17647C0.479492 2.77086 3.25035 0 6.65597 0C10.0618 0 12.8324 2.77086 12.8324 6.17647C12.8324 7.66894 12.3004 9.03945 11.416 10.1083L14.3079 13.0002C14.5367 13.2288 14.5367 13.5998 14.3079 13.8284C14.1935 13.9428 14.0435 14 13.8938 14C13.7439 14 13.5941 13.9428 13.4797 13.8284L10.5878 10.9365C9.51896 11.8209 8.14845 12.3529 6.65597 12.3529C3.25035 12.3529 0.479492 9.58228 0.479492 6.17647ZM10.458 9.47573C10.335 9.49213 10.2163 9.54761 10.1217 9.64218C10.0271 9.73667 9.97164 9.85548 9.95525 9.97851C9.07087 10.747 7.91677 11.2127 6.65597 11.2127C3.87903 11.2127 1.61977 8.95344 1.61977 6.1765C1.61977 3.39956 3.87903 1.14027 6.65597 1.14027C9.43291 1.14027 11.6922 3.39953 11.6922 6.17647C11.6922 7.43727 11.2265 8.59135 10.458 9.47573Z" fill="#757575" fill-opacity="0.5"/>
</svg>
