<svg width="1110" height="309" viewBox="0 0 1110 309" fill="none" xmlns="http://www.w3.org/2000/svg">
<rect width="1110" height="309" rx="4" fill="#FBFBFB"/>
<path d="M1021.06 128.545C1021.06 128.545 1020 127.986 1018.27 127.315C1010.3 124.856 993.519 125.639 987.276 128.321C983.541 129.942 974.901 134.133 967.543 137.821C970.274 138.157 976.796 139.945 978.859 137.766C978.859 137.766 983.318 148.663 981.534 153.301C979.695 157.996 959.628 160.008 963.53 161.125C967.432 162.243 982.872 158.834 982.872 158.834C982.872 158.834 984.21 170.011 979.974 172.19C975.737 174.37 953.552 171.073 955.614 173.308C957.732 175.488 978.078 177.779 980.42 175.32C980.42 175.32 980.866 188.732 973.452 190.185C966.038 191.582 945.804 180.182 947.532 183.311C949.26 186.441 968.045 195.494 973.786 192.085C973.786 192.085 968.658 204.883 963.976 204.883C959.293 204.883 947.755 188.397 945.413 190.8C943.072 193.203 955.558 204.995 962.471 206.448C962.471 206.448 959.739 213.768 950.82 211.589C941.902 209.409 943.407 195.047 940.675 196.277C937.944 197.506 940.508 213.321 949.594 213.321C949.594 213.321 934.767 216.898 931.31 208.627C930.307 206.28 929.861 204.38 929.638 202.815C928.3 209.354 927.52 217.233 927.13 225.169H925.458C926.015 215.501 927.186 205.721 929.471 197.897C928.356 198.512 926.405 199.35 924.064 199.574C923.952 208.906 923.841 217.624 923.785 225.225H922.001C922.169 218.519 922.336 210.136 922.503 199.63C922.057 199.63 921.556 199.574 921.054 199.462C920.496 208.459 920.162 217.121 919.939 225.169H917.486C917.821 216.842 918.322 207.956 918.936 198.903C917.152 198.288 915.926 197.506 914.643 195.83C914.699 206.28 914.699 216.283 914.699 225.169H912.024C912.079 214.83 912.135 202.871 912.024 190.52C910.63 186.106 910.463 181.188 910.741 178.729C906.561 177.555 901.433 174.426 899.426 173.196C902.603 185.323 906.617 203.374 909.236 225.169H907.397C904.833 204.156 901.042 186.72 897.921 174.761C897.419 176.158 896.639 177.946 895.412 179.176C893.183 181.467 888.89 173.643 888.89 169.731C888.89 165.82 893.517 169.564 893.517 167.384C893.517 165.205 892.848 166.267 886.939 166.267C881.031 166.267 878.913 153.749 878.913 153.749C878.913 153.749 887.831 154.866 887.831 153.134C887.831 151.401 880.752 152.351 876.181 151.122C871.666 149.892 869.102 139.722 869.102 139.722C869.102 139.722 882.09 143.633 882.09 141.901C882.09 140.169 872.056 138.548 870.161 136.592C868.266 134.636 867.597 125.806 867.597 125.806C867.597 125.806 876.237 134.077 877.575 134.077C878.913 134.077 868.433 124.912 869.436 123.906C870.44 122.9 870.774 118.597 870.774 118.597C872.669 120.553 875.735 117.982 877.742 120.05C879.693 122.062 883.26 137.598 884.71 139.107C886.159 140.616 880.696 126.7 883.205 124.13C885.713 121.559 892.458 128.098 893.796 129.439C895.134 130.836 890.618 145.925 892.458 147.769C894.297 149.669 893.907 134.524 895.357 133.015C896.806 131.507 900.652 135.363 901.767 139.833C902.882 144.304 893.015 151.904 895.858 154.81C898.701 157.716 901.321 146.595 903.774 144.025C905.613 142.125 909.459 145.869 911.299 149.166C910.853 135.698 910.184 123.683 909.181 115.132C907.174 120.777 896.75 127.483 889.392 119.771C887.831 121.056 885.88 121.615 883.483 120.721C874.788 117.48 873.951 115.244 875.791 114.35C877.63 113.456 894.632 103.564 892.569 102.502C890.507 101.441 875.234 113.791 872.279 112.338C869.381 110.829 864.865 104.738 865.423 104.458C865.925 104.179 887.107 96.2993 884.71 95.1257C882.369 93.8963 866.036 105.576 862.914 100.435C859.849 95.2934 859.681 92.1639 860.016 90.9344C860.295 89.705 878.578 88.3078 877.965 86.9107C877.352 85.5695 860.127 88.3637 858.789 85.4018C857.452 82.44 857.117 78.1928 858.622 77.4663C860.127 76.7398 868.99 79.4781 868.321 78.0251C867.653 76.5721 858.901 76.0691 859.235 74.672C859.57 73.2749 860.517 65.507 859.904 64.1099C859.904 64.1099 866.092 59.8627 867.597 57.7949C869.102 55.6713 870.718 56.4537 871.22 57.5714C871.722 58.6891 875.791 76.0133 876.237 74.0573C876.683 72.1014 871.555 56.6772 872.614 56.1743C873.673 55.6713 879.08 51.3682 880.752 53.883C882.424 56.3978 883.037 79.3104 884.933 79.534C886.828 79.7016 882.257 52.933 882.257 52.933C882.257 52.933 888.612 53.3242 890.897 56.2302C893.183 59.1362 890.786 86.0725 892.737 85.9048C894.688 85.7372 893.74 57.6273 893.74 57.6273C893.74 57.6273 901.655 61.4274 902.101 65.3393C902.603 69.2512 897.14 86.9107 898.868 87.8049C900.596 88.699 902.436 70.4807 902.436 70.4807C902.436 70.4807 909.292 73.6661 909.682 78.9751C910.073 84.34 903.439 90.9903 904.164 92.6668C904.944 94.3434 910.853 87.1902 911.856 82.8312C912.86 78.4722 920.385 100.826 914.03 103.9C912.079 104.85 910.63 105.185 909.571 105.185C912.748 113.568 913.696 146.931 913.919 155.984C915.145 154.81 915.926 153.916 915.926 153.916C917.598 154.587 918.601 156.766 919.047 159.616C919.883 158.555 920.441 157.94 920.441 157.94C920.441 157.94 921.11 160.287 922.169 163.472C923.228 154.978 923.116 157.269 923.116 155.425C922.949 154.363 922.949 153.469 923.172 152.854C924.008 98.7023 923.785 102.167 924.064 101.832C923.952 98.0876 922.726 65.2276 918.322 56.3978C913.807 46.9534 910.797 36 910.797 36C910.797 36 914.811 42.4826 918.378 46.171C921.946 49.8593 925.012 50.53 925.012 53.8271C925.012 57.1243 920.329 67.7424 923.339 66.1776C926.349 64.6128 925.625 58.1861 926.684 58.1861C927.743 58.1861 932.147 72.8837 932.147 73.6661C932.147 74.4485 924.566 80.5399 926.572 82.5517C928.523 84.5636 931.701 74.7279 932.927 76.0133C934.153 77.2427 934.432 88.0284 934.432 90.8785C934.432 93.6727 928.635 92.2198 931.255 94.9581C933.875 97.6964 934.432 108.594 934.432 113.623C940.731 98.7582 946.361 94.9022 955.614 89.3138C953.607 89.3138 951.043 88.7549 948.925 86.5754C944.744 82.2723 942.849 66.2894 952.437 61.9304C951.991 59.5832 952.325 57.1802 953.998 54.9448C960.129 46.9534 962.248 47.2328 962.248 49.6917C962.248 52.1506 963.585 75.8456 965.313 74.0573C966.986 72.3249 962.916 49.3564 965.313 46.8975C967.71 44.4386 974.511 42.5385 974.511 43.265C974.511 43.9915 972.56 71.1513 974.511 69.1395C976.462 67.1276 973.396 43.3767 978.803 42.5385C984.266 41.7002 986.83 43.0973 987.778 44.0474C988.67 44.9974 982.538 65.7864 983.931 65.7864C985.269 65.7864 989.84 45.4445 992.794 45.4445C995.749 45.4445 999.372 47.1769 999.372 49.1887C999.372 51.2006 993.575 59.6391 995.08 59.6391C996.529 59.6391 1000.43 50.2505 1001.43 51.3123C1002.44 52.3741 1008.46 57.292 1009.8 57.292C1009.8 57.292 1010.8 66.1776 1011.97 68.9159C1013.14 71.6543 1011.86 72.9955 1010.74 72.9955C1009.63 72.9955 993.798 68.8601 995.191 70.313C996.529 71.6543 1011.19 73.722 1011.19 75.1191C1011.19 76.5162 1012.53 84.6195 1009.85 85.1783C1007.12 85.7372 988.112 75.0073 987.164 76.9633C986.273 78.9751 1010.07 87.3019 1010.07 87.3019C1010.07 87.3019 1007.23 94.1198 1003.94 95.1257C1000.65 96.1875 979.528 80.1487 978.859 82.3282C978.19 84.5636 1001.66 97.5847 1001.66 97.5847C1001.66 97.5847 995.414 104.403 992.014 102.95C988.614 101.552 976.295 86.7431 974.901 88.1961C973.508 89.6491 987.722 100.714 987.722 100.714C987.722 100.714 982.371 106.694 977.855 104.458C973.34 102.223 970.497 91.5491 968.769 91.5491C967.097 91.5491 970.609 101.664 973.731 104.961C976.908 108.203 955.614 105.408 955.614 96.8582C955.614 93.2257 956.227 91.2138 956.896 90.0961C953.106 92.4433 949.037 94.6228 945.469 98.4229C936.272 107.979 930.363 126.756 926.572 148.551C927.91 147.601 928.914 147.713 928.914 148.887C928.914 150.898 933.652 172.079 935.993 169.676C938.334 167.273 929.359 147.937 932.537 144.695C934.432 142.739 938.78 140.224 942.236 138.939C943.741 137.43 948.256 135.81 946.863 131.339C945.469 126.868 952.771 122.9 952.771 122.9C952.771 122.9 957.286 129.718 961.411 129.718C965.481 129.718 956.172 125.247 956.172 122.677C956.172 120.106 970.219 115.412 970.219 115.412C970.219 115.412 966.261 123.962 966.317 127.483C967.989 126.253 969.773 125.136 971.334 124.242C972.671 120.386 973.34 116.641 975.459 115.635C977.967 114.462 980.141 112.562 981.646 114.238C979.361 119.38 981.98 125.695 984.266 124.856C985.381 122.006 989.004 110.27 989.729 110.27C990.565 110.27 992.126 111.388 994.745 112.003C993.296 115.132 991.457 120.05 994.244 120.05C997.031 120.05 999.929 115.188 1001.55 112.059C1007.62 110.997 1007.01 112.115 1012.3 117.535C1017.71 123.124 1021.06 128.545 1021.06 128.545ZM958.959 74.5603C959.516 74.0014 955.614 70.0895 953.496 65.3393C953.496 65.7864 953.496 66.2894 953.385 66.8482C952.827 70.0895 957.955 75.5662 958.959 74.5603ZM896.025 108.594C895.357 108.259 894.186 113.568 891.622 117.368C891.956 117.2 892.346 117.032 892.792 116.921C895.468 116.306 897.196 109.209 896.025 108.594ZM911.633 158.219C911.578 156.822 911.578 155.425 911.522 154.084C908.958 157.102 901.934 161.069 903.606 162.802C904.777 163.975 908.568 161.014 911.633 158.219ZM920.273 182.864C919.214 181.523 917.654 179.902 916.26 177.891C915.48 178.897 914.978 178.952 914.532 179.008C914.532 179.623 914.532 180.182 914.532 180.797C916.26 183.2 918.322 185.938 919.939 186.162C920.106 185.1 920.162 183.982 920.273 182.864ZM924.621 147.937C926.349 138.045 928.579 128.712 932.537 118.206C931.255 118.988 929.582 118.709 928.022 117.088C925.346 114.35 926.461 104.347 924.733 102.391C924.9 106.526 924.789 125.192 924.621 147.937ZM924.789 160.566C924.454 163.081 924.51 161.572 924.454 169.452C926.572 175.208 929.025 180.741 930.642 180.07C932.76 179.064 927.52 168.558 924.789 160.566ZM949.706 142.572C948.814 142.292 947.866 142.013 947.03 141.733C946.584 147.881 944.521 161.014 948.479 161.014C951.991 160.958 949.65 149.166 949.706 142.572ZM965.927 138.604C964.812 139.163 963.753 139.666 962.805 140.169C961.188 143.857 958.123 151.234 960.52 150.675C963.195 150.004 964.366 141.342 965.927 138.604Z" fill="url(#paint0_linear)"/>
<path d="M938.947 252.72H898.199C876.906 246.237 876.069 232.154 896.471 225.169H940.731C961.077 232.154 960.241 246.293 938.947 252.72Z" fill="#99BEFF"/>
<path opacity="0.3" d="M984.377 258.867C984.377 266.132 907.285 272 812.189 272C717.092 272 640 266.132 640 258.867C640 251.602 717.092 245.734 812.189 245.734C907.285 245.734 984.377 251.658 984.377 258.867Z" fill="#838BC5"/>
<path d="M828.466 191.694L818.878 203.485L868.043 202.591L861.855 186.664H828.466V191.694Z" fill="#07506F"/>
<path d="M801.263 112.282C801.263 112.282 792.456 116.418 789.223 123.012C787.383 126.812 780.137 138.213 774.339 147.21C779.022 150.116 784.986 155.369 788.275 159.449C793.292 152.687 795.689 145.142 795.689 145.142L801.263 112.282Z" fill="#FB8603"/>
<path d="M870.663 247.355C857.34 242.325 855.779 234.893 850.484 240.202C844.241 246.461 842.68 246.964 830.751 241.766L828.521 254.005C834.04 254.061 838.778 253.893 842.234 253.558C862.413 251.378 873.673 253.614 878.132 253.614C882.48 253.614 883.985 252.44 870.663 247.355Z" fill="#FD5E5A"/>
<path d="M884.152 258.979C870.83 253.949 869.269 246.517 863.973 251.826C857.73 258.085 856.169 258.588 844.241 253.39L842.011 265.629C847.529 265.685 852.267 265.517 855.724 265.182C875.902 263.003 887.162 265.238 891.622 265.238C895.97 265.238 897.475 264.008 884.152 258.979Z" fill="#FC7575"/>
<path d="M803.549 232.378C786.659 232.713 769.044 235.898 769.044 235.898C769.044 235.898 784.986 234.781 803.549 232.378Z" fill="#07506F"/>
<path d="M831.253 237.687C826.347 233.272 815.087 232.154 803.493 232.378C784.931 234.781 768.988 235.898 768.988 235.898C768.988 235.898 786.603 232.713 803.493 232.378C828.911 229.08 859.291 223.324 860.74 214.606C863.137 199.462 824.396 199.797 824.396 199.797C824.396 199.797 756.948 217.177 749.255 229.807C741.563 242.437 752.433 246.852 754.049 248.305C755.387 249.478 801.375 253.893 828.465 254.117L831.42 237.966C831.364 237.798 831.308 237.743 831.253 237.687Z" fill="#07506F"/>
<path d="M844.185 135.809C844.185 113.679 829.469 104.011 829.469 104.011C829.469 104.011 819.993 100.882 811.074 103.955C802.211 107.085 789.279 127.259 791.675 140.839C794.072 154.419 822.501 190.353 824.452 192.085C838.778 190.856 856.114 191.806 870.328 190.464C863.583 176.437 844.185 150.731 844.185 135.809Z" fill="#FFDA88"/>
<path d="M844.185 135.809C844.185 113.679 829.469 104.011 829.469 104.011C829.469 104.011 819.993 100.882 811.074 103.955C802.211 107.085 789.279 127.259 791.675 140.839C794.072 154.419 822.501 190.353 824.452 192.085C838.778 190.856 856.114 191.806 870.328 190.464C863.583 176.437 844.185 150.731 844.185 135.809Z" fill="#FFDA88"/>
<path d="M837.774 113.009C836.325 110.773 834.82 108.929 833.482 107.532C826.013 112.618 813.471 119.491 793.682 125.918C792.846 128.209 792.177 130.556 791.787 132.792C814.864 126.142 829.302 118.597 837.774 113.009Z" fill="#FFF7CF"/>
<path d="M839.168 115.356C830.417 121.112 815.422 128.824 791.397 135.698C791.285 137.486 791.341 139.219 791.62 140.839C791.731 141.454 791.898 142.125 792.121 142.851C818.822 135.027 833.928 126.142 841.509 120.497C840.84 118.653 840.004 116.921 839.168 115.356Z" fill="#FFF7CF"/>
<path d="M844.018 131.506C843.739 128.488 843.181 125.75 842.457 123.235C834.486 129.047 819.379 137.709 793.069 145.366C793.794 147.21 794.797 149.277 795.968 151.457C819.825 144.807 834.987 137.262 844.018 131.506Z" fill="#FFF7CF"/>
<path d="M860.071 172.581C851.543 176.605 838.22 181.299 818.488 184.764C819.881 186.608 821.163 188.117 822.111 189.347C843.181 188.564 857.34 185.379 866.036 182.473C864.196 179.399 862.19 176.046 860.071 172.581Z" fill="#FFF7CF"/>
<path d="M829.469 104.011C829.469 104.011 827.072 103.229 823.504 102.838C817.651 105.967 810.238 109.376 800.929 112.729C798.699 115.635 796.637 119.1 795.02 122.677C812.858 116.641 824.396 110.382 831.476 105.632C830.249 104.514 829.469 104.011 829.469 104.011Z" fill="#FFF7CF"/>
<path d="M817.874 102.67C815.7 102.782 813.359 103.173 811.074 104.011C809.067 104.738 806.837 106.303 804.608 108.482C809.624 106.47 814.028 104.57 817.874 102.67Z" fill="#FFF7CF"/>
<path d="M824.34 191.973C824.396 192.029 824.452 192.085 824.508 192.085C838.834 190.856 856.169 191.806 870.384 190.464C869.548 188.788 868.544 186.888 867.429 184.876C858.845 187.838 845.021 191.023 824.34 191.973Z" fill="#FFF7CF"/>
<path d="M854.218 162.522C844.909 167.049 831.364 172.19 812.244 176.493C813.805 178.617 815.254 180.573 816.648 182.361C836.604 178.952 850.093 174.146 858.678 170.178C857.173 167.664 855.668 165.093 854.218 162.522Z" fill="#FFF7CF"/>
<path d="M844.185 135.81C844.185 135.418 844.185 135.027 844.185 134.636C834.931 140.336 820.104 147.489 797.249 153.86C798.532 156.096 799.925 158.387 801.374 160.734C823.003 154.251 836.771 147.098 844.965 141.733C844.463 139.61 844.185 137.654 844.185 135.81Z" fill="#FFF7CF"/>
<path d="M848.812 152.128C847.585 149.501 846.582 146.93 845.801 144.471C837.44 149.836 823.895 156.766 802.935 163.081C803.939 164.59 804.942 166.099 805.946 167.608C826.347 162.69 840.06 156.878 848.812 152.128Z" fill="#FFF7CF"/>
<path d="M852.881 160.119C851.877 158.275 850.874 156.375 849.982 154.587C841.175 159.337 827.63 165.093 807.562 169.955C808.566 171.352 809.569 172.749 810.517 174.146C829.859 169.843 843.516 164.702 852.881 160.119Z" fill="#FFF7CF"/>
<path opacity="0.28" d="M805.945 167.608C809.29 172.526 812.802 177.276 815.812 181.299C819.602 177.276 844.185 143.466 844.185 135.809C844.185 128.209 842.457 122.062 840.116 117.256C832.367 125.862 819.268 149.054 813.582 157.325C814.586 157.884 813.582 157.325 814.697 158.051C810.572 164.087 806.614 168.278 806.614 168.278C806.614 168.278 806.391 168.055 805.945 167.608Z" fill="#F9B406"/>
<path d="M856.448 194.097C836.381 189.403 809.792 209.801 787.104 222.71C771.887 231.372 762.187 244.281 761.63 253.782C761.24 259.929 765.086 264.176 769.378 265.294C778.353 267.641 838.555 233.663 854.274 229.751C870.049 225.895 871.331 209.801 868.042 202.591C867.485 201.418 867.039 196.612 856.448 194.097Z" fill="#25A9E0"/>
<path d="M792.902 56.23C792.902 56.23 782.589 56.7888 781.196 66.7362C779.802 76.7395 785.878 87.134 785.767 91.6607C785.599 96.1873 779.858 96.5226 780.527 94.1755C780.527 94.1755 778.13 98.255 782.645 99.9316C787.105 101.608 789.223 99.3169 789.223 99.3169C789.223 99.3169 790.784 105.799 799.647 104.291C808.454 102.726 809.513 98.5345 809.513 98.5345C809.513 98.5345 823.783 104.123 826.124 91.046C822.222 92.4989 819.156 89.7047 818.543 86.1281C817.819 82.1044 818.042 79.2543 817.707 75.2307C817.261 69.5863 816.035 61.7625 811.13 58.0183C806.726 54.6093 800.984 52.9328 795.243 55.6152C794.518 56.0623 793.682 56.0064 792.902 56.23Z" fill="#54284E"/>
<path d="M822.835 90.4872C821.553 90.1519 820.104 88.9225 819.435 86.5753C818.041 79.8692 819.547 69.0835 814.585 61.1479C813.248 59.0243 811.575 57.8507 811.464 57.7389C811.129 57.6272 803.883 51.3681 795.243 55.7271C803.994 52.0946 810.572 58.4096 810.851 58.5213C810.962 58.6331 812.356 59.6949 813.582 61.7626C818.432 69.9776 816.313 83.334 818.153 87.9165C819.212 90.7667 821.832 92.7226 825.009 92.1638C822.055 103.117 809.067 97.8081 809.011 97.8081C809.011 97.864 808.955 99.3729 806.837 100.994L806.28 101.385C802.824 103.564 798.42 104.291 796.804 104.291C793.905 104.402 791.006 103.061 789.557 100.379C790.393 102.223 791.843 103.564 793.849 104.291C798.699 105.8 807.395 103.788 809.736 99.317C812.969 100.435 816.871 100.882 820.104 99.8199C826.403 97.8081 826.849 90.5431 827.072 89.8725C826.291 90.096 824.675 91.102 822.835 90.4872Z" fill="#3F1E3B"/>
<path d="M809.68 83.0546L816.091 105.353C816.091 105.353 810.572 130.221 805.945 128.768C801.319 127.315 801.43 106.582 801.43 106.582L797.751 92.8903L809.68 83.0546Z" fill="#FC7575"/>
<path d="M809.68 83.0546L810.405 85.5135C809.513 90.3755 805.054 99.2611 799.814 100.602L797.751 92.9462L809.68 83.0546Z" fill="#FD5E5A"/>
<path d="M791.062 57.515C791.062 57.515 783.537 62.3769 784.262 68.4683C784.931 74.5597 786.157 76.7951 786.213 80.8188C786.268 84.8425 789.724 95.0135 796.302 96.5782C802.88 98.143 809.29 86.5749 809.903 81.8247C810.516 77.0187 809.903 70.4243 807.116 63.6064C804.385 56.7326 795.354 55.5032 791.062 57.515Z" fill="#FC7575"/>
<path d="M792.958 84.6193C793.738 83.2222 793.515 80.5956 793.069 78.975C793.013 80.5956 793.013 83.3898 792.4 84.5075L792.289 84.7311C792.4 84.787 793.627 85.737 794.964 85.4017C794.518 85.4017 793.515 85.0664 792.958 84.6193Z" fill="#452140"/>
<path d="M799.647 86.2399C796.86 88.2518 792.344 89.2018 792.344 89.2018C792.344 89.2018 792.79 89.7606 793.515 90.3195C794.853 89.9842 797.361 89.2018 799.368 87.9723C799.591 87.0223 799.647 86.2399 799.647 86.2399Z" fill="white"/>
<path d="M799.312 88.0281C797.306 89.2576 794.797 90.04 793.459 90.3753C796.191 92.4989 798.365 91.3812 799.312 88.0281Z" fill="#2E162B"/>
<path d="M795.02 73.2189C795.02 73.2189 795.633 72.2689 797.138 71.6542C798.643 71.0395 802.267 72.2689 802.267 72.2689C802.267 72.2689 798.811 71.9895 797.863 72.1571C796.971 72.3807 795.633 73.4984 795.633 73.4984L795.02 73.2189Z" fill="#5C2C55"/>
<path d="M790.672 74.6718C790.672 74.6718 790.003 74.113 788.721 74.0012C787.495 73.8894 785.042 75.4542 785.042 75.4542C785.042 75.4542 787.55 74.56 788.275 74.5042C789 74.4483 790.226 75.0071 790.226 75.0071L790.672 74.6718Z" fill="#5C2C55"/>
<path d="M796.302 77.1863C796.748 76.2363 798.142 75.5098 799.089 75.398C800.427 75.2863 801.486 76.0686 802.322 76.0128C801.207 76.6834 800.427 75.4539 797.696 76.404C797.194 76.6275 796.748 76.851 796.302 77.1863Z" fill="#2E162B"/>
<path d="M791.062 78.6397C790.282 77.9132 788.721 77.7455 787.829 78.025C786.547 78.4162 785.878 79.5339 785.098 79.8133C786.38 79.9809 786.659 78.5838 789.501 78.472C790.059 78.472 790.561 78.4721 791.062 78.6397Z" fill="#2E162B"/>
<path d="M803.827 79.7574C804.162 80.5957 803.214 81.8251 801.709 82.384C800.204 82.9987 798.699 82.7752 798.365 81.9369C798.03 81.0986 798.978 79.8692 800.483 79.3103C801.988 78.6956 803.493 78.9192 803.827 79.7574Z" fill="#FD5E5A"/>
<path d="M787.829 81.4897C787.272 81.4338 786.714 81.4897 786.268 81.6015C786.324 82.3838 786.547 83.3339 786.77 84.3957C786.993 84.4516 787.272 84.5075 787.495 84.5075C788.944 84.6192 790.226 84.0604 790.282 83.2221C790.393 82.4397 789.278 81.6015 787.829 81.4897Z" fill="#FD5E5A"/>
<path d="M791.174 59.4153C792.177 55.6151 802.657 49.0767 813.248 68.9715C823.616 89.6488 811.074 92.946 808.064 88.1958C807.729 87.7487 807.618 86.9663 807.896 86.3516C806.67 85.3457 804.552 81.7691 806.336 79.5337C807.116 78.5278 808.064 78.1366 808.342 77.9689C808.342 77.9689 805.834 79.7013 808.287 81.4338C810.293 82.8309 811.854 79.0307 812.021 77.6895C813.359 67.6862 787.829 70.0333 791.174 59.4153Z" fill="#6D3465"/>
<path d="M793.849 56.2856L791.731 63.2712C791.731 63.2712 784.094 66.0095 784.931 72.7157C785.265 75.2864 785.822 76.8511 785.822 76.8511C785.822 76.8511 784.708 76.404 782.757 72.6039C780.75 68.6361 782.088 61.5388 785.655 59.2475C789.167 56.9563 793.849 56.2856 793.849 56.2856Z" fill="#6D3465"/>
<path d="M791.174 59.4154C789.78 62.042 790.393 65.5068 795.8 68.1334C800.148 70.257 806.113 70.9835 809.792 74.1689C811.799 75.5101 812.077 81.2103 809.402 81.1545C807.506 81.3221 807.228 79.0867 808.398 77.9132C807.618 78.3043 807.06 79.2544 807.172 80.2603C807.172 82.328 810.795 83.1663 812.189 80.9868C813.248 79.422 813.415 77.019 812.913 75.1748C810.349 65.898 789.279 69.6981 791.174 59.4154Z" fill="#914587"/>
<path d="M808.733 74.504C808.733 74.504 808.9 71.598 810.962 72.6039C814.14 74.1128 811.854 80.763 809.959 81.0983C808.064 81.4336 808.733 74.504 808.733 74.504Z" fill="#FC7575"/>
<path d="M809.178 75.398C809.178 75.398 809.234 74.2803 809.903 74.1685C810.628 74.0568 810.906 79.1981 809.959 79.1981C809.067 79.254 809.178 75.398 809.178 75.398Z" fill="#FD5E5A"/>
<path d="M761.463 254.62C759.233 282.171 846.47 268.479 846.47 268.479V250.987C846.47 250.987 805.5 243.275 791.397 242.549C779.022 241.934 762.076 247.243 761.463 254.62Z" fill="#51BAE6"/>
<path d="M770.605 110.382C770.605 110.382 776.291 114.462 776.291 117.647C776.291 120.833 773.894 122.286 772.444 118.709C770.995 115.132 769.657 115.915 766.591 114.071C763.525 112.226 762.132 109.097 762.132 109.097L770.605 110.382Z" fill="#58391B"/>
<path d="M754.551 143.689C754.551 143.689 757.226 149.278 754.718 152.351C752.265 155.369 753.38 156.207 758.564 159.393C763.748 162.634 762.355 165.484 762.355 165.484C762.355 165.484 752.488 161.461 750.426 160.622C748.363 159.784 746.691 157.046 746.691 157.046L745.075 146.539L754.551 143.689Z" fill="#58391B"/>
<path d="M773.447 97.2493C773.447 97.2493 774.339 93.0021 771.441 90.0961C768.542 87.1901 752.767 85.9047 755.443 89.0343C758.118 92.1638 768.932 92.4432 769.768 94.0639C770.605 95.6845 773.447 97.2493 773.447 97.2493Z" fill="#754C24"/>
<path d="M783.537 142.124C779.802 148.272 772.723 156.822 772.723 156.822C772.723 156.822 751.875 128.6 749.646 126.309C749.423 126.086 749.2 125.75 749.032 125.359C747.416 121.894 747.416 112.841 747.416 112.841C747.416 112.841 747.026 104.961 744.406 104.961C741.786 104.961 747.416 112.841 745.13 115.747C742.845 118.653 741.228 117.312 740.783 115.468C740.337 113.679 743.012 104.738 741.173 104.738C739.333 104.738 738.999 116.026 737.772 114.797C736.602 113.623 739.891 102.055 738.274 102.055C736.602 102.055 734.651 114.462 734.651 117.312C734.651 120.218 743.012 128.88 745.855 131.786C748.698 134.692 765.086 177.779 774.841 174.929C780.583 173.252 784.986 159.505 791.397 150.451C788.442 146.651 787.662 144.807 783.537 142.124Z" fill="#FD5E5A"/>
<path d="M771.887 96.0198C771.887 96.0198 776.29 97.0258 778.855 100.658C781.475 104.291 783.091 107.644 783.091 107.644C783.091 107.644 775.566 115.3 770.27 112.338C765.03 109.32 762.634 109.209 762.02 111.22C761.407 113.176 763.86 132.009 762.02 136.927C760.181 141.845 750.816 153.916 741.73 153.078C732.644 152.24 731.808 141.454 732.7 135.307C733.592 129.159 735.933 120.553 736.992 115.468C738.051 110.382 738.218 106.023 746.58 101.664C754.997 97.1934 765.253 93.8962 771.887 96.0198Z" fill="#754C24"/>
<path d="M762.02 111.165C761.63 113.959 764.306 130.612 762.522 136.704C761.24 140.727 755.331 148.048 749.199 151.122C754.439 147.825 761.909 139.722 762.187 133.742C762.522 129.662 761.909 113.903 761.909 113.959C761.853 113.065 761.797 112.115 762.02 111.165Z" fill="url(#paint1_linear)"/>
<path d="M770.549 97.5847C770.549 97.5847 771.441 92.7786 767.595 88.9226C763.748 85.0666 758.063 82.7753 755.833 84.5077C753.659 86.2401 761.686 89.9844 762.188 91.7727C762.689 93.561 766.145 97.0817 770.549 97.5847Z" fill="#C69C6D"/>
<path d="M770.549 97.5847C770.716 93.5052 768.932 90.4874 765.867 87.9726C763.47 86.0166 758.453 82.943 755.833 84.5078C759.122 81.49 772.723 88.0285 770.549 97.5847Z" fill="url(#paint2_linear)"/>
<path d="M767.985 95.7402C767.985 95.7402 766.313 89.5929 763.916 87.8605C761.519 86.1281 756.446 84.3398 756.948 86.0722C757.45 87.7487 764.752 89.4253 765.365 91.8283C766.09 94.2313 767.985 95.7402 767.985 95.7402Z" fill="#FC7575"/>
<path d="M748.475 135.642C748.475 135.642 751.429 133.518 757.394 138.604C763.358 143.689 759.456 146.539 760.46 148.439C761.463 150.339 765.477 148.048 768.096 145.421C770.661 142.851 774.618 144.36 774.897 146.036C774.897 146.036 771.106 150.451 768.654 152.072C766.257 153.748 759.066 155.648 759.066 155.648C759.066 155.648 753.938 154.139 753.269 151.792C752.656 149.445 750.147 151.792 747.081 152.072C744.016 152.463 735.989 141.174 748.475 135.642Z" fill="#754C24"/>
<path d="M747.081 152.128C744.127 152.184 742.065 148.104 741.563 145.701C740.615 141.174 743.625 137.486 747.472 135.586C748.308 135.195 749.2 134.859 750.091 134.803C754.439 134.524 760.404 139.442 760.85 143.745C761.017 145.31 760.683 146.26 760.237 147.769C760.237 145.98 760.738 145.03 760.348 143.41C759.846 141.174 758.118 139.442 756.279 138.045C754.83 136.983 753.213 136.089 751.485 135.809C747.249 135.139 742.399 139.386 742.009 143.577C741.73 146.651 743.57 150.228 745.799 151.681C746.189 151.96 746.635 152.128 747.081 152.128Z" fill="#3B2612"/>
<path d="M733.09 144.751C733.09 144.751 730.749 143.466 727.739 146.428C724.784 149.39 732.198 154.978 734.762 151.457C737.382 147.937 733.09 144.751 733.09 144.751Z" fill="#754C24"/>
<path d="M777.015 103.061C777.015 103.9 776.569 104.57 776.012 104.57C775.454 104.57 775.008 103.9 775.008 103.061C775.008 102.223 775.454 101.553 776.012 101.553C776.569 101.553 777.015 102.223 777.015 103.061Z" fill="black"/>
<path d="M756.948 96.4669C756.948 96.4669 761.017 108.65 766.368 110.438L764.306 111.556L755.387 97.3052L756.948 96.4669Z" fill="#2846A6"/>
<path d="M751.931 114.741C751.151 113.624 752.21 111.388 752.21 111.276C752.098 111.332 751.764 109.879 748.698 113.009C748.419 110.829 749.423 108.762 749.478 108.65C748.865 108.929 749.144 107.756 744.183 111.388C744.294 107.812 748.754 106.079 748.809 105.967C748.085 105.856 749.423 104.85 742.455 105.241C744.183 103.844 748.809 103.285 750.983 103.061C742.009 102.95 741.228 105.856 741.061 105.912C741.173 105.912 745.186 105.8 747.026 106.023C742.009 109.097 743.514 112.841 743.402 113.065C743.514 113.009 746.58 110.55 748.252 109.712C747.416 112.618 748.363 114.127 748.363 114.406C748.475 114.294 750.593 111.612 751.596 111.5C750.649 114.35 751.931 115.021 751.931 115.132C751.987 115.021 753.603 112.897 754.328 112.785C753.659 112.841 752.377 114.294 751.931 114.741Z" fill="#58391B"/>
<path d="M745.353 124.744C745.019 121.168 744.907 120.385 744.852 119.994C744.517 120.274 744.015 118.988 740.838 123.906C740.448 121.335 741.953 118.038 742.009 117.927C741.73 118.038 740.615 117.368 737.159 120.218C737.215 118.374 738.441 115.691 739.277 114.07C735.933 119.044 736.713 121.224 736.657 121.391C736.769 121.335 738.999 119.435 740.782 118.877C738.943 123.739 740.559 125.75 740.559 126.086C740.615 125.974 742.845 122.118 744.183 121.056C744.406 122.677 744.629 124.353 744.907 126.086C745.465 125.415 748.642 122.062 750.593 119.715C749.813 120.441 747.917 122.23 745.353 124.744Z" fill="#58391B"/>
<path d="M764.361 101.217C763.693 101.049 762.745 100.882 761.742 100.714C762.633 100.267 764.138 100.043 764.529 99.9317C764.417 99.8758 762.187 98.7581 762.299 98.8699C763.47 98.4228 764.361 98.7022 764.696 98.7022C764.529 98.4787 763.079 96.6345 763.135 96.6904C764.083 96.8022 765.03 97.1934 765.866 97.6963C765.421 97.3051 764.919 96.9698 764.417 96.7463C763.358 96.1874 762.522 96.2433 762.299 96.1874C762.355 96.2992 763.581 98.0875 763.525 97.9757C761.909 97.9757 761.128 98.7022 760.85 98.814C760.961 98.8699 762.689 99.7082 762.578 99.6523C760.236 100.379 760.181 101.217 760.181 101.385C760.459 101.441 761.686 101.217 763.525 101.441C763.47 101.496 762.578 102.614 762.633 102.502C762.689 102.502 764.975 102.502 765.699 102.446C764.919 102.335 764.138 102.279 763.414 102.167C763.358 102.223 764.417 101.105 764.361 101.217Z" fill="#58391B"/>
<path d="M769.601 106.917C768.709 106.805 767.483 106.582 766.257 106.414C767.372 105.799 769.267 105.408 769.768 105.241C769.601 105.185 766.647 103.899 766.87 104.011C768.375 103.396 769.49 103.676 769.936 103.676C769.713 103.396 767.706 101.105 767.818 101.217C769.044 101.329 770.27 101.72 771.385 102.335C770.828 101.832 770.159 101.496 769.434 101.161C768.04 100.546 766.981 100.658 766.647 100.602C766.703 100.714 768.431 102.949 768.319 102.838C766.201 102.949 765.142 103.732 764.919 104.123C765.086 104.179 767.316 105.185 767.204 105.129C764.306 106.191 764.361 106.47 763.916 106.861C764.306 106.917 766.089 107.252 768.486 107.42C768.431 107.532 767.316 108.985 767.372 108.873C767.483 108.873 770.382 108.705 771.274 108.594C770.27 108.482 769.267 108.482 768.319 108.37C768.431 108.314 769.713 106.861 769.601 106.917Z" fill="#58391B"/>
<path d="M811.297 151.513C807.172 157.66 801.82 162.075 801.82 162.075C801.82 162.075 774.228 132.456 771.719 130.165C771.441 129.942 771.218 129.606 771.051 129.215C769.267 125.75 769.267 116.697 769.267 116.697C769.267 116.697 768.821 108.817 765.978 108.817C763.079 108.817 769.267 116.697 766.758 119.603C764.25 122.509 762.466 121.168 761.965 119.323C761.463 117.535 764.417 108.594 762.355 108.594C760.292 108.594 759.958 119.882 758.62 118.653C757.338 117.479 760.961 105.911 759.122 105.911C757.282 105.911 755.108 118.318 755.108 121.168C755.108 124.074 764.361 132.736 767.483 135.642C770.605 138.548 788.721 185.547 799.423 182.641C805.778 180.964 815.7 169.508 822.724 160.454C819.547 156.71 815.868 154.195 811.297 151.513Z" fill="#FC7575"/>
<path d="M811.297 151.513C810.739 152.295 810.238 153.078 809.68 153.748C812.579 156.096 817.651 160.455 820.048 163.975C820.996 162.802 821.944 161.628 822.835 160.455C819.547 156.71 815.868 154.196 811.297 151.513Z" fill="#FD5E5A"/>
<path d="M829.469 104.011C823.783 105.52 813.805 142.013 807.451 151.01C812.635 153.916 819.157 159.169 822.78 163.249C828.298 156.487 843.683 139.889 843.906 129.997C844.018 123.18 836.604 102.111 829.469 104.011Z" fill="#F9B406"/>
<path d="M829.469 104.011C824.173 106.526 816.091 140.504 807.451 151.01C812.245 142.404 822.668 105.855 829.469 104.011Z" fill="white"/>
<path d="M861.019 201.53C860.629 201.53 860.294 201.25 860.183 200.859C860.071 200.412 860.294 199.909 860.796 199.741C862.747 199.183 863.806 198.903 863.806 198.903C864.252 198.791 864.754 199.071 864.921 199.518C865.032 200.021 864.754 200.468 864.308 200.58C864.308 200.58 863.249 200.859 861.353 201.418C861.186 201.474 861.075 201.53 861.019 201.53Z" fill="#1C7FA8"/>
<path d="M781.642 237.854C783.147 236.569 784.819 235.284 786.603 233.998C786.993 233.719 787.104 233.16 786.826 232.769C786.547 232.378 785.989 232.266 785.599 232.545C783.815 233.831 782.087 235.172 780.582 236.457C780.192 236.793 780.136 237.351 780.471 237.687C780.638 237.91 780.917 238.022 781.14 238.022C781.307 238.078 781.474 238.022 781.642 237.854ZM791.787 230.534C793.459 229.472 795.298 228.354 797.138 227.292C797.584 227.069 797.695 226.51 797.472 226.063C797.249 225.616 796.692 225.504 796.246 225.728C794.351 226.845 792.511 227.907 790.783 229.025C790.393 229.304 790.226 229.863 790.505 230.254C790.672 230.534 790.951 230.645 791.229 230.645C791.452 230.645 791.619 230.589 791.787 230.534ZM802.656 224.219C804.44 223.269 806.335 222.319 808.286 221.369C808.732 221.145 808.9 220.642 808.677 220.195C808.454 219.748 807.952 219.58 807.506 219.804C805.555 220.754 803.66 221.704 801.82 222.654C801.374 222.877 801.207 223.436 801.43 223.883C801.597 224.163 801.876 224.386 802.21 224.386C802.378 224.33 802.489 224.275 802.656 224.219ZM813.916 218.686C815.756 217.848 817.707 217.01 819.658 216.171C820.104 216.004 820.327 215.445 820.104 214.998C819.937 214.551 819.379 214.327 818.933 214.551C816.982 215.389 815.031 216.283 813.136 217.121C812.69 217.345 812.467 217.848 812.69 218.295C812.857 218.63 813.136 218.798 813.526 218.798C813.693 218.798 813.805 218.742 813.916 218.686ZM825.511 213.712C827.406 212.93 829.357 212.204 831.364 211.421C831.81 211.253 832.033 210.751 831.866 210.248C831.698 209.8 831.197 209.577 830.695 209.745C828.688 210.527 826.681 211.309 824.786 212.036C824.34 212.204 824.117 212.762 824.285 213.209C824.452 213.545 824.73 213.768 825.121 213.768C825.288 213.824 825.399 213.768 825.511 213.712ZM837.273 209.242C839.335 208.515 841.286 207.789 843.237 207.174C843.683 207.006 843.962 206.503 843.794 206.056C843.627 205.609 843.125 205.33 842.68 205.497C840.784 206.168 838.778 206.839 836.715 207.621C836.269 207.789 835.99 208.292 836.158 208.739C836.269 209.13 836.604 209.353 836.994 209.353C837.105 209.298 837.161 209.298 837.273 209.242ZM849.201 205.162C851.375 204.436 853.438 203.821 855.222 203.262C855.668 203.094 855.946 202.647 855.835 202.144C855.668 201.697 855.222 201.418 854.72 201.53C852.936 202.088 850.874 202.703 848.7 203.43C848.254 203.597 847.975 204.1 848.142 204.547C848.254 204.939 848.588 205.162 848.978 205.162C849.034 205.218 849.09 205.218 849.201 205.162Z" fill="#1C7FA8"/>
<path d="M774.395 244.617C774.172 244.617 774.005 244.561 773.838 244.393C773.448 244.058 773.448 243.499 773.726 243.164C774.395 242.381 775.12 241.599 775.845 240.817C776.179 240.481 776.736 240.481 777.127 240.817C777.461 241.152 777.461 241.711 777.127 242.102C776.402 242.884 775.677 243.611 775.064 244.337C774.897 244.505 774.618 244.617 774.395 244.617Z" fill="#1C7FA8"/>
<path d="M823.226 262.611C823.727 262.611 824.118 262.164 824.118 261.717C824.118 261.214 823.727 260.879 823.226 260.823C821.163 260.879 819.101 260.879 817.038 260.823C816.537 260.823 816.146 261.214 816.146 261.717C816.146 262.22 816.537 262.611 817.038 262.611C818.153 262.611 819.212 262.667 820.327 262.667C821.219 262.667 822.222 262.667 823.226 262.611ZM811.631 261.494C811.687 260.991 811.297 260.599 810.795 260.544C808.788 260.432 806.726 260.264 804.608 260.041C804.106 259.985 803.66 260.376 803.66 260.823C803.604 261.326 803.939 261.773 804.441 261.773C806.559 261.997 808.677 262.164 810.684 262.276H810.739C811.185 262.332 811.576 261.997 811.631 261.494ZM829.469 262.276C831.643 262.108 833.761 261.829 835.712 261.494C836.214 261.438 836.548 260.935 836.437 260.488C836.381 259.985 835.879 259.649 835.433 259.761C833.482 260.096 831.42 260.32 829.302 260.488C828.8 260.544 828.466 260.935 828.466 261.438C828.521 261.885 828.912 262.276 829.357 262.276C829.413 262.276 829.469 262.276 829.469 262.276ZM799.257 260.32C799.312 259.817 798.978 259.37 798.476 259.314C796.469 259.035 794.407 258.755 792.344 258.42C791.843 258.364 791.397 258.699 791.341 259.146C791.285 259.649 791.62 260.096 792.066 260.152C794.128 260.488 796.246 260.823 798.253 261.047C798.309 261.047 798.309 261.047 798.365 261.047C798.811 261.102 799.201 260.767 799.257 260.32ZM841.9 260.208C842.457 260.041 842.959 259.929 843.516 259.761C843.962 259.594 844.241 259.146 844.129 258.643C843.962 258.196 843.516 257.917 843.014 258.029C842.513 258.196 841.955 258.308 841.454 258.476C840.952 258.588 840.673 259.091 840.84 259.594C840.952 259.985 841.286 260.264 841.677 260.264C841.732 260.208 841.844 260.208 841.9 260.208ZM786.937 258.364C787.049 257.861 786.714 257.414 786.213 257.302C784.206 256.911 782.144 256.52 780.137 256.073C779.635 255.961 779.189 256.296 779.078 256.743C778.966 257.246 779.301 257.693 779.747 257.805C781.753 258.252 783.816 258.643 785.878 259.035C785.934 259.035 785.99 259.035 786.046 259.035C786.491 259.091 786.882 258.811 786.937 258.364ZM774.73 255.793C774.841 255.29 774.563 254.843 774.061 254.732C770.326 253.837 768.096 253.167 768.041 253.167C767.595 253.055 767.093 253.279 766.926 253.782C766.814 254.229 767.037 254.732 767.539 254.899C767.539 254.899 769.824 255.57 773.615 256.464C773.671 256.464 773.782 256.464 773.838 256.464C774.284 256.464 774.618 256.24 774.73 255.793Z" fill="#7CCBEC"/>
<path d="M762.689 105.408C762.689 105.408 765.477 110.606 768.431 112.17C771.385 113.735 773.448 116.865 772.444 119.994C771.441 123.124 767.037 121.503 765.923 118.932C764.808 116.362 760.683 114.909 757.338 113.568C753.994 112.226 752.6 102.726 757.617 103.117C762.634 103.397 762.689 105.408 762.689 105.408Z" fill="#754C24"/>
<path d="M768.431 112.17C765.477 110.606 763.247 107.588 762.689 105.408C762.355 104.067 762.634 103.396 757.617 103.061C756.391 102.949 755.61 103.452 755.053 104.235C755.499 103.955 756.112 103.788 756.781 103.844C761.798 104.179 761.463 104.849 761.853 106.191C762.411 108.314 764.64 111.388 767.595 112.953C770.549 114.517 772.612 117.647 771.608 120.777C771.553 121 771.441 121.224 771.33 121.391C771.831 121.112 772.221 120.665 772.444 119.994C773.448 116.809 771.385 113.735 768.431 112.17Z" fill="#3B2612"/>
<path d="M782.757 108.091C782.757 108.091 782.366 111.444 779.691 112.394C778.632 112.785 772.556 112.282 774.841 108.817C777.127 105.352 782.199 106.638 782.199 106.638L782.757 108.091Z" fill="#58391B"/>
<path d="M782.757 108.091C782.757 108.091 783.258 107.867 783.258 107.42C782.924 106.806 782.534 106.582 782.534 106.582C782.534 106.582 782.088 106.694 782.032 107.476C782.422 108.259 782.757 108.091 782.757 108.091Z" fill="#FC7575"/>
<path d="M140.497 114.7H146.989V128.383L156.611 114.7H162.803V138.005H156.311V124.355L146.723 138.005H140.497V114.7ZM151.617 113.301C149.264 113.301 147.533 112.846 146.423 111.936C145.336 111.026 144.792 109.672 144.792 107.875H149.22C149.242 108.651 149.442 109.228 149.819 109.606C150.196 109.983 150.796 110.172 151.617 110.172C152.438 110.172 153.048 109.983 153.448 109.606C153.848 109.228 154.058 108.651 154.081 107.875H158.509C158.509 109.672 157.954 111.026 156.844 111.936C155.734 112.846 153.992 113.301 151.617 113.301ZM188.782 132.944V141.734H182.923V138.005H171.57V141.734H165.677V132.944H166.343C167.43 132.922 168.185 132.334 168.607 131.18C169.028 130.003 169.284 128.361 169.373 126.252L169.606 119.96H186.285V132.944H188.782ZM175.066 126.718C174.999 128.339 174.877 129.637 174.699 130.614C174.522 131.59 174.189 132.367 173.701 132.944H179.96V124.987H175.132L175.066 126.718ZM209.779 129.016C209.779 129.06 209.746 129.582 209.679 130.58H196.562C196.828 131.513 197.338 132.234 198.093 132.745C198.87 133.233 199.835 133.477 200.99 133.477C201.855 133.477 202.599 133.355 203.22 133.111C203.864 132.867 204.508 132.467 205.151 131.912L208.48 135.375C206.727 137.328 204.163 138.304 200.79 138.304C198.681 138.304 196.828 137.905 195.23 137.106C193.632 136.307 192.389 135.197 191.501 133.777C190.635 132.356 190.203 130.747 190.203 128.949C190.203 127.173 190.624 125.586 191.468 124.188C192.333 122.768 193.521 121.658 195.03 120.859C196.539 120.06 198.237 119.66 200.124 119.66C201.922 119.66 203.553 120.038 205.018 120.792C206.483 121.525 207.637 122.601 208.48 124.022C209.346 125.42 209.779 127.085 209.779 129.016ZM200.157 124.155C199.181 124.155 198.359 124.432 197.694 124.987C197.05 125.542 196.639 126.297 196.462 127.251H203.853C203.675 126.297 203.253 125.542 202.588 124.987C201.944 124.432 201.134 124.155 200.157 124.155ZM241.721 119.96V138.005H213.122V119.96H219.414V132.944H224.309V119.96H230.601V132.944H235.462V119.96H241.721ZM277.022 132.944V141.734H271.163V138.005H259.81V141.734H253.917V132.944H254.583C255.67 132.922 256.425 132.334 256.847 131.18C257.268 130.003 257.524 128.361 257.612 126.252L257.845 119.96H274.525V132.944H277.022ZM263.305 126.718C263.239 128.339 263.117 129.637 262.939 130.614C262.762 131.59 262.429 132.367 261.94 132.944H268.2V124.987H263.372L263.305 126.718ZM288.63 138.304C286.699 138.304 284.957 137.905 283.403 137.106C281.849 136.307 280.629 135.197 279.741 133.777C278.875 132.356 278.442 130.747 278.442 128.949C278.442 127.173 278.875 125.575 279.741 124.155C280.629 122.734 281.838 121.636 283.37 120.859C284.923 120.06 286.677 119.66 288.63 119.66C290.583 119.66 292.337 120.06 293.89 120.859C295.444 121.636 296.654 122.734 297.519 124.155C298.385 125.553 298.818 127.151 298.818 128.949C298.818 130.747 298.385 132.356 297.519 133.777C296.654 135.197 295.444 136.307 293.89 137.106C292.337 137.905 290.583 138.304 288.63 138.304ZM288.63 133.277C289.74 133.277 290.65 132.9 291.36 132.145C292.07 131.368 292.425 130.303 292.425 128.949C292.425 127.617 292.07 126.574 291.36 125.82C290.65 125.065 289.74 124.688 288.63 124.688C287.52 124.688 286.61 125.065 285.9 125.82C285.19 126.574 284.835 127.617 284.835 128.949C284.835 130.303 285.19 131.368 285.9 132.145C286.61 132.9 287.52 133.277 288.63 133.277ZM330.117 119.96V138.005H323.825V124.987H317.766V138.005H311.473V119.96H330.117ZM345.78 119.66C347.423 119.66 348.91 120.049 350.242 120.826C351.595 121.58 352.661 122.668 353.438 124.088C354.237 125.487 354.636 127.118 354.636 128.982C354.636 130.847 354.237 132.489 353.438 133.91C352.661 135.308 351.595 136.396 350.242 137.172C348.91 137.927 347.423 138.304 345.78 138.304C343.672 138.304 341.996 137.672 340.753 136.407V144.464H334.427V119.96H340.453V121.758C341.63 120.359 343.405 119.66 345.78 119.66ZM344.449 133.277C345.558 133.277 346.468 132.9 347.179 132.145C347.889 131.368 348.244 130.314 348.244 128.982C348.244 127.651 347.889 126.607 347.179 125.853C346.468 125.076 345.558 124.688 344.449 124.688C343.339 124.688 342.429 125.076 341.719 125.853C341.008 126.607 340.653 127.651 340.653 128.982C340.653 130.314 341.008 131.368 341.719 132.145C342.429 132.9 343.339 133.277 344.449 133.277ZM357.674 119.96H363.966V129.415L371.524 119.96H377.35V138.005H371.025V128.516L363.534 138.005H357.674V119.96ZM397.717 124.987H391.924V138.005H385.632V124.987H379.806V119.96H397.717V124.987ZM419.607 119.96L411.816 138.737C410.906 140.957 409.796 142.51 408.487 143.398C407.177 144.308 405.579 144.763 403.693 144.763C402.738 144.763 401.773 144.608 400.796 144.297C399.842 144.009 399.065 143.62 398.466 143.132L400.663 138.704C401.018 139.037 401.44 139.292 401.928 139.47C402.439 139.669 402.949 139.769 403.46 139.769C404.059 139.769 404.547 139.647 404.924 139.403C405.324 139.159 405.657 138.771 405.923 138.238L398.199 119.96H404.691L409.119 130.98L413.581 119.96H419.607ZM438.574 119.96V138.005H432.248V124.987H427.687L427.554 127.751C427.465 130.103 427.232 132.045 426.855 133.577C426.477 135.108 425.856 136.307 424.99 137.172C424.125 138.016 422.937 138.438 421.428 138.438C420.651 138.438 419.63 138.293 418.365 138.005L418.631 132.844C419.031 132.889 419.297 132.911 419.43 132.911C420.118 132.911 420.64 132.689 420.995 132.245C421.35 131.801 421.594 131.213 421.728 130.481C421.861 129.726 421.95 128.727 421.994 127.484L422.26 119.96H438.574ZM451.282 131.579H449.151V138.005H442.825V119.96H449.151V126.619H451.415L455.843 119.96H462.535L456.475 128.616L462.934 138.005H455.476L451.282 131.579ZM483.267 119.96L475.476 138.737C474.566 140.957 473.456 142.51 472.147 143.398C470.837 144.308 469.239 144.763 467.353 144.763C466.398 144.763 465.433 144.608 464.456 144.297C463.502 144.009 462.725 143.62 462.126 143.132L464.323 138.704C464.678 139.037 465.1 139.292 465.588 139.47C466.099 139.669 466.609 139.769 467.12 139.769C467.719 139.769 468.207 139.647 468.585 139.403C468.984 139.159 469.317 138.771 469.583 138.238L461.859 119.96H468.352L472.779 130.98L477.241 119.96H483.267ZM491.515 129.515C491.515 128.405 491.759 127.495 492.247 126.785C492.735 126.053 493.446 125.254 494.378 124.388C495.022 123.789 495.499 123.289 495.809 122.89C496.12 122.468 496.276 122.024 496.276 121.558C496.276 120.914 495.998 120.404 495.443 120.027C494.911 119.627 494.211 119.427 493.346 119.427C492.458 119.427 491.648 119.638 490.915 120.06C490.205 120.482 489.628 121.07 489.184 121.824L484.223 119.161C485.134 117.607 486.421 116.398 488.085 115.532C489.75 114.666 491.759 114.234 494.112 114.234C496.753 114.234 498.872 114.788 500.471 115.898C502.091 116.986 502.901 118.517 502.901 120.493C502.901 121.403 502.746 122.213 502.435 122.923C502.124 123.611 501.747 124.199 501.303 124.688C500.881 125.154 500.326 125.686 499.638 126.286C498.884 126.929 498.329 127.484 497.974 127.95C497.618 128.394 497.441 128.916 497.441 129.515H491.515ZM494.478 138.304C493.39 138.304 492.491 137.972 491.781 137.306C491.071 136.618 490.716 135.785 490.716 134.809C490.716 133.81 491.06 132.989 491.748 132.345C492.458 131.701 493.368 131.379 494.478 131.379C495.588 131.379 496.498 131.701 497.208 132.345C497.918 132.989 498.273 133.81 498.273 134.809C498.273 135.785 497.918 136.618 497.208 137.306C496.498 137.972 495.588 138.304 494.478 138.304Z" fill="#187073"/>
<path d="M162.371 173.695V197H155.845V178.922H146.989V197H140.497V173.695H162.371ZM178.339 178.655C179.982 178.655 181.469 179.044 182.801 179.821C184.154 180.575 185.22 181.663 185.997 183.083C186.796 184.482 187.195 186.113 187.195 187.978C187.195 189.842 186.796 191.484 185.997 192.905C185.22 194.303 184.154 195.391 182.801 196.168C181.469 196.922 179.982 197.3 178.339 197.3C176.231 197.3 174.555 196.667 173.312 195.402V203.459H166.986V178.955H173.012V180.753C174.189 179.355 175.964 178.655 178.339 178.655ZM177.008 192.272C178.117 192.272 179.027 191.895 179.738 191.14C180.448 190.364 180.803 189.309 180.803 187.978C180.803 186.646 180.448 185.603 179.738 184.848C179.027 184.071 178.117 183.683 177.008 183.683C175.898 183.683 174.988 184.071 174.278 184.848C173.567 185.603 173.212 186.646 173.212 187.978C173.212 189.309 173.567 190.364 174.278 191.14C174.988 191.895 175.898 192.272 177.008 192.272ZM190.233 178.955H196.525V188.41L204.083 178.955H209.909V197H203.584V187.511L196.093 197H190.233V178.955ZM235.503 191.939V200.729H229.644V197H218.291V200.729H212.398V191.939H213.064C214.151 191.917 214.906 191.329 215.328 190.175C215.749 188.999 216.005 187.356 216.093 185.248L216.326 178.955H233.006V191.939H235.503ZM221.787 185.714C221.72 187.334 221.598 188.632 221.42 189.609C221.243 190.586 220.91 191.362 220.422 191.939H226.681V183.982H221.853L221.787 185.714ZM249.375 180.553C251.129 180.553 252.649 180.897 253.936 181.585C255.224 182.251 256.2 183.217 256.866 184.482C257.554 185.725 257.898 187.179 257.898 188.843C257.898 190.552 257.454 192.062 256.566 193.371C255.701 194.658 254.491 195.668 252.937 196.401C251.406 197.111 249.675 197.466 247.744 197.466C244.57 197.466 242.04 196.478 240.153 194.503C238.266 192.528 237.323 189.565 237.323 185.614C237.323 178.2 240.608 173.872 247.178 172.629L255.934 170.965L256.799 176.258L249.209 177.69C247.278 178.045 245.857 178.622 244.947 179.421C244.059 180.198 243.527 181.33 243.349 182.817C244.969 181.308 246.978 180.553 249.375 180.553ZM247.777 192.672C248.909 192.672 249.797 192.306 250.44 191.573C251.106 190.841 251.439 189.931 251.439 188.843C251.439 187.689 251.106 186.79 250.44 186.146C249.775 185.481 248.887 185.148 247.777 185.148C246.645 185.148 245.735 185.481 245.047 186.146C244.381 186.812 244.048 187.722 244.048 188.876C244.048 189.986 244.392 190.896 245.08 191.607C245.768 192.317 246.667 192.672 247.777 192.672ZM267.786 178.655C270.782 178.655 273.068 179.344 274.644 180.72C276.22 182.074 277.008 184.16 277.008 186.979V197H271.115V194.669C270.205 196.423 268.43 197.3 265.788 197.3C264.39 197.3 263.18 197.055 262.159 196.567C261.138 196.079 260.362 195.424 259.829 194.603C259.318 193.759 259.063 192.805 259.063 191.74C259.063 190.031 259.718 188.71 261.027 187.778C262.337 186.823 264.357 186.346 267.087 186.346H270.682C270.571 184.437 269.295 183.483 266.854 183.483C265.988 183.483 265.111 183.627 264.224 183.916C263.336 184.182 262.581 184.559 261.96 185.048L259.829 180.753C260.828 180.087 262.037 179.577 263.458 179.221C264.901 178.844 266.343 178.655 267.786 178.655ZM267.553 193.304C268.285 193.304 268.929 193.127 269.484 192.772C270.039 192.417 270.438 191.895 270.682 191.207V189.642H267.952C266.11 189.642 265.189 190.253 265.189 191.473C265.189 192.028 265.4 192.472 265.822 192.805C266.243 193.138 266.82 193.304 267.553 193.304ZM280.814 178.955H287.106V188.41L294.664 178.955H300.49V197H294.164V187.511L286.673 197H280.814V178.955ZM290.236 177.224C288.105 177.224 286.529 176.78 285.508 175.892C284.509 174.982 283.999 173.595 283.977 171.731H288.072C288.094 172.507 288.271 173.096 288.604 173.495C288.937 173.872 289.47 174.061 290.202 174.061C290.935 174.061 291.479 173.861 291.834 173.462C292.211 173.062 292.4 172.485 292.4 171.731H296.561C296.561 173.595 296.04 174.982 294.997 175.892C293.976 176.78 292.389 177.224 290.236 177.224ZM333.076 178.955V197H326.784V183.982H320.724V197H314.432V178.955H333.076ZM346.275 197.3C344.344 197.3 342.602 196.9 341.048 196.101C339.495 195.302 338.274 194.192 337.386 192.772C336.52 191.351 336.088 189.742 336.088 187.944C336.088 186.169 336.52 184.571 337.386 183.15C338.274 181.73 339.483 180.631 341.015 179.854C342.569 179.055 344.322 178.655 346.275 178.655C348.228 178.655 349.982 179.055 351.536 179.854C353.089 180.631 354.299 181.73 355.165 183.15C356.03 184.548 356.463 186.146 356.463 187.944C356.463 189.742 356.03 191.351 355.165 192.772C354.299 194.192 353.089 195.302 351.536 196.101C349.982 196.9 348.228 197.3 346.275 197.3ZM346.275 192.272C347.385 192.272 348.295 191.895 349.005 191.14C349.716 190.364 350.071 189.298 350.071 187.944C350.071 186.613 349.716 185.569 349.005 184.815C348.295 184.06 347.385 183.683 346.275 183.683C345.166 183.683 344.255 184.06 343.545 184.815C342.835 185.569 342.48 186.613 342.48 187.944C342.48 189.298 342.835 190.364 343.545 191.14C344.255 191.895 345.166 192.272 346.275 192.272ZM540.042 191.939V200.762H534.183V197H519.068V178.955H525.36V191.939H531.22V178.955H537.545V191.939H540.042ZM542.769 178.955H549.095V197H542.769V178.955ZM545.932 176.958C544.778 176.958 543.846 176.636 543.136 175.992C542.425 175.348 542.07 174.549 542.07 173.595C542.07 172.641 542.425 171.841 543.136 171.198C543.846 170.554 544.778 170.232 545.932 170.232C547.086 170.232 548.019 170.543 548.729 171.165C549.439 171.764 549.794 172.541 549.794 173.495C549.794 174.494 549.439 175.326 548.729 175.992C548.019 176.636 547.086 176.958 545.932 176.958ZM553.369 178.955H559.661V185.647H566.153V178.955H572.479V197H566.153V190.674H559.661V197H553.369V178.955ZM576.745 178.955H583.071V197H576.745V178.955ZM579.908 176.958C578.754 176.958 577.822 176.636 577.112 175.992C576.401 175.348 576.046 174.549 576.046 173.595C576.046 172.641 576.401 171.841 577.112 171.198C577.822 170.554 578.754 170.232 579.908 170.232C581.062 170.232 581.995 170.543 582.705 171.165C583.415 171.764 583.77 172.541 583.77 173.495C583.77 174.494 583.415 175.326 582.705 175.992C581.995 176.636 581.062 176.958 579.908 176.958ZM586.479 173.695H594.003L592.738 188.51H587.711L586.479 173.695ZM590.241 197.3C589.131 197.3 588.221 196.967 587.511 196.301C586.801 195.613 586.446 194.78 586.446 193.804C586.446 192.805 586.801 191.984 587.511 191.34C588.221 190.697 589.131 190.375 590.241 190.375C591.351 190.375 592.25 190.697 592.938 191.34C593.648 191.984 594.003 192.805 594.003 193.804C594.003 194.78 593.648 195.613 592.938 196.301C592.227 196.967 591.329 197.3 590.241 197.3Z" fill="#187073"/>
<path d="M378.008 197.3C376.077 197.3 374.334 196.9 372.781 196.101C371.227 195.302 370.006 194.192 369.119 192.772C368.253 191.351 367.82 189.742 367.82 187.944C367.82 186.169 368.253 184.571 369.119 183.15C370.006 181.73 371.216 180.631 372.747 179.854C374.301 179.055 376.055 178.655 378.008 178.655C379.961 178.655 381.714 179.055 383.268 179.854C384.822 180.631 386.031 181.73 386.897 183.15C387.763 184.548 388.195 186.146 388.195 187.944C388.195 189.742 387.763 191.351 386.897 192.772C386.031 194.192 384.822 195.302 383.268 196.101C381.714 196.9 379.961 197.3 378.008 197.3ZM378.008 192.272C379.118 192.272 380.028 191.895 380.738 191.14C381.448 190.364 381.803 189.298 381.803 187.944C381.803 186.613 381.448 185.569 380.738 184.815C380.028 184.06 379.118 183.683 378.008 183.683C376.898 183.683 375.988 184.06 375.278 184.815C374.567 185.569 374.212 186.613 374.212 187.944C374.212 189.298 374.567 190.364 375.278 191.14C375.988 191.895 376.898 192.272 378.008 192.272ZM409.806 178.955V197H403.514V183.982H397.455V197H391.162V178.955H409.806ZM430.23 183.982H424.437V197H418.145V183.982H412.318V178.955H430.23V183.982ZM440.855 197.3C438.924 197.3 437.182 196.9 435.628 196.101C434.074 195.302 432.854 194.192 431.966 192.772C431.1 191.351 430.667 189.742 430.667 187.944C430.667 186.169 431.1 184.571 431.966 183.15C432.854 181.73 434.063 180.631 435.595 179.854C437.148 179.055 438.902 178.655 440.855 178.655C442.808 178.655 444.562 179.055 446.115 179.854C447.669 180.631 448.879 181.73 449.744 183.15C450.61 184.548 451.043 186.146 451.043 187.944C451.043 189.742 450.61 191.351 449.744 192.772C448.879 194.192 447.669 195.302 446.115 196.101C444.562 196.9 442.808 197.3 440.855 197.3ZM440.855 192.272C441.965 192.272 442.875 191.895 443.585 191.14C444.295 190.364 444.65 189.298 444.65 187.944C444.65 186.613 444.295 185.569 443.585 184.815C442.875 184.06 441.965 183.683 440.855 183.683C439.745 183.683 438.835 184.06 438.125 184.815C437.415 185.569 437.06 186.613 437.06 187.944C437.06 189.298 437.415 190.364 438.125 191.14C438.835 191.895 439.745 192.272 440.855 192.272ZM468.559 187.545C470.623 188.233 471.655 189.653 471.655 191.806C471.655 193.427 471.022 194.703 469.757 195.635C468.492 196.545 466.628 197 464.164 197H454.009V178.955H463.698C466.05 178.955 467.871 179.366 469.158 180.187C470.467 181.008 471.122 182.162 471.122 183.649C471.122 184.515 470.9 185.281 470.456 185.947C470.012 186.613 469.38 187.145 468.559 187.545ZM459.669 186.213H463.132C464.597 186.213 465.329 185.669 465.329 184.582C465.329 183.538 464.597 183.017 463.132 183.017H459.669V186.213ZM463.598 192.905C465.129 192.905 465.895 192.35 465.895 191.24C465.895 190.131 465.152 189.576 463.664 189.576H459.669V192.905H463.598ZM474.85 178.955H481.176V197H474.85V178.955ZM478.013 176.958C476.859 176.958 475.927 176.636 475.216 175.992C474.506 175.348 474.151 174.549 474.151 173.595C474.151 172.641 474.506 171.841 475.216 171.198C475.927 170.554 476.859 170.232 478.013 170.232C479.167 170.232 480.099 170.543 480.81 171.165C481.52 171.764 481.875 172.541 481.875 173.495C481.875 174.494 481.52 175.326 480.81 175.992C480.099 176.636 479.167 176.958 478.013 176.958ZM485.449 178.955H491.742V188.41L499.299 178.955H505.126V197H498.8V187.511L491.309 197H485.449V178.955ZM494.871 177.224C492.741 177.224 491.165 176.78 490.144 175.892C489.145 174.982 488.634 173.595 488.612 171.731H492.707C492.729 172.507 492.907 173.096 493.24 173.495C493.573 173.872 494.106 174.061 494.838 174.061C495.57 174.061 496.114 173.861 496.469 173.462C496.847 173.062 497.035 172.485 497.035 171.731H501.197C501.197 173.595 500.675 174.982 499.632 175.892C498.611 176.78 497.024 177.224 494.871 177.224Z" fill="#FFC727"/>
<defs>
<linearGradient id="paint0_linear" x1="934.963" y1="256.377" x2="941.485" y2="35.1812" gradientUnits="userSpaceOnUse">
<stop stop-color="#82ACF5"/>
<stop offset="1" stop-color="#F8BDEC"/>
</linearGradient>
<linearGradient id="paint1_linear" x1="748.957" y1="131.164" x2="763.19" y2="131.164" gradientUnits="userSpaceOnUse">
<stop stop-color="#7F0300"/>
<stop offset="1" stop-color="#93170A"/>
</linearGradient>
<linearGradient id="paint2_linear" x1="755.546" y1="90.6682" x2="771.088" y2="90.6682" gradientUnits="userSpaceOnUse">
<stop stop-color="#7F0300"/>
<stop offset="1" stop-color="#93170A"/>
</linearGradient>
</defs>
</svg>
