<svg width="300" height="150" viewBox="0 0 300 150" fill="none" xmlns="http://www.w3.org/2000/svg">
<rect width="300" height="150" rx="4" fill="#FBFBFB"/>
<path d="M289.241 103.592C289.241 103.592 288.959 103.444 288.5 103.266C286.382 102.612 281.923 102.82 280.264 103.533C279.272 103.964 276.976 105.077 275.02 106.058C275.746 106.147 277.479 106.622 278.027 106.043C278.027 106.043 279.212 108.939 278.738 110.171C278.25 111.419 272.917 111.953 273.954 112.25C274.991 112.547 279.094 111.641 279.094 111.641C279.094 111.641 279.449 114.611 278.324 115.191C277.198 115.77 271.302 114.894 271.851 115.488C272.413 116.067 277.82 116.676 278.442 116.022C278.442 116.022 278.561 119.586 276.591 119.972C274.621 120.344 269.244 117.314 269.703 118.146C270.162 118.977 275.154 121.383 276.68 120.477C276.68 120.477 275.317 123.878 274.072 123.878C272.828 123.878 269.762 119.497 269.14 120.136C268.518 120.774 271.836 123.908 273.673 124.294C273.673 124.294 272.947 126.239 270.577 125.66C268.207 125.081 268.607 121.264 267.881 121.591C267.155 121.918 267.836 126.121 270.251 126.121C270.251 126.121 266.311 127.071 265.392 124.873C265.126 124.249 265.007 123.744 264.948 123.329C264.592 125.066 264.385 127.16 264.281 129.269H263.837C263.985 126.7 264.296 124.101 264.903 122.022C264.607 122.185 264.089 122.408 263.467 122.467C263.437 124.947 263.407 127.264 263.392 129.284H262.918C262.963 127.502 263.007 125.274 263.052 122.482C262.933 122.482 262.8 122.467 262.667 122.438C262.519 124.829 262.43 127.13 262.37 129.269H261.719C261.808 127.056 261.941 124.695 262.104 122.289C261.63 122.126 261.304 121.918 260.963 121.472C260.978 124.249 260.978 126.908 260.978 129.269H260.267C260.282 126.522 260.297 123.344 260.267 120.062C259.897 118.888 259.852 117.582 259.926 116.928C258.815 116.616 257.453 115.785 256.919 115.458C257.764 118.68 258.83 123.477 259.526 129.269H259.038C258.356 123.685 257.349 119.052 256.519 115.874C256.386 116.245 256.179 116.72 255.853 117.047C255.26 117.656 254.12 115.577 254.12 114.537C254.12 113.498 255.349 114.493 255.349 113.913C255.349 113.334 255.171 113.616 253.601 113.616C252.031 113.616 251.468 110.29 251.468 110.29C251.468 110.29 253.838 110.587 253.838 110.127C253.838 109.666 251.957 109.919 250.742 109.592C249.543 109.265 248.861 106.562 248.861 106.562C248.861 106.562 252.313 107.602 252.313 107.142C252.313 106.681 249.646 106.251 249.143 105.731C248.639 105.211 248.461 102.865 248.461 102.865C248.461 102.865 250.757 105.063 251.113 105.063C251.468 105.063 248.683 102.627 248.95 102.36C249.217 102.092 249.306 100.949 249.306 100.949C249.809 101.469 250.624 100.786 251.157 101.335C251.676 101.87 252.624 105.998 253.009 106.399C253.394 106.8 251.942 103.102 252.609 102.419C253.275 101.736 255.068 103.474 255.423 103.83C255.779 104.201 254.579 108.211 255.068 108.701C255.557 109.206 255.453 105.181 255.838 104.78C256.223 104.379 257.245 105.404 257.541 106.592C257.838 107.78 255.216 109.8 255.971 110.572C256.727 111.344 257.423 108.389 258.075 107.706C258.564 107.201 259.586 108.196 260.074 109.072C259.956 105.493 259.778 102.3 259.512 100.028C258.978 101.528 256.208 103.31 254.253 101.261C253.838 101.602 253.32 101.751 252.683 101.513C250.372 100.652 250.15 100.058 250.639 99.8204C251.128 99.5828 255.645 96.9542 255.097 96.6721C254.549 96.3899 250.491 99.6719 249.705 99.2857C248.935 98.8848 247.735 97.2661 247.884 97.1918C248.017 97.1176 253.646 95.0237 253.009 94.7118C252.387 94.3851 248.046 97.4888 247.217 96.1226C246.402 94.7563 246.358 93.9247 246.447 93.598C246.521 93.2713 251.379 92.9 251.216 92.5288C251.053 92.1724 246.476 92.9149 246.121 92.1278C245.765 91.3407 245.676 90.2121 246.076 90.019C246.476 89.826 248.832 90.5537 248.654 90.1676C248.476 89.7814 246.15 89.6478 246.239 89.2765C246.328 88.9053 246.58 86.841 246.417 86.4698C246.417 86.4698 248.061 85.3412 248.461 84.7917C248.861 84.2274 249.291 84.4353 249.424 84.7323C249.557 85.0293 250.639 89.6329 250.757 89.1132C250.876 88.5934 249.513 84.4947 249.794 84.361C250.076 84.2274 251.513 83.0839 251.957 83.7522C252.401 84.4204 252.564 90.5091 253.068 90.5685C253.572 90.6131 252.357 83.4997 252.357 83.4997C252.357 83.4997 254.046 83.6036 254.653 84.3759C255.26 85.1481 254.623 92.306 255.142 92.2615C255.66 92.2169 255.408 84.7471 255.408 84.7471C255.408 84.7471 257.512 85.757 257.63 86.7965C257.764 87.836 256.312 92.5288 256.771 92.7664C257.23 93.004 257.719 88.1627 257.719 88.1627C257.719 88.1627 259.541 89.0092 259.645 90.42C259.749 91.8457 257.986 93.6129 258.178 94.0584C258.386 94.5039 259.956 92.603 260.223 91.4447C260.489 90.2864 262.489 96.2265 260.8 97.0433C260.282 97.2958 259.897 97.3849 259.615 97.3849C260.46 99.6125 260.711 108.478 260.771 110.884C261.096 110.572 261.304 110.334 261.304 110.334C261.748 110.513 262.015 111.092 262.133 111.849C262.356 111.567 262.504 111.404 262.504 111.404C262.504 111.404 262.681 112.027 262.963 112.874C263.244 110.617 263.215 111.226 263.215 110.735C263.17 110.453 263.17 110.216 263.23 110.052C263.452 95.6622 263.392 96.583 263.467 96.4939C263.437 95.4989 263.111 86.7668 261.941 84.4204C260.741 81.9107 259.941 79 259.941 79C259.941 79 261.008 80.7227 261.956 81.7028C262.904 82.6829 263.718 82.8611 263.718 83.7373C263.718 84.6135 262.474 87.4351 263.274 87.0193C264.074 86.6034 263.881 84.8956 264.163 84.8956C264.444 84.8956 265.614 88.8013 265.614 89.0092C265.614 89.2171 263.6 90.8358 264.133 91.3704C264.652 91.9051 265.496 89.2914 265.822 89.6329C266.148 89.9596 266.222 92.8258 266.222 93.5832C266.222 94.3257 264.681 93.9396 265.377 94.6672C266.074 95.3949 266.222 98.2908 266.222 99.6273C267.896 95.6771 269.392 94.6524 271.851 93.1673C271.317 93.1673 270.636 93.0188 270.073 92.4397C268.962 91.2962 268.458 87.049 271.006 85.8906C270.888 85.2669 270.977 84.6283 271.421 84.0343C273.05 81.9107 273.613 81.9849 273.613 82.6384C273.613 83.2918 273.969 89.5884 274.428 89.1132C274.872 88.6528 273.791 82.5493 274.428 81.8958C275.065 81.2424 276.872 80.7375 276.872 80.9306C276.872 81.1236 276.354 88.3409 276.872 87.8063C277.391 87.2717 276.576 80.9603 278.013 80.7375C279.464 80.5147 280.146 80.886 280.398 81.1385C280.635 81.3909 279.005 86.9153 279.375 86.9153C279.731 86.9153 280.946 81.5097 281.731 81.5097C282.516 81.5097 283.479 81.9701 283.479 82.5047C283.479 83.0393 281.938 85.2817 282.338 85.2817C282.723 85.2817 283.76 82.7869 284.027 83.069C284.293 83.3512 285.893 84.658 286.249 84.658C286.249 84.658 286.515 87.0193 286.826 87.7469C287.137 88.4746 286.797 88.831 286.5 88.831C286.204 88.831 281.997 87.7321 282.368 88.1182C282.723 88.4746 286.619 89.0241 286.619 89.3953C286.619 89.7666 286.974 91.9199 286.263 92.0684C285.538 92.2169 280.486 89.3656 280.235 89.8854C279.998 90.42 286.323 92.6327 286.323 92.6327C286.323 92.6327 285.567 94.4445 284.693 94.7118C283.819 94.994 278.205 90.7319 278.027 91.311C277.85 91.9051 284.086 95.3652 284.086 95.3652C284.086 95.3652 282.427 97.177 281.523 96.7909C280.62 96.4196 277.346 92.4842 276.976 92.8703C276.605 93.2565 280.383 96.1968 280.383 96.1968C280.383 96.1968 278.961 97.7858 277.761 97.1918C276.561 96.5978 275.806 93.7614 275.346 93.7614C274.902 93.7614 275.835 96.4493 276.665 97.3255C277.509 98.1868 271.851 97.4443 271.851 95.1722C271.851 94.2069 272.013 93.6723 272.191 93.3753C271.184 93.999 270.103 94.5781 269.155 95.588C266.711 98.1274 265.14 103.117 264.133 108.909C264.489 108.656 264.755 108.686 264.755 108.998C264.755 109.533 266.014 115.161 266.636 114.522C267.259 113.884 264.874 108.745 265.718 107.884C266.222 107.364 267.377 106.696 268.295 106.355C268.695 105.954 269.895 105.523 269.525 104.335C269.155 103.147 271.095 102.092 271.095 102.092C271.095 102.092 272.295 103.904 273.391 103.904C274.472 103.904 271.999 102.716 271.999 102.033C271.999 101.35 275.731 100.103 275.731 100.103C275.731 100.103 274.68 102.375 274.695 103.31C275.139 102.984 275.613 102.686 276.028 102.449C276.383 101.424 276.561 100.429 277.124 100.162C277.79 99.8501 278.368 99.3451 278.768 99.7907C278.161 101.157 278.857 102.835 279.464 102.612C279.761 101.855 280.723 98.7363 280.916 98.7363C281.138 98.7363 281.553 99.0333 282.249 99.1966C281.864 100.028 281.375 101.335 282.116 101.335C282.856 101.335 283.627 100.043 284.056 99.2115C285.671 98.9293 285.508 99.2263 286.915 100.667C288.352 102.152 289.241 103.592 289.241 103.592ZM272.739 89.2468C272.887 89.0983 271.851 88.0588 271.288 86.7965C271.288 86.9153 271.288 87.049 271.258 87.1975C271.11 88.0588 272.473 89.5141 272.739 89.2468ZM256.016 98.2908C255.838 98.2017 255.527 99.6125 254.846 100.622C254.934 100.578 255.038 100.533 255.157 100.503C255.868 100.34 256.327 98.4541 256.016 98.2908ZM260.163 111.478C260.148 111.107 260.148 110.735 260.134 110.379C259.452 111.181 257.586 112.235 258.03 112.696C258.341 113.008 259.349 112.221 260.163 111.478ZM262.459 118.027C262.178 117.671 261.763 117.24 261.393 116.705C261.185 116.973 261.052 116.988 260.934 117.002C260.934 117.166 260.934 117.314 260.934 117.478C261.393 118.116 261.941 118.844 262.37 118.903C262.415 118.621 262.43 118.324 262.459 118.027ZM263.615 108.745C264.074 106.117 264.666 103.637 265.718 100.845C265.377 101.053 264.933 100.979 264.518 100.548C263.807 99.8204 264.103 97.1621 263.644 96.6424C263.689 97.7413 263.659 102.701 263.615 108.745ZM263.659 112.102C263.57 112.77 263.585 112.369 263.57 114.463C264.133 115.993 264.785 117.463 265.214 117.285C265.777 117.017 264.385 114.225 263.659 112.102ZM270.28 107.32C270.043 107.246 269.792 107.171 269.569 107.097C269.451 108.731 268.903 112.221 269.955 112.221C270.888 112.206 270.266 109.072 270.28 107.32ZM274.591 106.265C274.295 106.414 274.013 106.548 273.761 106.681C273.332 107.661 272.517 109.622 273.154 109.473C273.865 109.295 274.176 106.993 274.591 106.265Z" fill="url(#paint0_linear)"/>
<path d="M267.421 136.59H256.593C250.935 134.867 250.713 131.125 256.134 129.269H267.895C273.302 131.125 273.08 134.882 267.421 136.59Z" fill="#99BEFF"/>
<path opacity="0.3" d="M279.494 138.224C279.494 140.154 259.008 141.714 233.737 141.714C208.467 141.714 187.981 140.154 187.981 138.224C187.981 136.293 208.467 134.734 233.737 134.734C259.008 134.734 279.494 136.308 279.494 138.224Z" fill="#838BC5"/>
<path d="M238.063 120.373L235.515 123.507L248.58 123.269L246.936 119.037H238.063V120.373Z" fill="#07506F"/>
<path d="M230.834 99.2709C230.834 99.2709 228.494 100.37 227.634 102.122C227.146 103.132 225.22 106.162 223.679 108.552C224.924 109.325 226.509 110.721 227.383 111.805C228.716 110.008 229.353 108.003 229.353 108.003L230.834 99.2709Z" fill="#FB8603"/>
<path d="M249.276 135.164C245.736 133.828 245.321 131.853 243.914 133.264C242.255 134.927 241.84 135.06 238.67 133.679L238.078 136.932C239.544 136.946 240.803 136.902 241.721 136.813C247.084 136.234 250.076 136.828 251.261 136.828C252.416 136.828 252.816 136.516 249.276 135.164Z" fill="#FD5E5A"/>
<path d="M252.861 138.253C249.32 136.917 248.906 134.942 247.498 136.353C245.839 138.016 245.425 138.149 242.255 136.768L241.662 140.021C243.129 140.035 244.388 139.991 245.306 139.902C250.668 139.323 253.661 139.917 254.846 139.917C256.001 139.917 256.401 139.59 252.861 138.253Z" fill="#FC7575"/>
<path d="M231.441 131.185C226.953 131.274 222.272 132.12 222.272 132.12C222.272 132.12 226.509 131.823 231.441 131.185Z" fill="#07506F"/>
<path d="M238.803 132.595C237.5 131.422 234.508 131.125 231.427 131.184C226.494 131.823 222.258 132.12 222.258 132.12C222.258 132.12 226.938 131.274 231.427 131.184C238.181 130.308 246.254 128.779 246.639 126.462C247.276 122.438 236.981 122.527 236.981 122.527C236.981 122.527 219.058 127.145 217.014 130.501C214.97 133.858 217.858 135.031 218.288 135.417C218.643 135.729 230.864 136.902 238.063 136.961L238.848 132.67C238.833 132.625 238.818 132.61 238.803 132.595Z" fill="#07506F"/>
<path d="M242.24 105.523C242.24 99.6421 238.329 97.073 238.329 97.073C238.329 97.073 235.811 96.2413 233.441 97.0581C231.086 97.8897 227.649 103.251 228.286 106.859C228.923 110.468 236.478 120.017 236.996 120.477C240.803 120.151 245.41 120.403 249.187 120.047C247.395 116.319 242.24 109.488 242.24 105.523Z" fill="#FFDA88"/>
<path d="M242.24 105.523C242.24 99.6421 238.329 97.073 238.329 97.073C238.329 97.073 235.811 96.2413 233.441 97.0581C231.086 97.8897 227.649 103.251 228.286 106.859C228.923 110.468 236.478 120.017 236.996 120.477C240.803 120.151 245.41 120.403 249.187 120.047C247.395 116.319 242.24 109.488 242.24 105.523Z" fill="#FFDA88"/>
<path d="M240.536 99.464C240.151 98.8699 239.751 98.3799 239.396 98.0086C237.411 99.36 234.078 101.187 228.819 102.894C228.597 103.503 228.42 104.127 228.316 104.721C234.448 102.954 238.285 100.949 240.536 99.464Z" fill="#FFF7CF"/>
<path d="M240.907 100.088C238.581 101.617 234.597 103.667 228.212 105.493C228.183 105.968 228.198 106.429 228.272 106.859C228.301 107.023 228.346 107.201 228.405 107.394C235.5 105.315 239.515 102.954 241.529 101.454C241.351 100.964 241.129 100.503 240.907 100.088Z" fill="#FFF7CF"/>
<path d="M242.196 104.379C242.121 103.577 241.973 102.85 241.781 102.182C239.663 103.726 235.648 106.028 228.657 108.062C228.849 108.552 229.116 109.102 229.427 109.681C235.767 107.914 239.796 105.909 242.196 104.379Z" fill="#FFF7CF"/>
<path d="M246.461 115.294C244.195 116.364 240.655 117.611 235.411 118.532C235.781 119.022 236.122 119.423 236.374 119.75C241.973 119.542 245.736 118.695 248.046 117.923C247.558 117.106 247.024 116.215 246.461 115.294Z" fill="#FFF7CF"/>
<path d="M238.33 97.073C238.33 97.073 237.693 96.865 236.745 96.7611C235.189 97.5927 233.219 98.4986 230.745 99.3896C230.153 100.162 229.605 101.083 229.175 102.033C233.915 100.429 236.982 98.7659 238.863 97.5036C238.537 97.2066 238.33 97.073 238.33 97.073Z" fill="#FFF7CF"/>
<path d="M235.248 96.7166C234.671 96.7463 234.048 96.8503 233.441 97.0731C232.908 97.2661 232.315 97.6819 231.723 98.2611C233.056 97.7265 234.226 97.2216 235.248 96.7166Z" fill="#FFF7CF"/>
<path d="M236.967 120.448C236.981 120.462 236.996 120.477 237.011 120.477C240.818 120.151 245.425 120.403 249.202 120.047C248.98 119.601 248.713 119.096 248.417 118.562C246.136 119.349 242.462 120.195 236.967 120.448Z" fill="#FFF7CF"/>
<path d="M244.906 112.621C242.433 113.824 238.833 115.191 233.752 116.334C234.167 116.898 234.552 117.418 234.922 117.893C240.225 116.987 243.81 115.71 246.091 114.656C245.691 113.988 245.291 113.305 244.906 112.621Z" fill="#FFF7CF"/>
<path d="M242.24 105.523C242.24 105.419 242.24 105.315 242.24 105.211C239.781 106.726 235.841 108.627 229.768 110.32C230.108 110.914 230.479 111.523 230.864 112.146C236.611 110.424 240.27 108.523 242.447 107.097C242.314 106.533 242.24 106.013 242.24 105.523Z" fill="#FFF7CF"/>
<path d="M243.469 109.859C243.144 109.161 242.877 108.478 242.67 107.825C240.448 109.25 236.848 111.092 231.279 112.77C231.545 113.171 231.812 113.572 232.078 113.973C237.5 112.666 241.144 111.121 243.469 109.859Z" fill="#FFF7CF"/>
<path d="M244.551 111.983C244.284 111.493 244.018 110.988 243.781 110.513C241.44 111.775 237.841 113.305 232.508 114.597C232.775 114.968 233.041 115.339 233.293 115.71C238.433 114.567 242.062 113.201 244.551 111.983Z" fill="#FFF7CF"/>
<path opacity="0.28" d="M232.078 113.973C232.967 115.28 233.9 116.542 234.7 117.611C235.708 116.542 242.24 107.557 242.24 105.523C242.24 103.503 241.781 101.87 241.159 100.593C239.1 102.88 235.619 109.042 234.108 111.24C234.374 111.389 234.108 111.24 234.404 111.433C233.308 113.037 232.256 114.151 232.256 114.151C232.256 114.151 232.197 114.092 232.078 113.973Z" fill="#F9B406"/>
<path d="M245.499 121.012C240.166 119.765 233.1 125.185 227.071 128.615C223.028 130.917 220.45 134.348 220.302 136.872C220.198 138.506 221.22 139.634 222.361 139.931C224.746 140.555 240.744 131.526 244.921 130.487C249.113 129.462 249.454 125.185 248.58 123.269C248.431 122.957 248.313 121.68 245.499 121.012Z" fill="#25A9E0"/>
<path d="M228.612 84.3758C228.612 84.3758 225.872 84.5243 225.502 87.1677C225.131 89.8259 226.746 92.5881 226.716 93.791C226.672 94.9939 225.146 95.083 225.324 94.4593C225.324 94.4593 224.687 95.5434 225.887 95.9889C227.072 96.4344 227.635 95.8255 227.635 95.8255C227.635 95.8255 228.049 97.5482 230.405 97.1472C232.745 96.7314 233.026 95.6176 233.026 95.6176C233.026 95.6176 236.819 97.1027 237.441 93.6276C236.404 94.0138 235.589 93.2712 235.426 92.3208C235.234 91.2516 235.293 90.4942 235.204 89.425C235.085 87.9251 234.76 85.846 233.456 84.851C232.286 83.9451 230.76 83.4996 229.234 84.2124C229.042 84.3313 228.82 84.3164 228.612 84.3758Z" fill="#54284E"/>
<path d="M236.567 93.4792C236.226 93.3901 235.841 93.0634 235.663 92.4396C235.293 90.6576 235.693 87.7914 234.374 85.6827C234.019 85.1184 233.574 84.8065 233.545 84.7768C233.456 84.7471 231.53 83.0838 229.234 84.2422C231.56 83.2769 233.308 84.955 233.382 84.9847C233.411 85.0144 233.782 85.2966 234.108 85.846C235.396 88.029 234.834 91.5783 235.322 92.7961C235.604 93.5534 236.3 94.0732 237.144 93.9247C236.359 96.8354 232.908 95.4246 232.893 95.4246C232.893 95.4394 232.878 95.8404 232.315 96.2711L232.167 96.375C231.249 96.9542 230.079 97.1472 229.649 97.1472C228.879 97.1769 228.109 96.8205 227.723 96.1077C227.946 96.5978 228.331 96.9542 228.864 97.1472C230.153 97.5482 232.463 97.0136 233.086 95.8255C233.945 96.1226 234.982 96.2414 235.841 95.9592C237.515 95.4246 237.633 93.494 237.692 93.3158C237.485 93.3752 237.055 93.6425 236.567 93.4792Z" fill="#3F1E3B"/>
<path d="M233.071 91.5041L234.774 97.4294C234.774 97.4294 233.308 104.038 232.078 103.652C230.849 103.266 230.878 97.7561 230.878 97.7561L229.901 94.1178L233.071 91.5041Z" fill="#FC7575"/>
<path d="M233.071 91.5041L233.263 92.1575C233.026 93.4495 231.841 95.8107 230.449 96.1671L229.901 94.1326L233.071 91.5041Z" fill="#FD5E5A"/>
<path d="M228.123 84.7173C228.123 84.7173 226.124 86.0093 226.316 87.628C226.494 89.2467 226.82 89.8407 226.835 90.91C226.849 91.9792 227.768 94.682 229.516 95.0978C231.264 95.5136 232.967 92.4396 233.13 91.1773C233.293 89.9001 233.13 88.1478 232.389 86.336C231.664 84.5094 229.264 84.1827 228.123 84.7173Z" fill="#FC7575"/>
<path d="M228.627 91.9199C228.835 91.5486 228.775 90.8506 228.657 90.42C228.642 90.8506 228.642 91.5932 228.479 91.8902L228.449 91.9496C228.479 91.9644 228.805 92.2169 229.16 92.1278C229.042 92.1278 228.775 92.0387 228.627 91.9199Z" fill="#452140"/>
<path d="M230.405 92.3505C229.664 92.8851 228.464 93.1376 228.464 93.1376C228.464 93.1376 228.583 93.2861 228.775 93.4346C229.131 93.3455 229.797 93.1376 230.33 92.8109C230.39 92.5584 230.405 92.3505 230.405 92.3505Z" fill="white"/>
<path d="M230.316 92.8257C229.782 93.1524 229.116 93.3603 228.76 93.4494C229.486 94.0138 230.064 93.7167 230.316 92.8257Z" fill="#2E162B"/>
<path d="M229.175 88.8904C229.175 88.8904 229.338 88.6379 229.738 88.4746C230.138 88.3112 231.101 88.6379 231.101 88.6379C231.101 88.6379 230.182 88.5637 229.931 88.6082C229.694 88.6676 229.338 88.9647 229.338 88.9647L229.175 88.8904Z" fill="#5C2C55"/>
<path d="M228.02 89.2765C228.02 89.2765 227.842 89.128 227.501 89.0983C227.175 89.0686 226.524 89.4844 226.524 89.4844C226.524 89.4844 227.19 89.2468 227.383 89.2319C227.575 89.2171 227.901 89.3656 227.901 89.3656L228.02 89.2765Z" fill="#5C2C55"/>
<path d="M229.516 89.9447C229.634 89.6922 230.005 89.4992 230.256 89.4695C230.612 89.4398 230.893 89.6477 231.115 89.6328C230.819 89.811 230.612 89.4843 229.886 89.7368C229.753 89.7962 229.634 89.8556 229.516 89.9447Z" fill="#2E162B"/>
<path d="M228.123 90.3309C227.916 90.1378 227.501 90.0933 227.264 90.1675C226.923 90.2715 226.746 90.5685 226.538 90.6427C226.879 90.6873 226.953 90.316 227.709 90.2863C227.857 90.2863 227.99 90.2863 228.123 90.3309Z" fill="#2E162B"/>
<path d="M231.515 90.6279C231.604 90.8506 231.352 91.1773 230.952 91.3258C230.553 91.4892 230.153 91.4298 230.064 91.207C229.975 90.9843 230.227 90.6576 230.627 90.5091C231.027 90.3457 231.426 90.4051 231.515 90.6279Z" fill="#FD5E5A"/>
<path d="M227.264 91.0882C227.116 91.0734 226.968 91.0882 226.849 91.1179C226.864 91.3258 226.923 91.5783 226.983 91.8604C227.042 91.8753 227.116 91.8901 227.175 91.8901C227.56 91.9198 227.901 91.7713 227.916 91.5486C227.946 91.3407 227.649 91.1179 227.264 91.0882Z" fill="#FD5E5A"/>
<path d="M228.153 85.2223C228.42 84.2124 231.204 82.4749 234.019 87.7617C236.774 93.2564 233.441 94.1326 232.641 92.8703C232.552 92.7515 232.523 92.5436 232.597 92.3802C232.271 92.1129 231.708 91.1625 232.182 90.5684C232.389 90.3011 232.641 90.1972 232.715 90.1526C232.715 90.1526 232.049 90.613 232.7 91.0734C233.234 91.4446 233.648 90.4348 233.693 90.0784C234.048 87.4201 227.264 88.0439 228.153 85.2223Z" fill="#6D3465"/>
<path d="M228.864 84.3906L228.301 86.2469C228.301 86.2469 226.272 86.9746 226.494 88.7567C226.583 89.4398 226.731 89.8556 226.731 89.8556C226.731 89.8556 226.435 89.7368 225.916 88.727C225.383 87.6726 225.739 85.7866 226.687 85.1777C227.62 84.5688 228.864 84.3906 228.864 84.3906Z" fill="#6D3465"/>
<path d="M228.153 85.2223C227.783 85.9203 227.946 86.841 229.383 87.539C230.538 88.1033 232.123 88.2964 233.101 89.1428C233.634 89.4992 233.708 91.014 232.997 90.9991C232.493 91.0437 232.419 90.4497 232.73 90.1378C232.523 90.2418 232.375 90.4942 232.404 90.7615C232.404 91.311 233.367 91.5338 233.738 90.9546C234.019 90.5388 234.063 89.9002 233.93 89.4101C233.249 86.945 227.649 87.9548 228.153 85.2223Z" fill="#914587"/>
<path d="M232.819 89.2319C232.819 89.2319 232.863 88.4597 233.412 88.727C234.256 89.1279 233.649 90.8951 233.145 90.9842C232.641 91.0733 232.819 89.2319 232.819 89.2319Z" fill="#FC7575"/>
<path d="M232.937 89.4695C232.937 89.4695 232.952 89.1725 233.13 89.1428C233.323 89.113 233.397 90.4793 233.145 90.4793C232.908 90.4941 232.937 89.4695 232.937 89.4695Z" fill="#FD5E5A"/>
<path d="M220.258 137.095C219.665 144.416 242.847 140.778 242.847 140.778V136.13C242.847 136.13 231.96 134.08 228.212 133.887C224.924 133.724 220.421 135.135 220.258 137.095Z" fill="#51BAE6"/>
<path d="M222.687 98.766C222.687 98.766 224.198 99.8501 224.198 100.697C224.198 101.543 223.561 101.929 223.176 100.979C222.791 100.028 222.435 100.236 221.621 99.7461C220.806 99.2561 220.436 98.4244 220.436 98.4244L222.687 98.766Z" fill="#58391B"/>
<path d="M218.421 107.617C218.421 107.617 219.132 109.102 218.465 109.919C217.814 110.721 218.11 110.943 219.488 111.79C220.865 112.651 220.495 113.409 220.495 113.409C220.495 113.409 217.873 112.339 217.325 112.117C216.777 111.894 216.332 111.166 216.332 111.166L215.903 108.374L218.421 107.617Z" fill="#58391B"/>
<path d="M223.443 95.2761C223.443 95.2761 223.68 94.1475 222.909 93.3752C222.139 92.603 217.947 92.2615 218.658 93.0931C219.369 93.9247 222.243 93.999 222.465 94.4296C222.687 94.8603 223.443 95.2761 223.443 95.2761Z" fill="#754C24"/>
<path d="M226.124 107.201C225.131 108.835 223.25 111.107 223.25 111.107C223.25 111.107 217.71 103.607 217.117 102.998C217.058 102.939 216.999 102.85 216.954 102.746C216.525 101.825 216.525 99.4194 216.525 99.4194C216.525 99.4194 216.421 97.3254 215.725 97.3254C215.029 97.3254 216.525 99.4194 215.918 100.192C215.31 100.964 214.881 100.607 214.762 100.117C214.644 99.6421 215.355 97.266 214.866 97.266C214.377 97.266 214.288 100.266 213.962 99.9391C213.651 99.6273 214.525 96.5532 214.096 96.5532C213.651 96.5532 213.133 99.85 213.133 100.607C213.133 101.38 215.355 103.681 216.11 104.454C216.866 105.226 221.221 116.676 223.813 115.918C225.338 115.473 226.509 111.82 228.212 109.414C227.427 108.404 227.22 107.914 226.124 107.201Z" fill="#FD5E5A"/>
<path d="M223.028 94.9494C223.028 94.9494 224.198 95.2167 224.879 96.182C225.576 97.1473 226.005 98.0383 226.005 98.0383C226.005 98.0383 224.005 100.073 222.598 99.2857C221.206 98.4838 220.569 98.4541 220.406 98.9887C220.243 99.5085 220.895 104.513 220.406 105.82C219.917 107.127 217.429 110.334 215.014 110.112C212.6 109.889 212.377 107.023 212.614 105.389C212.851 103.756 213.474 101.469 213.755 100.117C214.036 98.766 214.081 97.6076 216.303 96.4493C218.539 95.2613 221.265 94.3851 223.028 94.9494Z" fill="#754C24"/>
<path d="M220.406 98.9739C220.302 99.7164 221.013 104.142 220.539 105.761C220.199 106.83 218.628 108.775 216.999 109.592C218.391 108.716 220.376 106.562 220.45 104.973C220.539 103.889 220.376 99.7016 220.376 99.7164C220.361 99.4788 220.347 99.2263 220.406 98.9739Z" fill="url(#paint1_linear)"/>
<path d="M222.672 95.3652C222.672 95.3652 222.909 94.0881 221.887 93.0634C220.865 92.0387 219.354 91.4299 218.762 91.8902C218.184 92.3506 220.317 93.3456 220.45 93.8208C220.584 94.296 221.502 95.2316 222.672 95.3652Z" fill="#C69C6D"/>
<path d="M222.672 95.3652C222.717 94.2812 222.243 93.4792 221.428 92.811C220.791 92.2912 219.458 91.4744 218.762 91.8902C219.636 91.0883 223.25 92.8258 222.672 95.3652Z" fill="url(#paint2_linear)"/>
<path d="M221.991 94.8751C221.991 94.8751 221.546 93.2415 220.909 92.7812C220.272 92.3208 218.924 91.8456 219.058 92.306C219.191 92.7515 221.132 93.197 221.295 93.8356C221.487 94.4741 221.991 94.8751 221.991 94.8751Z" fill="#FC7575"/>
<path d="M216.806 105.478C216.806 105.478 217.591 104.914 219.176 106.265C220.761 107.617 219.725 108.374 219.991 108.879C220.258 109.384 221.324 108.775 222.02 108.077C222.702 107.394 223.754 107.795 223.828 108.24C223.828 108.24 222.82 109.414 222.169 109.844C221.532 110.29 219.621 110.795 219.621 110.795C219.621 110.795 218.258 110.394 218.08 109.77C217.917 109.146 217.251 109.77 216.436 109.844C215.621 109.948 213.488 106.948 216.806 105.478Z" fill="#754C24"/>
<path d="M216.436 109.859C215.651 109.874 215.103 108.79 214.97 108.151C214.718 106.949 215.518 105.968 216.54 105.463C216.762 105.36 216.999 105.27 217.236 105.256C218.391 105.181 219.976 106.488 220.095 107.632C220.139 108.047 220.05 108.3 219.932 108.701C219.932 108.226 220.065 107.973 219.961 107.543C219.828 106.949 219.369 106.488 218.88 106.117C218.495 105.835 218.065 105.597 217.606 105.523C216.48 105.345 215.192 106.473 215.088 107.587C215.014 108.404 215.503 109.354 216.095 109.74C216.199 109.815 216.318 109.859 216.436 109.859Z" fill="#3B2612"/>
<path d="M212.718 107.899C212.718 107.899 212.096 107.557 211.296 108.345C210.511 109.132 212.481 110.617 213.163 109.681C213.859 108.745 212.718 107.899 212.718 107.899Z" fill="#754C24"/>
<path d="M224.391 96.8206C224.391 97.0434 224.272 97.2216 224.124 97.2216C223.976 97.2216 223.857 97.0434 223.857 96.8206C223.857 96.5978 223.976 96.4196 224.124 96.4196C224.272 96.4196 224.391 96.5978 224.391 96.8206Z" fill="black"/>
<path d="M219.058 95.0682C219.058 95.0682 220.139 98.3056 221.561 98.7808L221.013 99.0778L218.643 95.2909L219.058 95.0682Z" fill="#2846A6"/>
<path d="M217.725 99.9243C217.518 99.6273 217.799 99.0333 217.799 99.0036C217.77 99.0185 217.681 98.6324 216.866 99.464C216.792 98.8848 217.059 98.3353 217.073 98.3056C216.91 98.3799 216.984 98.068 215.666 99.0333C215.696 98.0829 216.881 97.6225 216.896 97.5928C216.703 97.5631 217.059 97.2958 215.207 97.3998C215.666 97.0285 216.896 96.88 217.473 96.8206C215.088 96.7909 214.881 97.5631 214.837 97.578C214.866 97.578 215.933 97.5483 216.422 97.6077C215.088 98.4244 215.488 99.4194 215.459 99.4788C215.488 99.464 216.303 98.8106 216.747 98.5878C216.525 99.36 216.777 99.761 216.777 99.8352C216.807 99.8055 217.37 99.0927 217.636 99.063C217.384 99.8204 217.725 99.9986 217.725 100.028C217.74 99.9986 218.169 99.4343 218.362 99.4046C218.184 99.4194 217.844 99.8055 217.725 99.9243Z" fill="#58391B"/>
<path d="M215.977 102.583C215.888 101.632 215.858 101.424 215.844 101.32C215.755 101.395 215.621 101.053 214.777 102.36C214.673 101.677 215.073 100.8 215.088 100.771C215.014 100.8 214.718 100.622 213.8 101.38C213.814 100.89 214.14 100.177 214.362 99.7461C213.474 101.068 213.681 101.647 213.666 101.692C213.696 101.677 214.288 101.172 214.762 101.023C214.274 102.315 214.703 102.85 214.703 102.939C214.718 102.909 215.31 101.885 215.666 101.602C215.725 102.033 215.784 102.479 215.858 102.939C216.007 102.761 216.851 101.87 217.369 101.246C217.162 101.439 216.658 101.914 215.977 102.583Z" fill="#58391B"/>
<path d="M221.028 96.3305C220.85 96.2859 220.598 96.2414 220.332 96.1968C220.569 96.078 220.969 96.0186 221.072 95.9889C221.043 95.9741 220.45 95.6771 220.48 95.7068C220.791 95.588 221.028 95.6622 221.117 95.6622C221.072 95.6028 220.687 95.1127 220.702 95.1276C220.954 95.1573 221.206 95.2613 221.428 95.3949C221.309 95.291 221.176 95.2018 221.043 95.1424C220.761 94.9939 220.539 95.0088 220.48 94.9939C220.495 95.0236 220.821 95.4989 220.806 95.4692C220.376 95.4692 220.169 95.6622 220.095 95.6919C220.124 95.7068 220.584 95.9295 220.554 95.9147C219.932 96.1077 219.917 96.3305 219.917 96.375C219.991 96.3899 220.317 96.3305 220.806 96.3899C220.791 96.4047 220.554 96.7017 220.569 96.672C220.584 96.672 221.191 96.672 221.384 96.6572C221.176 96.6275 220.969 96.6126 220.776 96.5829C220.761 96.5978 221.043 96.3008 221.028 96.3305Z" fill="#58391B"/>
<path d="M222.421 97.8452C222.184 97.8155 221.858 97.7561 221.532 97.7115C221.828 97.5482 222.332 97.4442 222.465 97.3997C222.421 97.3848 221.635 97.0433 221.695 97.073C222.095 96.9096 222.391 96.9839 222.509 96.9839C222.45 96.9096 221.917 96.3008 221.947 96.3305C222.272 96.3602 222.598 96.4641 222.895 96.6275C222.746 96.4938 222.569 96.4047 222.376 96.3156C222.006 96.1522 221.724 96.1819 221.635 96.1671C221.65 96.1968 222.109 96.7908 222.08 96.7611C221.517 96.7908 221.236 96.9987 221.176 97.1027C221.221 97.1175 221.813 97.3848 221.784 97.37C221.013 97.6521 221.028 97.7264 220.91 97.8304C221.013 97.8452 221.487 97.9343 222.124 97.9789C222.109 98.0086 221.813 98.3947 221.828 98.365C221.858 98.365 222.628 98.3204 222.865 98.2907C222.598 98.261 222.332 98.261 222.08 98.2313C222.109 98.2165 222.45 97.8304 222.421 97.8452Z" fill="#58391B"/>
<path d="M233.5 109.696C232.404 111.329 230.982 112.503 230.982 112.503C230.982 112.503 223.65 104.632 222.983 104.023C222.909 103.964 222.85 103.874 222.805 103.771C222.331 102.85 222.331 100.444 222.331 100.444C222.331 100.444 222.213 98.3501 221.457 98.3501C220.687 98.3501 222.331 100.444 221.665 101.216C220.998 101.988 220.524 101.632 220.391 101.142C220.258 100.667 221.043 98.2907 220.495 98.2907C219.947 98.2907 219.858 101.29 219.502 100.964C219.162 100.652 220.124 97.5779 219.636 97.5779C219.147 97.5779 218.569 100.875 218.569 101.632C218.569 102.404 221.028 104.706 221.857 105.478C222.687 106.251 227.501 118.74 230.345 117.968C232.034 117.522 234.67 114.478 236.537 112.072C235.693 111.077 234.715 110.409 233.5 109.696Z" fill="#FC7575"/>
<path d="M233.5 109.696C233.352 109.904 233.219 110.112 233.071 110.29C233.841 110.914 235.189 112.072 235.826 113.008C236.078 112.696 236.33 112.384 236.567 112.072C235.693 111.077 234.715 110.409 233.5 109.696Z" fill="#FD5E5A"/>
<path d="M238.329 97.073C236.819 97.474 234.167 107.171 232.478 109.562C233.856 110.334 235.589 111.73 236.552 112.814C238.018 111.018 242.107 106.607 242.166 103.978C242.196 102.167 240.225 96.5681 238.329 97.073Z" fill="#F9B406"/>
<path d="M238.329 97.073C236.922 97.7413 234.774 106.77 232.478 109.562C233.752 107.275 236.522 97.5631 238.329 97.073Z" fill="white"/>
<path d="M246.713 122.987C246.61 122.987 246.521 122.913 246.491 122.809C246.462 122.69 246.521 122.556 246.654 122.512C247.173 122.363 247.454 122.289 247.454 122.289C247.573 122.259 247.706 122.334 247.75 122.452C247.78 122.586 247.706 122.705 247.587 122.735C247.587 122.735 247.306 122.809 246.802 122.957C246.758 122.972 246.728 122.987 246.713 122.987Z" fill="#1C7FA8"/>
<path d="M225.62 132.64C226.02 132.298 226.464 131.957 226.938 131.615C227.042 131.541 227.072 131.392 226.998 131.288C226.924 131.185 226.775 131.155 226.672 131.229C226.198 131.571 225.738 131.927 225.339 132.269C225.235 132.358 225.22 132.506 225.309 132.595C225.353 132.655 225.427 132.684 225.487 132.684C225.531 132.699 225.576 132.684 225.62 132.64ZM228.316 130.694C228.76 130.412 229.249 130.115 229.738 129.833C229.856 129.774 229.886 129.625 229.827 129.506C229.768 129.388 229.619 129.358 229.501 129.417C228.997 129.714 228.508 129.996 228.049 130.294C227.946 130.368 227.901 130.516 227.975 130.62C228.02 130.694 228.094 130.724 228.168 130.724C228.227 130.724 228.271 130.709 228.316 130.694ZM231.204 129.016C231.678 128.764 232.182 128.511 232.7 128.259C232.819 128.2 232.863 128.066 232.804 127.947C232.745 127.828 232.612 127.784 232.493 127.843C231.975 128.096 231.471 128.348 230.982 128.601C230.864 128.66 230.819 128.808 230.879 128.927C230.923 129.002 230.997 129.061 231.086 129.061C231.13 129.046 231.16 129.031 231.204 129.016ZM234.197 127.546C234.685 127.323 235.204 127.101 235.722 126.878C235.841 126.833 235.9 126.685 235.841 126.566C235.796 126.447 235.648 126.388 235.53 126.447C235.011 126.67 234.493 126.908 233.989 127.13C233.871 127.19 233.811 127.323 233.871 127.442C233.915 127.531 233.989 127.576 234.093 127.576C234.137 127.576 234.167 127.561 234.197 127.546ZM237.278 126.224C237.781 126.017 238.3 125.824 238.833 125.616C238.951 125.571 239.011 125.437 238.966 125.304C238.922 125.185 238.789 125.126 238.655 125.17C238.122 125.378 237.589 125.586 237.085 125.779C236.967 125.824 236.907 125.972 236.952 126.091C236.996 126.18 237.07 126.239 237.174 126.239C237.218 126.254 237.248 126.239 237.278 126.224ZM240.403 125.036C240.951 124.843 241.47 124.65 241.988 124.487C242.107 124.442 242.181 124.309 242.136 124.19C242.092 124.071 241.958 123.997 241.84 124.041C241.336 124.22 240.803 124.398 240.255 124.606C240.136 124.65 240.062 124.784 240.107 124.903C240.136 125.007 240.225 125.066 240.329 125.066C240.359 125.051 240.373 125.051 240.403 125.036ZM243.573 123.952C244.151 123.759 244.699 123.596 245.173 123.447C245.291 123.403 245.365 123.284 245.336 123.15C245.291 123.032 245.173 122.957 245.039 122.987C244.565 123.136 244.017 123.299 243.44 123.492C243.321 123.537 243.247 123.67 243.292 123.789C243.321 123.893 243.41 123.952 243.514 123.952C243.529 123.967 243.543 123.967 243.573 123.952Z" fill="#1C7FA8"/>
<path d="M223.695 134.437C223.635 134.437 223.591 134.422 223.546 134.377C223.443 134.288 223.443 134.14 223.517 134.051C223.695 133.843 223.887 133.635 224.08 133.427C224.169 133.338 224.317 133.338 224.42 133.427C224.509 133.516 224.509 133.665 224.42 133.769C224.228 133.976 224.035 134.17 223.872 134.363C223.828 134.407 223.754 134.437 223.695 134.437Z" fill="#1C7FA8"/>
<path d="M236.67 139.219C236.804 139.219 236.907 139.1 236.907 138.981C236.907 138.847 236.804 138.758 236.67 138.743C236.122 138.758 235.574 138.758 235.026 138.743C234.893 138.743 234.789 138.847 234.789 138.981C234.789 139.115 234.893 139.219 235.026 139.219C235.322 139.219 235.604 139.233 235.9 139.233C236.137 139.233 236.404 139.233 236.67 139.219ZM233.589 138.922C233.604 138.788 233.5 138.684 233.367 138.669C232.834 138.639 232.286 138.595 231.723 138.536C231.59 138.521 231.471 138.625 231.471 138.743C231.456 138.877 231.545 138.996 231.678 138.996C232.241 139.055 232.804 139.1 233.338 139.13H233.352C233.471 139.144 233.575 139.055 233.589 138.922ZM238.329 139.13C238.907 139.085 239.47 139.011 239.988 138.922C240.122 138.907 240.211 138.773 240.181 138.654C240.166 138.521 240.033 138.432 239.914 138.461C239.396 138.55 238.848 138.61 238.285 138.654C238.152 138.669 238.063 138.773 238.063 138.907C238.078 139.026 238.181 139.13 238.3 139.13C238.315 139.13 238.329 139.13 238.329 139.13ZM230.301 138.61C230.316 138.476 230.227 138.357 230.094 138.342C229.56 138.268 229.012 138.194 228.464 138.105C228.331 138.09 228.212 138.179 228.197 138.298C228.183 138.432 228.272 138.55 228.39 138.565C228.938 138.654 229.501 138.743 230.034 138.803C230.049 138.803 230.049 138.803 230.064 138.803C230.182 138.818 230.286 138.729 230.301 138.61ZM241.633 138.58C241.781 138.536 241.914 138.506 242.062 138.461C242.181 138.417 242.255 138.298 242.225 138.164C242.181 138.045 242.062 137.971 241.929 138.001C241.796 138.045 241.647 138.075 241.514 138.12C241.381 138.149 241.307 138.283 241.351 138.417C241.381 138.521 241.47 138.595 241.573 138.595C241.588 138.58 241.618 138.58 241.633 138.58ZM227.027 138.09C227.057 137.956 226.968 137.838 226.835 137.808C226.301 137.704 225.753 137.6 225.22 137.481C225.087 137.451 224.968 137.541 224.939 137.659C224.909 137.793 224.998 137.912 225.116 137.941C225.65 138.06 226.198 138.164 226.746 138.268C226.761 138.268 226.775 138.268 226.79 138.268C226.909 138.283 227.012 138.209 227.027 138.09ZM223.783 137.407C223.813 137.273 223.739 137.154 223.606 137.125C222.613 136.887 222.021 136.709 222.006 136.709C221.887 136.679 221.754 136.739 221.709 136.872C221.68 136.991 221.739 137.125 221.872 137.169C221.872 137.169 222.48 137.347 223.487 137.585C223.502 137.585 223.531 137.585 223.546 137.585C223.665 137.585 223.754 137.526 223.783 137.407Z" fill="#7CCBEC"/>
<path d="M220.584 97.4443C220.584 97.4443 221.324 98.8254 222.109 99.2412C222.894 99.657 223.443 100.489 223.176 101.32C222.909 102.152 221.739 101.721 221.443 101.038C221.147 100.355 220.05 99.9688 219.162 99.6124C218.273 99.256 217.903 96.7314 219.236 96.8354C220.569 96.9096 220.584 97.4443 220.584 97.4443Z" fill="#754C24"/>
<path d="M222.109 99.2411C221.324 98.8253 220.732 98.0234 220.584 97.4442C220.495 97.0878 220.569 96.9096 219.236 96.8205C218.91 96.7908 218.702 96.9245 218.554 97.1324C218.673 97.0581 218.836 97.0136 219.014 97.0284C220.347 97.1175 220.258 97.2957 220.361 97.6521C220.51 98.2165 221.102 99.0332 221.887 99.449C222.672 99.8649 223.22 100.696 222.954 101.528C222.939 101.588 222.909 101.647 222.88 101.691C223.013 101.617 223.117 101.498 223.176 101.32C223.443 100.474 222.894 99.657 222.109 99.2411Z" fill="#3B2612"/>
<path d="M225.916 98.157C225.916 98.157 225.813 99.0481 225.102 99.3005C224.82 99.4045 223.206 99.2708 223.813 98.3501C224.42 97.4294 225.768 97.7709 225.768 97.7709L225.916 98.157Z" fill="#58391B"/>
<path d="M225.916 98.1571C225.916 98.1571 226.05 98.0977 226.05 97.9789C225.961 97.8156 225.857 97.7562 225.857 97.7562C225.857 97.7562 225.738 97.7859 225.724 97.9938C225.827 98.2017 225.916 98.1571 225.916 98.1571Z" fill="#FC7575"/>
<path d="M33.0996 34.7373H35.9585V40.763L40.1955 34.7373H42.9224V45H40.0636V38.989L35.8412 45H33.0996V34.7373ZM37.9963 34.1215C36.9603 34.1215 36.1979 33.9212 35.7092 33.5204C35.2303 33.1197 34.9908 32.5235 34.9908 31.7318H36.9408C36.9505 32.0739 37.0385 32.328 37.2047 32.4942C37.3708 32.6603 37.6347 32.7434 37.9963 32.7434C38.358 32.7434 38.6268 32.6603 38.8027 32.4942C38.9786 32.328 39.0715 32.0739 39.0813 31.7318H41.0312C41.0312 32.5235 40.7868 33.1197 40.2981 33.5204C39.8094 33.9212 39.0422 34.1215 37.9963 34.1215ZM54.3626 42.7715V46.642H51.7823V45H46.7829V46.642H44.1879V42.7715H44.4811C44.96 42.7618 45.2923 42.5027 45.478 41.9945C45.6637 41.4765 45.7761 40.7532 45.8152 39.8247L45.9179 37.0537H53.263V42.7715H54.3626ZM48.3223 40.0299C48.293 40.7434 48.2392 41.3152 48.161 41.7453C48.0828 42.1753 47.9362 42.5174 47.7212 42.7715H50.4774V39.2675H48.3516L48.3223 40.0299ZM63.6087 41.0415C63.6087 41.0611 63.594 41.2908 63.5647 41.7306H57.7882C57.9055 42.1411 58.1303 42.4588 58.4626 42.6836C58.8047 42.8986 59.2299 43.0061 59.7382 43.0061C60.1193 43.0061 60.4468 42.9523 60.7204 42.8448C61.0039 42.7373 61.2873 42.5614 61.5708 42.317L63.0369 43.8418C62.2647 44.7019 61.1358 45.1319 59.6502 45.1319C58.7217 45.1319 57.9055 44.956 57.2018 44.6042C56.4981 44.2523 55.9507 43.7636 55.5598 43.1381C55.1786 42.5125 54.988 41.8039 54.988 41.0122C54.988 40.2303 55.1737 39.5314 55.5451 38.9157C55.9263 38.2901 56.4492 37.8014 57.1138 37.4496C57.7785 37.0977 58.5262 36.9218 59.357 36.9218C60.1487 36.9218 60.8671 37.0879 61.5121 37.4203C62.1572 37.7428 62.6655 38.2168 63.0369 38.8424C63.4181 39.4581 63.6087 40.1912 63.6087 41.0415ZM59.3716 38.901C58.9416 38.901 58.5799 39.0232 58.2867 39.2675C58.0033 39.5119 57.8225 39.8442 57.7443 40.2645H60.999C60.9208 39.8442 60.7351 39.5119 60.4419 39.2675C60.1584 39.0232 59.8017 38.901 59.3716 38.901ZM77.6746 37.0537V45H65.0808V37.0537H67.8518V42.7715H70.0069V37.0537H72.7779V42.7715H74.9184V37.0537H77.6746ZM93.22 42.7715V46.642H90.6396V45H85.6402V46.642H83.0453V42.7715H83.3385C83.8174 42.7618 84.1497 42.5027 84.3354 41.9945C84.5211 41.4765 84.6335 40.7532 84.6726 39.8247L84.7752 37.0537H92.1204V42.7715H93.22ZM87.1797 40.0299C87.1503 40.7434 87.0966 41.3152 87.0184 41.7453C86.9402 42.1753 86.7936 42.5174 86.5786 42.7715H89.3348V39.2675H87.209L87.1797 40.0299ZM98.3316 45.1319C97.4813 45.1319 96.714 44.956 96.0299 44.6042C95.3457 44.2523 94.8081 43.7636 94.4171 43.1381C94.036 42.5125 93.8454 41.8039 93.8454 41.0122C93.8454 40.2303 94.036 39.5266 94.4171 38.901C94.8081 38.2755 95.3408 37.7917 96.0152 37.4496C96.6994 37.0977 97.4715 36.9218 98.3316 36.9218C99.1917 36.9218 99.9639 37.0977 100.648 37.4496C101.332 37.7917 101.865 38.2755 102.246 38.901C102.627 39.5168 102.818 40.2205 102.818 41.0122C102.818 41.8039 102.627 42.5125 102.246 43.1381C101.865 43.7636 101.332 44.2523 100.648 44.6042C99.9639 44.956 99.1917 45.1319 98.3316 45.1319ZM98.3316 42.9181C98.8203 42.9181 99.2211 42.752 99.5338 42.4197C99.8466 42.0776 100.003 41.6084 100.003 41.0122C100.003 40.4258 99.8466 39.9664 99.5338 39.6341C99.2211 39.3018 98.8203 39.1356 98.3316 39.1356C97.8429 39.1356 97.4422 39.3018 97.1294 39.6341C96.8167 39.9664 96.6603 40.4258 96.6603 41.0122C96.6603 41.6084 96.8167 42.0776 97.1294 42.4197C97.4422 42.752 97.8429 42.9181 98.3316 42.9181ZM116.601 37.0537V45H113.83V39.2675H111.162V45H108.391V37.0537H116.601ZM123.498 36.9218C124.222 36.9218 124.877 37.0928 125.463 37.4349C126.059 37.7672 126.528 38.2462 126.87 38.8717C127.222 39.4875 127.398 40.2059 127.398 41.0269C127.398 41.8479 127.222 42.5712 126.87 43.1967C126.528 43.8125 126.059 44.2914 125.463 44.6335C124.877 44.9658 124.222 45.1319 123.498 45.1319C122.57 45.1319 121.832 44.8534 121.285 44.2963V47.8442H118.499V37.0537H121.153V37.8454C121.671 37.2297 122.453 36.9218 123.498 36.9218ZM122.912 42.9181C123.401 42.9181 123.801 42.752 124.114 42.4197C124.427 42.0776 124.583 41.6133 124.583 41.0269C124.583 40.4404 124.427 39.9811 124.114 39.6487C123.801 39.3066 123.401 39.1356 122.912 39.1356C122.423 39.1356 122.023 39.3066 121.71 39.6487C121.397 39.9811 121.241 40.4404 121.241 41.0269C121.241 41.6133 121.397 42.0776 121.71 42.4197C122.023 42.752 122.423 42.9181 122.912 42.9181ZM128.736 37.0537H131.507V41.2175L134.835 37.0537H137.401V45H134.615V40.8216L131.316 45H128.736V37.0537ZM146.369 39.2675H143.818V45H141.047V39.2675H138.482V37.0537H146.369V39.2675ZM156.009 37.0537L152.578 45.3225C152.177 46.2999 151.689 46.9841 151.112 47.3751C150.535 47.7758 149.832 47.9762 149.001 47.9762C148.58 47.9762 148.155 47.9078 147.725 47.7709C147.305 47.6439 146.963 47.4728 146.699 47.2578L147.667 45.3079C147.823 45.4545 148.009 45.5669 148.224 45.6451C148.449 45.7331 148.673 45.777 148.898 45.777C149.162 45.777 149.377 45.7233 149.543 45.6158C149.719 45.5082 149.866 45.3372 149.983 45.1026L146.582 37.0537H149.441L151.39 41.9065L153.355 37.0537H156.009ZM164.361 37.0537V45H161.576V39.2675H159.567L159.508 40.4844C159.469 41.5205 159.367 42.3757 159.2 43.0501C159.034 43.7245 158.761 44.2523 158.379 44.6335C157.998 45.0049 157.475 45.1906 156.811 45.1906C156.469 45.1906 156.019 45.1271 155.462 45L155.579 42.7275C155.755 42.7471 155.872 42.7569 155.931 42.7569C156.234 42.7569 156.464 42.6591 156.62 42.4636C156.776 42.2682 156.884 42.0092 156.943 41.6866C157.001 41.3543 157.04 40.9145 157.06 40.3671L157.177 37.0537H164.361ZM169.957 42.1704H169.019V45H166.233V37.0537H169.019V39.9859H170.016L171.966 37.0537H174.912L172.244 40.8656L175.088 45H171.804L169.957 42.1704ZM184.042 37.0537L180.611 45.3225C180.211 46.2999 179.722 46.9841 179.145 47.3751C178.569 47.7758 177.865 47.9762 177.034 47.9762C176.614 47.9762 176.189 47.9078 175.759 47.7709C175.338 47.6439 174.996 47.4728 174.732 47.2578L175.7 45.3079C175.856 45.4545 176.042 45.5669 176.257 45.6451C176.482 45.7331 176.707 45.777 176.932 45.777C177.195 45.777 177.41 45.7233 177.577 45.6158C177.753 45.5082 177.899 45.3372 178.016 45.1026L174.615 37.0537H177.474L179.424 41.9065L181.388 37.0537H184.042ZM187.674 41.2614C187.674 40.7727 187.782 40.372 187.997 40.0592C188.212 39.7367 188.525 39.3848 188.935 39.0037C189.218 38.7398 189.429 38.5198 189.565 38.3439C189.702 38.1582 189.771 37.9627 189.771 37.7575C189.771 37.474 189.649 37.2492 189.404 37.0831C189.17 36.9071 188.862 36.8192 188.481 36.8192C188.09 36.8192 187.733 36.912 187.41 37.0977C187.098 37.2834 186.843 37.5424 186.648 37.8748L184.463 36.7019C184.864 36.0177 185.431 35.485 186.164 35.1038C186.897 34.7226 187.782 34.532 188.818 34.532C189.981 34.532 190.914 34.7764 191.618 35.2651C192.331 35.744 192.688 36.4184 192.688 37.2883C192.688 37.689 192.62 38.0458 192.483 38.3586C192.346 38.6616 192.18 38.9206 191.985 39.1356C191.799 39.3409 191.554 39.5754 191.251 39.8393C190.919 40.1228 190.675 40.3671 190.518 40.5724C190.362 40.7679 190.284 40.9975 190.284 41.2614H187.674ZM188.979 45.1319C188.5 45.1319 188.104 44.9853 187.791 44.6921C187.479 44.3891 187.322 44.0226 187.322 43.5925C187.322 43.1527 187.474 42.7911 187.777 42.5076C188.09 42.2242 188.49 42.0825 188.979 42.0825C189.468 42.0825 189.868 42.2242 190.181 42.5076C190.494 42.7911 190.65 43.1527 190.65 43.5925C190.65 44.0226 190.494 44.3891 190.181 44.6921C189.868 44.9853 189.468 45.1319 188.979 45.1319Z" fill="#187073"/>
<path d="M42.7319 60.7165V70.9792H39.8583V63.0183H35.9585V70.9792H33.0996V60.7165H42.7319ZM49.7639 62.901C50.4871 62.901 51.142 63.072 51.7284 63.4141C52.3247 63.7464 52.7938 64.2254 53.1359 64.8509C53.4878 65.4667 53.6637 66.185 53.6637 67.0061C53.6637 67.8271 53.4878 68.5503 53.1359 69.1759C52.7938 69.7916 52.3247 70.2706 51.7284 70.6127C51.142 70.945 50.4871 71.1111 49.7639 71.1111C48.8353 71.1111 48.0974 70.8326 47.5501 70.2755V73.8234H44.7645V63.0329H47.4181V63.8246C47.9361 63.2089 48.718 62.901 49.7639 62.901ZM49.1774 68.8973C49.6661 68.8973 50.0669 68.7312 50.3796 68.3989C50.6924 68.0568 50.8488 67.5925 50.8488 67.0061C50.8488 66.4196 50.6924 65.9602 50.3796 65.6279C50.0669 65.2858 49.6661 65.1148 49.1774 65.1148C48.6887 65.1148 48.288 65.2858 47.9752 65.6279C47.6625 65.9602 47.5061 66.4196 47.5061 67.0061C47.5061 67.5925 47.6625 68.0568 47.9752 68.3989C48.288 68.7312 48.6887 68.8973 49.1774 68.8973ZM55.0014 63.0329H57.7723V67.1966L61.1004 63.0329H63.666V70.9792H60.8805V66.8008L57.5817 70.9792H55.0014V63.0329ZM74.9367 68.7507V72.6212H72.3564V70.9792H67.3569V72.6212H64.762V68.7507H65.0552C65.5341 68.7409 65.8664 68.4819 66.0521 67.9737C66.2378 67.4557 66.3502 66.7324 66.3893 65.8039L66.492 63.0329H73.8371V68.7507H74.9367ZM68.8964 66.0091C68.867 66.7226 68.8133 67.2944 68.7351 67.7244C68.6569 68.1545 68.5103 68.4966 68.2953 68.7507H71.0515V65.2467H68.9257L68.8964 66.0091ZM81.0453 63.7367C81.8174 63.7367 82.4869 63.8881 83.0538 64.1911C83.6207 64.4844 84.0508 64.9095 84.344 65.4667C84.647 66.014 84.7985 66.6542 84.7985 67.3872C84.7985 68.1398 84.603 68.8045 84.2121 69.3811C83.8309 69.948 83.2982 70.3927 82.614 70.7153C81.9396 71.0281 81.1772 71.1844 80.3269 71.1844C78.9292 71.1844 77.815 70.7495 76.9842 69.8796C76.1534 69.0097 75.738 67.7049 75.738 65.9651C75.738 62.7006 77.1846 60.7947 80.0777 60.2473L83.9335 59.5143L84.3147 61.8454L80.972 62.4758C80.1216 62.6322 79.4961 62.8863 79.0954 63.2382C78.7044 63.5803 78.4698 64.0787 78.3916 64.7336C79.1051 64.069 79.9897 63.7367 81.0453 63.7367ZM80.3416 69.0733C80.84 69.0733 81.231 68.912 81.5144 68.5894C81.8077 68.2669 81.9543 67.8662 81.9543 67.3872C81.9543 66.879 81.8077 66.4831 81.5144 66.1997C81.2212 65.9065 80.8303 65.7599 80.3416 65.7599C79.8431 65.7599 79.4423 65.9065 79.1394 66.1997C78.8461 66.4929 78.6995 66.8937 78.6995 67.4019C78.6995 67.8906 78.851 68.2913 79.154 68.6041C79.457 68.9169 79.8529 69.0733 80.3416 69.0733ZM89.1527 62.901C90.4722 62.901 91.4789 63.204 92.1729 63.81C92.8668 64.4062 93.2138 65.3249 93.2138 66.5662V70.9792H90.6188V69.9529C90.2181 70.7251 89.4362 71.1111 88.273 71.1111C87.6573 71.1111 87.1246 71.0036 86.675 70.7886C86.2254 70.5736 85.8833 70.2852 85.6487 69.9236C85.4239 69.5522 85.3115 69.1319 85.3115 68.6627C85.3115 67.9102 85.5999 67.3286 86.1765 66.9181C86.7532 66.4978 87.6426 66.2877 88.8448 66.2877H90.4282C90.3793 65.4471 89.8173 65.0268 88.7422 65.0268C88.361 65.0268 87.9749 65.0904 87.584 65.2174C87.193 65.3347 86.8607 65.5009 86.587 65.7159L85.6487 63.8246C86.0886 63.5314 86.6212 63.3066 87.2468 63.1502C87.8821 62.9841 88.5174 62.901 89.1527 62.901ZM89.0501 69.3518C89.3726 69.3518 89.6561 69.2736 89.9004 69.1172C90.1448 68.9609 90.3207 68.7312 90.4282 68.4282V67.7391H89.226C88.4148 67.7391 88.0091 68.0079 88.0091 68.5455C88.0091 68.7898 88.102 68.9853 88.2877 69.1319C88.4734 69.2785 88.7275 69.3518 89.0501 69.3518ZM94.8896 63.0329H97.6606V67.1966L100.989 63.0329H103.554V70.9792H100.769V66.8008L97.47 70.9792H94.8896V63.0329ZM99.0387 62.2706C98.1004 62.2706 97.4064 62.0751 96.9568 61.6841C96.517 61.2834 96.2922 60.6725 96.2824 59.8515H98.0857C98.0955 60.1936 98.1737 60.4526 98.3203 60.6285C98.4669 60.7947 98.7015 60.8778 99.024 60.8778C99.3466 60.8778 99.586 60.7898 99.7424 60.6139C99.9086 60.4379 99.9916 60.1838 99.9916 59.8515H101.824C101.824 60.6725 101.595 61.2834 101.135 61.6841C100.686 62.0751 99.9868 62.2706 99.0387 62.2706ZM117.904 63.0329V70.9792H115.133V65.2467H112.465V70.9792H109.694V63.0329H117.904ZM123.716 71.1111C122.866 71.1111 122.099 70.9352 121.415 70.5833C120.73 70.2315 120.193 69.7428 119.802 69.1172C119.421 68.4917 119.23 67.7831 119.23 66.9914C119.23 66.2095 119.421 65.5057 119.802 64.8802C120.193 64.2547 120.726 63.7709 121.4 63.4288C122.084 63.0769 122.856 62.901 123.716 62.901C124.576 62.901 125.349 63.0769 126.033 63.4288C126.717 63.7709 127.25 64.2547 127.631 64.8802C128.012 65.496 128.203 66.1997 128.203 66.9914C128.203 67.7831 128.012 68.4917 127.631 69.1172C127.25 69.7428 126.717 70.2315 126.033 70.5833C125.349 70.9352 124.576 71.1111 123.716 71.1111ZM123.716 68.8973C124.205 68.8973 124.606 68.7312 124.919 68.3989C125.231 68.0568 125.388 67.5876 125.388 66.9914C125.388 66.405 125.231 65.9456 124.919 65.6133C124.606 65.2809 124.205 65.1148 123.716 65.1148C123.228 65.1148 122.827 65.2809 122.514 65.6133C122.201 65.9456 122.045 66.405 122.045 66.9914C122.045 67.5876 122.201 68.0568 122.514 68.3989C122.827 68.7312 123.228 68.8973 123.716 68.8973ZM209.044 68.7507V72.6359H206.463V70.9792H199.807V63.0329H202.578V68.7507H205.159V63.0329H207.944V68.7507H209.044ZM210.245 63.0329H213.03V70.9792H210.245V63.0329ZM211.638 62.1533C211.129 62.1533 210.719 62.0115 210.406 61.7281C210.093 61.4446 209.937 61.0928 209.937 60.6725C209.937 60.2522 210.093 59.9004 210.406 59.6169C210.719 59.3335 211.129 59.1917 211.638 59.1917C212.146 59.1917 212.556 59.3286 212.869 59.6023C213.182 59.8661 213.338 60.2082 213.338 60.6285C213.338 61.0684 213.182 61.4349 212.869 61.7281C212.556 62.0115 212.146 62.1533 211.638 62.1533ZM214.912 63.0329H217.683V65.9798H220.542V63.0329H223.328V70.9792H220.542V68.1936H217.683V70.9792H214.912V63.0329ZM225.206 63.0329H227.992V70.9792H225.206V63.0329ZM226.599 62.1533C226.091 62.1533 225.68 62.0115 225.368 61.7281C225.055 61.4446 224.899 61.0928 224.899 60.6725C224.899 60.2522 225.055 59.9004 225.368 59.6169C225.68 59.3335 226.091 59.1917 226.599 59.1917C227.107 59.1917 227.518 59.3286 227.831 59.6023C228.144 59.8661 228.3 60.2082 228.3 60.6285C228.3 61.0684 228.144 61.4349 227.831 61.7281C227.518 62.0115 227.107 62.1533 226.599 62.1533ZM229.493 60.7165H232.806L232.249 67.2406H230.035L229.493 60.7165ZM231.149 71.1111C230.661 71.1111 230.26 70.9645 229.947 70.6713C229.634 70.3683 229.478 70.0018 229.478 69.5717C229.478 69.1319 229.634 68.7703 229.947 68.4868C230.26 68.2034 230.661 68.0616 231.149 68.0616C231.638 68.0616 232.034 68.2034 232.337 68.4868C232.65 68.7703 232.806 69.1319 232.806 69.5717C232.806 70.0018 232.65 70.3683 232.337 70.6713C232.024 70.9645 231.628 71.1111 231.149 71.1111Z" fill="#187073"/>
<path d="M137.69 71.1111C136.84 71.1111 136.073 70.9352 135.388 70.5833C134.704 70.2315 134.167 69.7428 133.776 69.1172C133.394 68.4917 133.204 67.7831 133.204 66.9914C133.204 66.2095 133.394 65.5057 133.776 64.8802C134.167 64.2547 134.699 63.7709 135.374 63.4288C136.058 63.0769 136.83 62.901 137.69 62.901C138.55 62.901 139.322 63.0769 140.007 63.4288C140.691 63.7709 141.223 64.2547 141.605 64.8802C141.986 65.496 142.176 66.1997 142.176 66.9914C142.176 67.7831 141.986 68.4917 141.605 69.1172C141.223 69.7428 140.691 70.2315 140.007 70.5833C139.322 70.9352 138.55 71.1111 137.69 71.1111ZM137.69 68.8973C138.179 68.8973 138.58 68.7312 138.892 68.3989C139.205 68.0568 139.361 67.5876 139.361 66.9914C139.361 66.405 139.205 65.9456 138.892 65.6133C138.58 65.2809 138.179 65.1148 137.69 65.1148C137.201 65.1148 136.801 65.2809 136.488 65.6133C136.175 65.9456 136.019 66.405 136.019 66.9914C136.019 67.5876 136.175 68.0568 136.488 68.3989C136.801 68.7312 137.201 68.8973 137.69 68.8973ZM151.693 63.0329V70.9792H148.922V65.2467H146.254V70.9792H143.483V63.0329H151.693ZM160.687 65.2467H158.136V70.9792H155.365V65.2467H152.799V63.0329H160.687V65.2467ZM165.366 71.1111C164.515 71.1111 163.748 70.9352 163.064 70.5833C162.38 70.2315 161.842 69.7428 161.451 69.1172C161.07 68.4917 160.879 67.7831 160.879 66.9914C160.879 66.2095 161.07 65.5057 161.451 64.8802C161.842 64.2547 162.375 63.7709 163.049 63.4288C163.733 63.0769 164.506 62.901 165.366 62.901C166.226 62.901 166.998 63.0769 167.682 63.4288C168.366 63.7709 168.899 64.2547 169.28 64.8802C169.661 65.496 169.852 66.1997 169.852 66.9914C169.852 67.7831 169.661 68.4917 169.28 69.1172C168.899 69.7428 168.366 70.2315 167.682 70.5833C166.998 70.9352 166.226 71.1111 165.366 71.1111ZM165.366 68.8973C165.854 68.8973 166.255 68.7312 166.568 68.3989C166.881 68.0568 167.037 67.5876 167.037 66.9914C167.037 66.405 166.881 65.9456 166.568 65.6133C166.255 65.2809 165.854 65.1148 165.366 65.1148C164.877 65.1148 164.476 65.2809 164.163 65.6133C163.851 65.9456 163.694 66.405 163.694 66.9914C163.694 67.5876 163.851 68.0568 164.163 68.3989C164.476 68.7312 164.877 68.8973 165.366 68.8973ZM177.565 66.8155C178.474 67.1185 178.929 67.744 178.929 68.6921C178.929 69.4056 178.65 69.9676 178.093 70.3781C177.536 70.7788 176.715 70.9792 175.63 70.9792H171.158V63.0329H175.425C176.461 63.0329 177.262 63.2137 177.829 63.5754C178.406 63.937 178.694 64.4453 178.694 65.1001C178.694 65.4813 178.596 65.8185 178.401 66.1117C178.205 66.405 177.927 66.6395 177.565 66.8155ZM173.651 66.229H175.175C175.821 66.229 176.143 65.9896 176.143 65.5106C176.143 65.0513 175.821 64.8216 175.175 64.8216H173.651V66.229ZM175.381 69.1759C176.055 69.1759 176.392 68.9315 176.392 68.4428C176.392 67.9541 176.065 67.7098 175.41 67.7098H173.651V69.1759H175.381ZM180.336 63.0329H183.121V70.9792H180.336V63.0329ZM181.729 62.1533C181.22 62.1533 180.81 62.0115 180.497 61.7281C180.184 61.4446 180.028 61.0928 180.028 60.6725C180.028 60.2522 180.184 59.9004 180.497 59.6169C180.81 59.3335 181.22 59.1917 181.729 59.1917C182.237 59.1917 182.647 59.3286 182.96 59.6023C183.273 59.8661 183.429 60.2082 183.429 60.6285C183.429 61.0684 183.273 61.4349 182.96 61.7281C182.647 62.0115 182.237 62.1533 181.729 62.1533ZM185.003 63.0329H187.774V67.1966L191.102 63.0329H193.668V70.9792H190.882V66.8008L187.584 70.9792H185.003V63.0329ZM189.152 62.2706C188.214 62.2706 187.52 62.0751 187.07 61.6841C186.631 61.2834 186.406 60.6725 186.396 59.8515H188.199C188.209 60.1936 188.287 60.4526 188.434 60.6285C188.581 60.7947 188.815 60.8778 189.138 60.8778C189.46 60.8778 189.7 60.7898 189.856 60.6139C190.022 60.4379 190.105 60.1838 190.105 59.8515H191.938C191.938 60.6725 191.708 61.2834 191.249 61.6841C190.799 62.0751 190.1 62.2706 189.152 62.2706Z" fill="#FFC727"/>
<defs>
<linearGradient id="paint0_linear" x1="266.363" y1="137.562" x2="268.096" y2="78.7824" gradientUnits="userSpaceOnUse">
<stop stop-color="#82ACF5"/>
<stop offset="1" stop-color="#F8BDEC"/>
</linearGradient>
<linearGradient id="paint1_linear" x1="216.935" y1="104.288" x2="220.717" y2="104.288" gradientUnits="userSpaceOnUse">
<stop stop-color="#7F0300"/>
<stop offset="1" stop-color="#93170A"/>
</linearGradient>
<linearGradient id="paint2_linear" x1="218.685" y1="93.5273" x2="222.815" y2="93.5273" gradientUnits="userSpaceOnUse">
<stop stop-color="#7F0300"/>
<stop offset="1" stop-color="#93170A"/>
</linearGradient>
</defs>
</svg>
