<svg width="690" height="345" viewBox="0 0 690 345" fill="none" xmlns="http://www.w3.org/2000/svg">
<rect width="690" height="345" rx="4" fill="#FBFBFB"/>
<path d="M634.241 196.075C634.241 196.075 633.37 195.615 631.95 195.064C625.397 193.043 611.605 193.686 606.472 195.891C603.402 197.223 596.3 200.669 590.251 203.701C592.497 203.976 597.858 205.446 599.553 203.655C599.553 203.655 603.219 212.613 601.753 216.426C600.241 220.285 583.745 221.938 586.952 222.857C590.16 223.776 602.853 220.974 602.853 220.974C602.853 220.974 603.952 230.161 600.47 231.953C596.987 233.745 578.75 231.034 580.445 232.872C582.187 234.663 598.912 236.547 600.836 234.526C600.836 234.526 601.203 245.551 595.109 246.745C589.014 247.894 572.381 238.522 573.801 241.095C575.222 243.667 590.664 251.11 595.383 248.307C595.383 248.307 591.168 258.827 587.319 258.827C583.47 258.827 573.985 245.275 572.06 247.251C570.135 249.226 580.4 258.919 586.082 260.114C586.082 260.114 583.836 266.132 576.505 264.34C569.173 262.548 570.41 250.742 568.165 251.753C565.92 252.763 568.028 265.764 575.497 265.764C575.497 265.764 563.308 268.704 560.467 261.905C559.642 259.976 559.276 258.414 559.092 257.128C557.993 262.502 557.351 268.98 557.03 275.503H555.656C556.114 267.556 557.076 259.516 558.955 253.085C558.038 253.59 556.435 254.279 554.51 254.463C554.418 262.135 554.327 269.301 554.281 275.549H552.815C552.952 270.036 553.09 263.146 553.227 254.509C552.86 254.509 552.448 254.463 552.036 254.371C551.577 261.767 551.303 268.888 551.119 275.503H549.103C549.378 268.658 549.79 261.354 550.294 253.912C548.828 253.407 547.82 252.763 546.766 251.385C546.812 259.976 546.812 268.199 546.812 275.503H544.612C544.658 267.004 544.704 257.174 544.612 247.021C543.467 243.392 543.329 239.349 543.559 237.328C540.122 236.363 535.906 233.791 534.257 232.78C536.869 242.749 540.168 257.587 542.321 275.503H540.809C538.701 258.23 535.586 243.897 533.019 234.066C532.607 235.215 531.966 236.685 530.957 237.695C529.125 239.579 525.596 233.147 525.596 229.932C525.596 226.716 529.4 229.794 529.4 228.002C529.4 226.211 528.85 227.084 523.992 227.084C519.135 227.084 517.394 216.793 517.394 216.793C517.394 216.793 524.726 217.712 524.726 216.288C524.726 214.864 518.906 215.645 515.149 214.634C511.437 213.623 509.329 205.263 509.329 205.263C509.329 205.263 520.006 208.478 520.006 207.054C520.006 205.63 511.758 204.298 510.2 202.69C508.642 201.082 508.092 193.824 508.092 193.824C508.092 193.824 515.195 200.623 516.294 200.623C517.394 200.623 508.78 193.089 509.604 192.262C510.429 191.435 510.704 187.898 510.704 187.898C512.262 189.506 514.782 187.392 516.432 189.092C518.036 190.746 520.968 203.517 522.16 204.757C523.351 205.998 518.86 194.559 520.922 192.446C522.984 190.332 528.529 195.707 529.629 196.81C530.728 197.958 527.017 210.362 528.529 211.878C530.041 213.44 529.72 200.99 530.912 199.75C532.103 198.51 535.265 201.679 536.181 205.354C537.098 209.03 528.987 215.277 531.324 217.666C533.661 220.055 535.815 210.913 537.831 208.8C539.343 207.238 542.505 210.316 544.017 213.026C543.65 201.955 543.1 192.078 542.276 185.049C540.626 189.689 532.057 195.202 526.009 188.862C524.726 189.919 523.122 190.378 521.152 189.643C514.003 186.979 513.316 185.141 514.828 184.406C516.34 183.671 530.316 175.54 528.621 174.667C526.925 173.794 514.37 183.947 511.941 182.753C509.558 181.512 505.847 176.505 506.305 176.275C506.718 176.045 524.13 169.568 522.16 168.603C520.235 167.593 506.809 177.194 504.243 172.968C501.723 168.741 501.585 166.169 501.86 165.158C502.089 164.147 517.119 162.999 516.615 161.85C516.111 160.748 501.952 163.045 500.852 160.61C499.753 158.175 499.478 154.684 500.715 154.087C501.952 153.489 509.238 155.74 508.688 154.546C508.138 153.352 500.944 152.938 501.219 151.79C501.494 150.641 502.273 144.256 501.769 143.107C501.769 143.107 506.855 139.616 508.092 137.916C509.329 136.17 510.658 136.814 511.071 137.732C511.483 138.651 514.828 152.892 515.195 151.284C515.561 149.677 511.346 136.997 512.216 136.584C513.087 136.17 517.532 132.633 518.906 134.7C520.281 136.768 520.785 155.603 522.343 155.786C523.901 155.924 520.143 133.919 520.143 133.919C520.143 133.919 525.367 134.241 527.246 136.63C529.125 139.019 527.154 161.161 528.758 161.023C530.362 160.886 529.583 137.778 529.583 137.778C529.583 137.778 536.09 140.902 536.456 144.118C536.869 147.334 532.378 161.85 533.798 162.585C535.219 163.32 536.731 148.344 536.731 148.344C536.731 148.344 542.367 150.963 542.688 155.327C543.009 159.737 537.556 165.204 538.152 166.582C538.793 167.96 543.65 162.08 544.475 158.497C545.3 154.914 551.486 173.289 546.262 175.816C544.658 176.597 543.467 176.872 542.596 176.872C545.208 183.763 545.987 211.189 546.17 218.631C547.179 217.666 547.82 216.931 547.82 216.931C549.195 217.482 550.02 219.274 550.386 221.617C551.073 220.744 551.532 220.239 551.532 220.239C551.532 220.239 552.082 222.168 552.952 224.787C553.823 217.804 553.731 219.687 553.731 218.171C553.594 217.299 553.594 216.564 553.777 216.058C554.464 171.543 554.281 174.392 554.51 174.116C554.418 171.038 553.41 144.026 549.79 136.768C546.079 129.004 543.604 120 543.604 120C543.604 120 546.904 125.329 549.836 128.361C552.769 131.393 555.289 131.944 555.289 134.655C555.289 137.365 551.44 146.093 553.914 144.807C556.389 143.521 555.793 138.238 556.664 138.238C557.534 138.238 561.154 150.32 561.154 150.963C561.154 151.606 554.922 156.613 556.572 158.267C558.176 159.921 560.788 151.836 561.796 152.892C562.804 153.903 563.033 162.769 563.033 165.112C563.033 167.409 558.267 166.215 560.421 168.466C562.575 170.717 563.033 179.675 563.033 183.809C568.211 171.589 572.839 168.42 580.445 163.826C578.796 163.826 576.688 163.366 574.947 161.575C571.51 158.037 569.952 144.899 577.834 141.316C577.467 139.386 577.742 137.411 579.117 135.573C584.157 129.004 585.898 129.234 585.898 131.255C585.898 133.276 586.998 152.754 588.419 151.284C589.793 149.86 586.448 130.979 588.419 128.958C590.389 126.937 595.979 125.375 595.979 125.972C595.979 126.569 594.375 148.896 595.979 147.242C597.583 145.588 595.063 126.064 599.507 125.375C603.998 124.686 606.106 125.834 606.885 126.615C607.618 127.396 602.578 144.485 603.723 144.485C604.823 144.485 608.58 127.764 611.009 127.764C613.437 127.764 616.416 129.188 616.416 130.842C616.416 132.495 611.65 139.432 612.888 139.432C614.079 139.432 617.287 131.714 618.111 132.587C618.936 133.46 623.885 137.503 624.985 137.503C624.985 137.503 625.809 144.807 626.772 147.058C627.734 149.309 626.68 150.412 625.764 150.412C624.847 150.412 611.834 147.012 612.979 148.206C614.079 149.309 626.13 151.009 626.13 152.157C626.13 153.306 627.23 159.967 625.03 160.426C622.785 160.886 607.16 152.065 606.381 153.673C605.648 155.327 625.214 162.172 625.214 162.172C625.214 162.172 622.877 167.776 620.173 168.603C617.47 169.476 600.103 156.292 599.553 158.083C599.003 159.921 618.295 170.625 618.295 170.625C618.295 170.625 613.163 176.229 610.367 175.035C607.572 173.886 597.445 161.713 596.3 162.907C595.154 164.101 606.839 173.197 606.839 173.197C606.839 173.197 602.44 178.113 598.729 176.275C595.017 174.438 592.68 165.663 591.259 165.663C589.885 165.663 592.772 173.978 595.338 176.689C597.95 179.353 580.445 177.056 580.445 170.027C580.445 167.041 580.949 165.388 581.499 164.469C578.383 166.398 575.038 168.19 572.106 171.314C564.545 179.169 559.688 194.605 556.572 212.521C557.672 211.74 558.497 211.832 558.497 212.797C558.497 214.45 562.391 231.861 564.316 229.886C566.241 227.91 558.863 212.016 561.475 209.351C563.033 207.743 566.607 205.676 569.448 204.619C570.685 203.379 574.397 202.047 573.251 198.372C572.106 194.697 578.109 191.435 578.109 191.435C578.109 191.435 581.82 197.04 585.211 197.04C588.556 197.04 580.904 193.364 580.904 191.251C580.904 189.138 592.451 185.279 592.451 185.279C592.451 185.279 589.197 192.308 589.243 195.202C590.618 194.191 592.084 193.273 593.367 192.538C594.467 189.368 595.017 186.29 596.758 185.463C598.82 184.498 600.607 182.936 601.844 184.314C599.966 188.541 602.119 193.732 603.998 193.043C604.915 190.7 607.893 181.053 608.489 181.053C609.176 181.053 610.459 181.972 612.613 182.477C611.421 185.049 609.909 189.092 612.2 189.092C614.491 189.092 616.874 185.095 618.203 182.523C623.198 181.65 622.694 182.569 627.047 187.025C631.491 191.619 634.241 196.075 634.241 196.075ZM583.195 151.698C583.653 151.238 580.445 148.023 578.704 144.118C578.704 144.485 578.704 144.899 578.613 145.358C578.154 148.023 582.37 152.525 583.195 151.698ZM531.462 179.675C530.912 179.399 529.949 183.763 527.842 186.887C528.116 186.749 528.437 186.611 528.804 186.52C531.003 186.014 532.424 180.18 531.462 179.675ZM544.292 220.468C544.246 219.32 544.246 218.171 544.2 217.069C542.092 219.55 536.319 222.811 537.693 224.235C538.656 225.2 541.772 222.765 544.292 220.468ZM551.394 240.727C550.524 239.625 549.241 238.293 548.095 236.639C547.453 237.466 547.041 237.512 546.674 237.558C546.674 238.063 546.674 238.522 546.674 239.028C548.095 241.003 549.79 243.254 551.119 243.438C551.257 242.565 551.303 241.646 551.394 240.727ZM554.968 212.016C556.389 203.884 558.222 196.213 561.475 187.576C560.421 188.219 559.046 187.99 557.763 186.657C555.564 184.406 556.48 176.183 555.06 174.575C555.197 177.975 555.106 193.318 554.968 212.016ZM555.106 222.398C554.831 224.465 554.877 223.225 554.831 229.702C556.572 234.434 558.588 238.982 559.917 238.43C561.658 237.604 557.351 228.967 555.106 222.398ZM575.588 207.605C574.855 207.376 574.076 207.146 573.389 206.916C573.022 211.97 571.327 222.765 574.58 222.765C577.467 222.719 575.542 213.026 575.588 207.605ZM588.923 204.344C588.006 204.803 587.135 205.217 586.357 205.63C585.028 208.662 582.507 214.726 584.478 214.267C586.677 213.715 587.64 206.595 588.923 204.344Z" fill="url(#paint0_linear)"/>
<path d="M566.744 298.151H533.248C515.744 292.822 515.057 281.245 531.828 275.503H568.211C584.936 281.245 584.248 292.868 566.744 298.151Z" fill="#99BEFF"/>
<path opacity="0.3" d="M604.09 303.204C604.09 309.176 540.717 314 462.545 314C384.372 314 321 309.176 321 303.204C321 297.232 384.372 292.409 462.545 292.409C540.717 292.409 604.09 297.278 604.09 303.204Z" fill="#838BC5"/>
<path d="M475.925 247.986L468.044 257.679L508.459 256.944L503.372 243.851H475.925V247.986Z" fill="#07506F"/>
<path d="M453.563 182.707C453.563 182.707 446.324 186.106 443.666 191.527C442.154 194.651 436.197 204.022 431.431 211.418C435.28 213.807 440.183 218.126 442.887 221.479C447.011 215.92 448.981 209.719 448.981 209.719L453.563 182.707Z" fill="#FB8603"/>
<path d="M510.612 293.741C499.661 289.606 498.378 283.496 494.025 287.861C488.893 293.006 487.61 293.419 477.804 289.147L475.971 299.207C480.507 299.253 484.402 299.116 487.243 298.84C503.831 297.048 513.087 298.886 516.753 298.886C520.327 298.886 521.564 297.921 510.612 293.741Z" fill="#FD5E5A"/>
<path d="M521.701 303.296C510.75 299.162 509.467 293.052 505.114 297.416C499.982 302.561 498.699 302.975 488.893 298.702L487.06 308.763C491.596 308.809 495.491 308.671 498.332 308.395C514.92 306.604 524.176 308.441 527.841 308.441C531.416 308.441 532.653 307.431 521.701 303.296Z" fill="#FC7575"/>
<path d="M455.442 281.429C441.558 281.705 427.078 284.323 427.078 284.323C427.078 284.323 440.184 283.404 455.442 281.429Z" fill="#07506F"/>
<path d="M478.216 285.793C474.184 282.164 464.928 281.245 455.397 281.429C440.138 283.404 427.033 284.323 427.033 284.323C427.033 284.323 441.512 281.705 455.397 281.429C476.291 278.719 501.265 273.987 502.456 266.82C504.426 254.371 472.58 254.647 472.58 254.647C472.58 254.647 417.135 268.934 410.811 279.316C404.488 289.698 413.423 293.327 414.752 294.522C415.852 295.486 453.655 299.116 475.925 299.299L478.353 286.023C478.308 285.885 478.262 285.839 478.216 285.793Z" fill="#07506F"/>
<path d="M488.847 202.047C488.847 183.855 476.75 175.907 476.75 175.907C476.75 175.907 468.96 173.335 461.628 175.862C454.343 178.434 443.712 195.018 445.682 206.181C447.653 217.344 471.022 246.883 472.626 248.307C484.402 247.297 498.653 248.077 510.337 246.975C504.793 235.444 488.847 214.312 488.847 202.047Z" fill="#FFDA88"/>
<path d="M488.847 202.047C488.847 183.855 476.75 175.907 476.75 175.907C476.75 175.907 468.96 173.335 461.628 175.862C454.343 178.434 443.712 195.018 445.682 206.181C447.653 217.344 471.022 246.883 472.626 248.307C484.402 247.297 498.653 248.077 510.337 246.975C504.793 235.444 488.847 214.312 488.847 202.047Z" fill="#FFDA88"/>
<path d="M483.577 183.304C482.386 181.466 481.149 179.95 480.049 178.802C473.909 182.982 463.599 188.633 447.332 193.916C446.644 195.799 446.095 197.729 445.774 199.566C464.744 194.099 476.612 187.898 483.577 183.304Z" fill="#FFF7CF"/>
<path d="M484.723 185.233C477.529 189.965 465.203 196.304 445.453 201.955C445.362 203.425 445.407 204.849 445.637 206.181C445.728 206.687 445.866 207.238 446.049 207.835C467.998 201.404 480.416 194.099 486.647 189.46C486.098 187.944 485.41 186.52 484.723 185.233Z" fill="#FFF7CF"/>
<path d="M488.709 198.509C488.48 196.029 488.022 193.778 487.426 191.71C480.874 196.488 468.456 203.609 446.828 209.902C447.423 211.418 448.248 213.118 449.21 214.91C468.822 209.443 481.286 203.241 488.709 198.509Z" fill="#FFF7CF"/>
<path d="M501.906 232.275C494.895 235.582 483.944 239.441 467.723 242.289C468.868 243.805 469.922 245.046 470.701 246.056C488.022 245.413 499.661 242.795 506.809 240.406C505.297 237.879 503.647 235.123 501.906 232.275Z" fill="#FFF7CF"/>
<path d="M476.75 175.907C476.75 175.907 474.779 175.264 471.847 174.943C467.036 177.515 460.941 180.318 453.289 183.074C451.456 185.463 449.761 188.311 448.432 191.251C463.095 186.29 472.58 181.144 478.399 177.24C477.391 176.321 476.75 175.907 476.75 175.907Z" fill="#FFF7CF"/>
<path d="M467.219 174.805C465.431 174.897 463.507 175.219 461.628 175.908C459.979 176.505 458.146 177.791 456.313 179.583C460.437 177.929 464.057 176.367 467.219 174.805Z" fill="#FFF7CF"/>
<path d="M472.534 248.215C472.58 248.261 472.626 248.307 472.672 248.307C484.448 247.297 498.699 248.077 510.383 246.975C509.696 245.597 508.871 244.035 507.955 242.381C500.898 244.816 489.534 247.434 472.534 248.215Z" fill="#FFF7CF"/>
<path d="M497.095 224.006C489.442 227.727 478.308 231.953 462.591 235.49C463.874 237.236 465.065 238.844 466.211 240.314C482.615 237.512 493.704 233.561 500.76 230.299C499.523 228.232 498.286 226.119 497.095 224.006Z" fill="#FFF7CF"/>
<path d="M488.847 202.047C488.847 201.725 488.847 201.404 488.847 201.082C481.24 205.768 469.051 211.648 450.264 216.885C451.318 218.723 452.464 220.606 453.655 222.536C471.434 217.207 482.752 211.327 489.488 206.916C489.076 205.171 488.847 203.563 488.847 202.047Z" fill="#FFF7CF"/>
<path d="M492.65 215.461C491.642 213.302 490.817 211.188 490.176 209.167C483.302 213.577 472.168 219.274 454.938 224.465C455.763 225.705 456.588 226.946 457.413 228.186C474.184 224.143 485.456 219.366 492.65 215.461Z" fill="#FFF7CF"/>
<path d="M495.995 222.03C495.17 220.514 494.346 218.952 493.612 217.482C486.372 221.387 475.238 226.119 458.742 230.115C459.566 231.264 460.391 232.412 461.17 233.561C477.071 230.024 488.297 225.797 495.995 222.03Z" fill="#FFF7CF"/>
<path opacity="0.28" d="M457.413 228.186C460.162 232.229 463.049 236.133 465.523 239.441C468.639 236.133 488.847 208.34 488.847 202.047C488.847 195.799 487.426 190.746 485.502 186.795C479.132 193.87 468.364 212.934 463.69 219.733C464.515 220.193 463.69 219.733 464.607 220.33C461.216 225.292 457.962 228.737 457.962 228.737C457.962 228.737 457.779 228.553 457.413 228.186Z" fill="#F9B406"/>
<path d="M498.928 249.961C482.432 246.102 460.574 262.87 441.925 273.482C429.415 280.602 421.442 291.214 420.984 299.024C420.663 304.077 423.825 307.568 427.353 308.487C434.731 310.417 484.219 282.486 497.141 279.27C510.108 276.1 511.162 262.87 508.459 256.944C508 255.979 507.634 252.028 498.928 249.961Z" fill="#25A9E0"/>
<path d="M446.69 136.63C446.69 136.63 438.213 137.089 437.068 145.266C435.922 153.489 440.917 162.034 440.825 165.755C440.688 169.476 435.968 169.752 436.518 167.822C436.518 167.822 434.548 171.176 438.259 172.554C441.925 173.932 443.666 172.049 443.666 172.049C443.666 172.049 444.949 177.378 452.235 176.137C459.475 174.851 460.345 171.405 460.345 171.405C460.345 171.405 472.076 175.999 474 165.25C470.793 166.444 468.273 164.147 467.769 161.207C467.173 157.899 467.356 155.557 467.081 152.249C466.715 147.609 465.707 141.178 461.674 138.1C458.054 135.297 453.335 133.919 448.615 136.124C448.019 136.492 447.332 136.446 446.69 136.63Z" fill="#54284E"/>
<path d="M471.297 164.79C470.243 164.515 469.052 163.504 468.502 161.575C467.356 156.062 468.593 147.196 464.515 140.672C463.415 138.927 462.041 137.962 461.949 137.87C461.674 137.778 455.717 132.633 448.615 136.216C455.809 133.23 461.216 138.421 461.445 138.513C461.537 138.605 462.682 139.478 463.69 141.178C467.677 147.931 465.936 158.91 467.448 162.677C468.318 165.02 470.472 166.628 473.084 166.169C470.655 175.173 459.979 170.808 459.933 170.808C459.933 170.854 459.887 172.095 458.146 173.427L457.688 173.748C454.847 175.54 451.227 176.137 449.898 176.137C447.515 176.229 445.132 175.127 443.941 172.922C444.628 174.438 445.82 175.54 447.469 176.137C451.456 177.378 458.604 175.724 460.529 172.049C463.186 172.967 466.394 173.335 469.052 172.462C474.229 170.808 474.596 164.836 474.779 164.285C474.138 164.469 472.809 165.296 471.297 164.79Z" fill="#3F1E3B"/>
<path d="M460.483 158.681L465.752 177.01C465.752 177.01 461.216 197.453 457.413 196.259C453.61 195.064 453.701 178.021 453.701 178.021L450.677 166.766L460.483 158.681Z" fill="#FC7575"/>
<path d="M460.483 158.681L461.078 160.702C460.345 164.699 456.679 172.003 452.372 173.105L450.677 166.812L460.483 158.681Z" fill="#FD5E5A"/>
<path d="M445.178 137.686C445.178 137.686 438.992 141.683 439.588 146.69C440.138 151.697 441.146 153.535 441.192 156.843C441.238 160.15 444.078 168.511 449.486 169.797C454.893 171.084 460.162 161.574 460.666 157.67C461.17 153.719 460.666 148.298 458.375 142.693C456.13 137.043 448.707 136.032 445.178 137.686Z" fill="#FC7575"/>
<path d="M446.736 159.967C447.378 158.818 447.195 156.659 446.828 155.327C446.782 156.659 446.782 158.956 446.278 159.875L446.187 160.059C446.278 160.105 447.286 160.886 448.386 160.61C448.019 160.61 447.195 160.334 446.736 159.967Z" fill="#452140"/>
<path d="M452.235 161.299C449.944 162.953 446.232 163.734 446.232 163.734C446.232 163.734 446.599 164.193 447.194 164.652C448.294 164.377 450.356 163.734 452.006 162.723C452.189 161.942 452.235 161.299 452.235 161.299Z" fill="white"/>
<path d="M451.96 162.769C450.31 163.78 448.248 164.423 447.149 164.698C449.394 166.444 451.181 165.525 451.96 162.769Z" fill="#2E162B"/>
<path d="M448.432 150.595C448.432 150.595 448.936 149.814 450.173 149.309C451.41 148.804 454.389 149.814 454.389 149.814C454.389 149.814 451.548 149.585 450.769 149.722C450.036 149.906 448.936 150.825 448.936 150.825L448.432 150.595Z" fill="#5C2C55"/>
<path d="M444.857 151.79C444.857 151.79 444.308 151.33 443.254 151.238C442.246 151.146 440.229 152.433 440.229 152.433C440.229 152.433 442.291 151.698 442.887 151.652C443.483 151.606 444.491 152.065 444.491 152.065L444.857 151.79Z" fill="#5C2C55"/>
<path d="M449.486 153.857C449.852 153.076 450.998 152.478 451.777 152.387C452.876 152.295 453.747 152.938 454.434 152.892C453.518 153.443 452.876 152.433 450.631 153.213C450.219 153.397 449.852 153.581 449.486 153.857Z" fill="#2E162B"/>
<path d="M445.178 155.051C444.537 154.454 443.254 154.316 442.521 154.546C441.467 154.868 440.917 155.786 440.275 156.016C441.329 156.154 441.558 155.005 443.895 154.913C444.353 154.913 444.766 154.913 445.178 155.051Z" fill="#2E162B"/>
<path d="M455.672 155.97C455.947 156.659 455.168 157.67 453.93 158.129C452.693 158.635 451.456 158.451 451.181 157.762C450.906 157.073 451.685 156.062 452.922 155.603C454.159 155.097 455.397 155.281 455.672 155.97Z" fill="#FD5E5A"/>
<path d="M442.52 157.394C442.062 157.348 441.604 157.394 441.237 157.486C441.283 158.129 441.467 158.91 441.65 159.783C441.833 159.829 442.062 159.875 442.246 159.875C443.437 159.967 444.491 159.507 444.537 158.818C444.628 158.175 443.712 157.486 442.52 157.394Z" fill="#FD5E5A"/>
<path d="M445.27 139.248C446.095 136.124 454.709 130.749 463.415 147.104C471.938 164.101 461.628 166.811 459.154 162.907C458.879 162.539 458.787 161.896 459.017 161.391C458.008 160.564 456.267 157.624 457.734 155.786C458.375 154.959 459.154 154.638 459.383 154.5C459.383 154.5 457.321 155.924 459.337 157.348C460.987 158.497 462.27 155.373 462.407 154.27C463.507 146.047 442.521 147.977 445.27 139.248Z" fill="#6D3465"/>
<path d="M447.469 136.676L445.728 142.418C445.728 142.418 439.45 144.669 440.138 150.182C440.413 152.295 440.871 153.581 440.871 153.581C440.871 153.581 439.954 153.214 438.351 150.09C436.701 146.828 437.801 140.994 440.733 139.11C443.62 137.227 447.469 136.676 447.469 136.676Z" fill="#6D3465"/>
<path d="M445.27 139.248C444.124 141.407 444.628 144.256 449.073 146.415C452.647 148.16 457.55 148.758 460.575 151.376C462.224 152.479 462.453 157.164 460.254 157.119C458.696 157.256 458.467 155.419 459.429 154.454C458.788 154.776 458.329 155.557 458.421 156.383C458.421 158.083 461.399 158.772 462.545 156.981C463.416 155.694 463.553 153.719 463.141 152.203C461.033 144.577 443.712 147.701 445.27 139.248Z" fill="#914587"/>
<path d="M459.704 151.652C459.704 151.652 459.841 149.263 461.537 150.09C464.149 151.33 462.27 156.797 460.712 157.072C459.154 157.348 459.704 151.652 459.704 151.652Z" fill="#FC7575"/>
<path d="M460.07 152.387C460.07 152.387 460.116 151.468 460.666 151.376C461.262 151.284 461.491 155.51 460.712 155.51C459.979 155.556 460.07 152.387 460.07 152.387Z" fill="#FD5E5A"/>
<path d="M420.847 299.713C419.014 322.361 490.726 311.106 490.726 311.106V296.727C490.726 296.727 457.046 290.387 445.453 289.79C435.281 289.285 421.351 293.649 420.847 299.713Z" fill="#51BAE6"/>
<path d="M428.362 181.145C428.362 181.145 433.035 184.498 433.035 187.117C433.035 189.735 431.065 190.93 429.874 187.99C428.682 185.05 427.583 185.693 425.062 184.177C422.542 182.661 421.397 180.088 421.397 180.088L428.362 181.145Z" fill="#58391B"/>
<path d="M415.165 208.524C415.165 208.524 417.364 213.118 415.302 215.645C413.286 218.125 414.202 218.815 418.464 221.433C422.725 224.098 421.58 226.44 421.58 226.44C421.58 226.44 413.469 223.133 411.774 222.444C410.078 221.755 408.704 219.504 408.704 219.504L407.375 210.867L415.165 208.524Z" fill="#58391B"/>
<path d="M430.698 170.349C430.698 170.349 431.431 166.858 429.049 164.469C426.666 162.08 413.698 161.023 415.898 163.596C418.097 166.169 426.987 166.398 427.674 167.73C428.361 169.063 430.698 170.349 430.698 170.349Z" fill="#754C24"/>
<path d="M438.992 207.238C435.922 212.291 430.103 219.32 430.103 219.32C430.103 219.32 412.965 196.121 411.132 194.237C410.949 194.053 410.766 193.778 410.628 193.456C409.299 190.608 409.299 183.166 409.299 183.166C409.299 183.166 408.979 176.689 406.825 176.689C404.671 176.689 409.299 183.166 407.421 185.555C405.542 187.944 404.213 186.841 403.847 185.325C403.48 183.855 405.679 176.505 404.167 176.505C402.655 176.505 402.38 185.784 401.372 184.774C400.41 183.809 403.113 174.3 401.785 174.3C400.41 174.3 398.806 184.498 398.806 186.841C398.806 189.23 405.679 196.35 408.016 198.739C410.353 201.128 423.825 236.547 431.844 234.204C436.564 232.826 440.184 221.525 445.453 214.083C443.025 210.959 442.383 209.443 438.992 207.238Z" fill="#FD5E5A"/>
<path d="M429.415 169.338C429.415 169.338 433.035 170.165 435.143 173.151C437.297 176.137 438.626 178.894 438.626 178.894C438.626 178.894 432.44 185.187 428.087 182.753C423.779 180.272 421.809 180.18 421.305 181.834C420.801 183.442 422.817 198.923 421.305 202.966C419.793 207.008 412.095 216.931 404.626 216.242C397.157 215.553 396.469 206.687 397.202 201.633C397.936 196.58 399.86 189.506 400.731 185.325C401.601 181.145 401.739 177.561 408.612 173.978C415.531 170.303 423.963 167.593 429.415 169.338Z" fill="#754C24"/>
<path d="M421.305 181.788C420.984 184.085 423.183 197.775 421.717 202.782C420.663 206.089 415.806 212.107 410.766 214.634C415.073 211.924 421.213 205.263 421.442 200.347C421.717 196.994 421.213 184.039 421.213 184.085C421.167 183.35 421.121 182.569 421.305 181.788Z" fill="url(#paint1_linear)"/>
<path d="M428.316 170.625C428.316 170.625 429.049 166.674 425.887 163.504C422.725 160.334 418.051 158.451 416.218 159.875C414.431 161.299 421.03 164.377 421.442 165.847C421.855 167.317 424.696 170.211 428.316 170.625Z" fill="#C69C6D"/>
<path d="M428.316 170.625C428.453 167.271 426.987 164.79 424.467 162.723C422.496 161.115 418.372 158.589 416.219 159.875C418.922 157.394 430.103 162.769 428.316 170.625Z" fill="url(#paint2_linear)"/>
<path d="M426.208 169.108C426.208 169.108 424.833 164.055 422.863 162.631C420.892 161.207 416.723 159.737 417.135 161.161C417.547 162.539 423.55 163.917 424.054 165.893C424.65 167.868 426.208 169.108 426.208 169.108Z" fill="#FC7575"/>
<path d="M410.17 201.909C410.17 201.909 412.599 200.163 417.502 204.344C422.405 208.524 419.197 210.867 420.022 212.429C420.847 213.991 424.146 212.107 426.3 209.948C428.407 207.835 431.661 209.075 431.89 210.453C431.89 210.453 428.774 214.083 426.758 215.415C424.787 216.793 418.876 218.355 418.876 218.355C418.876 218.355 414.661 217.115 414.111 215.185C413.607 213.256 411.545 215.185 409.025 215.415C406.504 215.736 399.906 206.457 410.17 201.909Z" fill="#754C24"/>
<path d="M409.024 215.461C406.596 215.507 404.9 212.153 404.488 210.178C403.709 206.457 406.183 203.425 409.345 201.863C410.032 201.541 410.766 201.266 411.499 201.22C415.073 200.99 419.976 205.033 420.342 208.57C420.48 209.856 420.205 210.637 419.838 211.878C419.838 210.408 420.251 209.627 419.93 208.294C419.518 206.457 418.097 205.033 416.585 203.884C415.394 203.011 414.065 202.276 412.644 202.047C409.162 201.495 405.175 204.987 404.854 208.432C404.625 210.959 406.138 213.899 407.97 215.093C408.291 215.323 408.658 215.461 409.024 215.461Z" fill="#3B2612"/>
<path d="M397.523 209.397C397.523 209.397 395.599 208.341 393.124 210.775C390.696 213.21 396.79 217.804 398.898 214.91C401.051 212.016 397.523 209.397 397.523 209.397Z" fill="#754C24"/>
<path d="M433.631 175.127C433.631 175.816 433.265 176.367 432.806 176.367C432.348 176.367 431.981 175.816 431.981 175.127C431.981 174.438 432.348 173.886 432.806 173.886C433.265 173.886 433.631 174.438 433.631 175.127Z" fill="black"/>
<path d="M417.135 169.706C417.135 169.706 420.48 179.721 424.879 181.191L423.183 182.109L415.852 170.395L417.135 169.706Z" fill="#2846A6"/>
<path d="M413.011 184.728C412.37 183.809 413.24 181.972 413.24 181.88C413.149 181.926 412.874 180.731 410.353 183.304C410.124 181.512 410.949 179.813 410.995 179.721C410.491 179.95 410.72 178.986 406.642 181.972C406.733 179.032 410.399 177.607 410.445 177.516C409.849 177.424 410.949 176.597 405.221 176.918C406.642 175.77 410.445 175.311 412.232 175.127C404.855 175.035 404.213 177.424 404.076 177.47C404.167 177.47 407.467 177.378 408.979 177.562C404.855 180.088 406.092 183.166 406 183.35C406.092 183.304 408.612 181.283 409.987 180.594C409.299 182.982 410.078 184.223 410.078 184.452C410.17 184.36 411.911 182.155 412.736 182.064C411.957 184.406 413.011 184.958 413.011 185.05C413.057 184.958 414.386 183.212 414.981 183.12C414.432 183.166 413.378 184.36 413.011 184.728Z" fill="#58391B"/>
<path d="M407.604 192.951C407.329 190.011 407.237 189.368 407.191 189.046C406.917 189.276 406.504 188.219 403.892 192.262C403.571 190.149 404.809 187.438 404.854 187.346C404.625 187.438 403.709 186.887 400.868 189.23C400.914 187.714 401.922 185.509 402.609 184.177C399.86 188.265 400.501 190.057 400.456 190.195C400.547 190.149 402.38 188.587 403.846 188.127C402.334 192.124 403.663 193.778 403.663 194.053C403.709 193.962 405.542 190.792 406.642 189.919C406.825 191.251 407.008 192.629 407.237 194.053C407.695 193.502 410.307 190.746 411.911 188.816C411.27 189.414 409.712 190.884 407.604 192.951Z" fill="#58391B"/>
<path d="M423.229 173.611C422.679 173.473 421.9 173.335 421.075 173.197C421.809 172.83 423.046 172.646 423.367 172.554C423.275 172.508 421.442 171.589 421.534 171.681C422.496 171.314 423.229 171.543 423.504 171.543C423.367 171.36 422.175 169.844 422.221 169.89C423 169.981 423.779 170.303 424.466 170.716C424.1 170.395 423.687 170.119 423.275 169.936C422.404 169.476 421.717 169.522 421.534 169.476C421.58 169.568 422.588 171.038 422.542 170.946C421.213 170.946 420.571 171.543 420.342 171.635C420.434 171.681 421.854 172.37 421.763 172.324C419.838 172.922 419.792 173.611 419.792 173.748C420.022 173.794 421.03 173.611 422.542 173.794C422.496 173.84 421.763 174.759 421.809 174.667C421.854 174.667 423.733 174.667 424.329 174.621C423.687 174.529 423.046 174.483 422.45 174.392C422.404 174.438 423.275 173.519 423.229 173.611Z" fill="#58391B"/>
<path d="M427.537 178.296C426.803 178.204 425.795 178.021 424.787 177.883C425.704 177.377 427.262 177.056 427.674 176.918C427.537 176.872 425.108 175.816 425.291 175.907C426.529 175.402 427.445 175.632 427.812 175.632C427.628 175.402 425.979 173.519 426.07 173.611C427.078 173.702 428.086 174.024 429.003 174.529C428.545 174.116 427.995 173.84 427.399 173.565C426.254 173.059 425.383 173.151 425.108 173.105C425.154 173.197 426.574 175.035 426.483 174.943C424.741 175.035 423.871 175.678 423.688 175.999C423.825 176.045 425.658 176.872 425.566 176.826C423.184 177.699 423.229 177.929 422.863 178.25C423.184 178.296 424.65 178.572 426.62 178.71C426.574 178.802 425.658 179.996 425.704 179.904C425.795 179.904 428.178 179.766 428.911 179.674C428.086 179.583 427.262 179.583 426.483 179.491C426.574 179.445 427.628 178.25 427.537 178.296Z" fill="#58391B"/>
<path d="M461.812 214.955C458.421 220.009 454.022 223.638 454.022 223.638C454.022 223.638 431.34 199.29 429.278 197.407C429.049 197.223 428.865 196.947 428.728 196.626C427.262 193.778 427.262 186.336 427.262 186.336C427.262 186.336 426.895 179.858 424.558 179.858C422.175 179.858 427.262 186.336 425.2 188.724C423.138 191.113 421.671 190.011 421.259 188.495C420.846 187.025 423.275 179.674 421.58 179.674C419.884 179.674 419.609 188.954 418.51 187.943C417.456 186.979 420.434 177.469 418.922 177.469C417.41 177.469 415.623 187.668 415.623 190.011C415.623 192.399 423.229 199.52 425.795 201.909C428.361 204.298 443.254 242.932 452.051 240.543C457.275 239.165 465.431 229.748 471.205 222.306C468.593 219.228 465.569 217.161 461.812 214.955Z" fill="#FC7575"/>
<path d="M461.812 214.956C461.353 215.599 460.941 216.242 460.483 216.793C462.866 218.723 467.035 222.306 469.006 225.2C469.785 224.235 470.564 223.271 471.297 222.306C468.593 219.228 465.569 217.161 461.812 214.956Z" fill="#FD5E5A"/>
<path d="M476.75 175.908C472.076 177.148 463.874 207.146 458.65 214.542C462.911 216.931 468.273 221.249 471.251 224.603C475.787 219.044 488.434 205.4 488.618 197.269C488.709 191.665 482.615 174.346 476.75 175.908Z" fill="#F9B406"/>
<path d="M476.75 175.908C472.397 177.975 465.752 205.906 458.65 214.542C462.591 207.468 471.159 177.424 476.75 175.908Z" fill="white"/>
<path d="M502.685 256.071C502.364 256.071 502.089 255.841 501.998 255.52C501.906 255.152 502.089 254.739 502.502 254.601C504.106 254.142 504.976 253.912 504.976 253.912C505.343 253.82 505.755 254.05 505.893 254.417C505.984 254.831 505.755 255.198 505.389 255.29C505.389 255.29 504.518 255.52 502.96 255.979C502.823 256.025 502.731 256.071 502.685 256.071Z" fill="#1C7FA8"/>
<path d="M437.434 285.931C438.671 284.875 440.046 283.818 441.512 282.761C441.833 282.532 441.925 282.072 441.695 281.751C441.466 281.429 441.008 281.337 440.687 281.567C439.221 282.624 437.801 283.726 436.563 284.783C436.243 285.058 436.197 285.518 436.472 285.793C436.609 285.977 436.838 286.069 437.022 286.069C437.159 286.115 437.297 286.069 437.434 285.931ZM445.774 279.913C447.148 279.04 448.66 278.122 450.173 277.249C450.539 277.065 450.631 276.606 450.448 276.238C450.264 275.871 449.806 275.779 449.439 275.962C447.881 276.881 446.369 277.754 444.949 278.673C444.628 278.903 444.491 279.362 444.72 279.684C444.857 279.913 445.086 280.005 445.315 280.005C445.499 280.005 445.636 279.959 445.774 279.913ZM454.709 274.722C456.175 273.941 457.733 273.16 459.337 272.379C459.704 272.195 459.841 271.782 459.658 271.415C459.475 271.047 459.062 270.909 458.696 271.093C457.092 271.874 455.534 272.655 454.022 273.436C453.655 273.62 453.518 274.079 453.701 274.446C453.838 274.676 454.067 274.86 454.342 274.86C454.48 274.814 454.572 274.768 454.709 274.722ZM463.965 270.174C465.477 269.485 467.081 268.796 468.685 268.107C469.051 267.969 469.235 267.51 469.051 267.142C468.914 266.775 468.456 266.591 468.089 266.775C466.485 267.464 464.882 268.199 463.324 268.888C462.957 269.072 462.774 269.485 462.957 269.853C463.094 270.128 463.324 270.266 463.644 270.266C463.782 270.266 463.873 270.22 463.965 270.174ZM473.496 266.086C475.054 265.442 476.658 264.845 478.307 264.202C478.674 264.064 478.857 263.651 478.72 263.237C478.582 262.87 478.17 262.686 477.758 262.824C476.108 263.467 474.458 264.11 472.9 264.707C472.534 264.845 472.351 265.305 472.488 265.672C472.625 265.948 472.855 266.132 473.175 266.132C473.313 266.177 473.404 266.132 473.496 266.086ZM483.165 262.41C484.86 261.813 486.464 261.216 488.068 260.711C488.434 260.573 488.663 260.159 488.526 259.792C488.388 259.424 487.976 259.195 487.609 259.333C486.051 259.884 484.402 260.435 482.706 261.078C482.34 261.216 482.111 261.63 482.248 261.997C482.34 262.319 482.615 262.502 482.935 262.502C483.027 262.456 483.073 262.456 483.165 262.41ZM492.971 259.057C494.758 258.46 496.453 257.954 497.919 257.495C498.286 257.357 498.515 256.99 498.423 256.576C498.286 256.209 497.919 255.979 497.507 256.071C496.041 256.53 494.345 257.036 492.558 257.633C492.192 257.771 491.962 258.184 492.1 258.552C492.192 258.873 492.466 259.057 492.787 259.057C492.833 259.103 492.879 259.103 492.971 259.057Z" fill="#1C7FA8"/>
<path d="M431.477 291.49C431.294 291.49 431.157 291.444 431.019 291.306C430.699 291.031 430.699 290.571 430.928 290.296C431.477 289.652 432.073 289.009 432.669 288.366C432.944 288.09 433.402 288.09 433.723 288.366C433.998 288.642 433.998 289.101 433.723 289.423C433.127 290.066 432.531 290.663 432.027 291.26C431.89 291.398 431.661 291.49 431.477 291.49Z" fill="#1C7FA8"/>
<path d="M471.618 306.282C472.03 306.282 472.351 305.915 472.351 305.547C472.351 305.134 472.03 304.858 471.618 304.812C469.922 304.858 468.227 304.858 466.531 304.812C466.119 304.812 465.798 305.134 465.798 305.547C465.798 305.961 466.119 306.282 466.531 306.282C467.448 306.282 468.319 306.328 469.235 306.328C469.968 306.328 470.793 306.328 471.618 306.282ZM462.087 305.363C462.133 304.95 461.812 304.628 461.399 304.582C459.75 304.49 458.054 304.353 456.313 304.169C455.901 304.123 455.534 304.445 455.534 304.812C455.488 305.225 455.763 305.593 456.176 305.593C457.917 305.777 459.658 305.915 461.308 306.006H461.354C461.72 306.052 462.041 305.777 462.087 305.363ZM476.75 306.006C478.537 305.869 480.278 305.639 481.882 305.363C482.294 305.317 482.569 304.904 482.478 304.536C482.432 304.123 482.019 303.847 481.653 303.939C480.049 304.215 478.354 304.399 476.612 304.536C476.2 304.582 475.925 304.904 475.925 305.317C475.971 305.685 476.292 306.006 476.658 306.006C476.704 306.006 476.75 306.006 476.75 306.006ZM451.914 304.399C451.96 303.985 451.685 303.618 451.273 303.572C449.623 303.342 447.928 303.112 446.232 302.837C445.82 302.791 445.453 303.066 445.407 303.434C445.362 303.847 445.637 304.215 446.003 304.261C447.699 304.536 449.44 304.812 451.089 304.996C451.135 304.996 451.135 304.996 451.181 304.996C451.548 305.042 451.868 304.766 451.914 304.399ZM486.968 304.307C487.426 304.169 487.839 304.077 488.297 303.939C488.664 303.801 488.893 303.434 488.801 303.02C488.664 302.653 488.297 302.423 487.885 302.515C487.472 302.653 487.014 302.745 486.602 302.883C486.189 302.974 485.96 303.388 486.098 303.801C486.189 304.123 486.464 304.353 486.785 304.353C486.831 304.307 486.922 304.307 486.968 304.307ZM441.787 302.791C441.879 302.377 441.604 302.01 441.192 301.918C439.542 301.596 437.847 301.275 436.197 300.907C435.785 300.815 435.418 301.091 435.327 301.459C435.235 301.872 435.51 302.239 435.876 302.331C437.526 302.699 439.221 303.02 440.917 303.342C440.963 303.342 441.009 303.342 441.054 303.342C441.421 303.388 441.742 303.158 441.787 302.791ZM431.752 300.678C431.844 300.264 431.615 299.897 431.203 299.805C428.132 299.07 426.3 298.518 426.254 298.518C425.887 298.427 425.475 298.61 425.337 299.024C425.246 299.391 425.429 299.805 425.841 299.943C425.841 299.943 427.72 300.494 430.836 301.229C430.882 301.229 430.973 301.229 431.019 301.229C431.386 301.229 431.661 301.045 431.752 300.678Z" fill="#7CCBEC"/>
<path d="M421.855 177.056C421.855 177.056 424.146 181.328 426.574 182.615C429.003 183.901 430.698 186.474 429.874 189.046C429.049 191.619 425.429 190.286 424.512 188.173C423.596 186.06 420.205 184.866 417.456 183.763C414.706 182.661 413.561 174.851 417.685 175.173C421.809 175.402 421.855 177.056 421.855 177.056Z" fill="#754C24"/>
<path d="M426.574 182.615C424.146 181.328 422.313 178.848 421.855 177.056C421.58 175.953 421.809 175.402 417.685 175.127C416.677 175.035 416.035 175.448 415.577 176.091C415.944 175.862 416.448 175.724 416.998 175.77C421.122 176.045 420.847 176.597 421.167 177.699C421.626 179.445 423.459 181.971 425.887 183.258C428.316 184.544 430.011 187.117 429.186 189.689C429.141 189.873 429.049 190.057 428.957 190.195C429.37 189.965 429.69 189.597 429.874 189.046C430.698 186.428 429.003 183.901 426.574 182.615Z" fill="#3B2612"/>
<path d="M438.351 179.261C438.351 179.261 438.03 182.017 435.83 182.798C434.96 183.12 429.965 182.706 431.844 179.858C433.723 177.01 437.892 178.067 437.892 178.067L438.351 179.261Z" fill="#58391B"/>
<path d="M438.351 179.261C438.351 179.261 438.763 179.078 438.763 178.71C438.488 178.205 438.167 178.021 438.167 178.021C438.167 178.021 437.801 178.113 437.755 178.756C438.076 179.399 438.351 179.261 438.351 179.261Z" fill="#FC7575"/>
<path d="M60.9909 65.4182H66.1673V76.3284L73.8389 65.4182H78.7764V84H73.6V73.1164L65.9549 84H60.9909V65.4182ZM69.8571 64.3033C67.9812 64.3033 66.6008 63.9405 65.716 63.2149C64.8488 62.4893 64.4153 61.4098 64.4153 59.9764H67.9458C67.9635 60.5958 68.1228 61.0559 68.4236 61.3567C68.7245 61.6576 69.2023 61.808 69.8571 61.808C70.5119 61.808 70.9985 61.6576 71.3171 61.3567C71.6356 61.0559 71.8038 60.5958 71.8215 59.9764H75.352C75.352 61.4098 74.9096 62.4893 74.0247 63.2149C73.1399 63.9405 71.7507 64.3033 69.8571 64.3033ZM99.4901 79.9651V86.9731H94.8181V84H85.7661V86.9731H81.0676V79.9651H81.5985C82.4656 79.9474 83.0673 79.4784 83.4036 78.5582C83.7398 77.6202 83.9433 76.3107 84.0141 74.6295L84.1999 69.6124H97.4992V79.9651H99.4901ZM88.5534 75.0011C88.5003 76.293 88.403 77.3282 88.2614 78.1069C88.1198 78.8856 87.8544 79.505 87.465 79.9651H92.4556V73.6207H88.6065L88.5534 75.0011ZM116.231 76.8327C116.231 76.8681 116.205 77.284 116.152 78.0804H105.693C105.905 78.8236 106.312 79.3988 106.914 79.8058C107.533 80.1952 108.303 80.3898 109.223 80.3898C109.913 80.3898 110.506 80.2925 111.002 80.0978C111.515 79.9032 112.028 79.5846 112.541 79.1422L115.196 81.9029C113.798 83.4602 111.754 84.2389 109.064 84.2389C107.383 84.2389 105.905 83.9204 104.631 83.2833C103.357 82.6462 102.366 81.7613 101.658 80.6287C100.968 79.4961 100.622 78.2131 100.622 76.7796C100.622 75.3639 100.959 74.0985 101.631 72.9836C102.321 71.851 103.268 70.9662 104.472 70.3291C105.675 69.692 107.029 69.3735 108.533 69.3735C109.966 69.3735 111.267 69.6743 112.435 70.276C113.603 70.86 114.523 71.7183 115.196 72.8509C115.886 73.9658 116.231 75.2931 116.231 76.8327ZM108.56 72.9571C107.781 72.9571 107.126 73.1783 106.595 73.6207C106.082 74.0632 105.755 74.6648 105.613 75.4258H111.506C111.365 74.6648 111.028 74.0632 110.497 73.6207C109.984 73.1783 109.338 72.9571 108.56 72.9571ZM141.699 69.6124V84H118.897V69.6124H123.914V79.9651H127.816V69.6124H132.833V79.9651H136.709V69.6124H141.699ZM169.846 79.9651V86.9731H165.174V84H156.122V86.9731H151.423V79.9651H151.954C152.821 79.9474 153.423 79.4784 153.759 78.5582C154.096 77.6202 154.299 76.3107 154.37 74.6295L154.556 69.6124H167.855V79.9651H169.846ZM158.909 75.0011C158.856 76.293 158.759 77.3282 158.617 78.1069C158.476 78.8856 158.21 79.505 157.821 79.9651H162.811V73.6207H158.962L158.909 75.0011ZM179.101 84.2389C177.562 84.2389 176.172 83.9204 174.934 83.2833C173.695 82.6462 172.721 81.7613 172.014 80.6287C171.323 79.4961 170.978 78.2131 170.978 76.7796C170.978 75.3639 171.323 74.0897 172.014 72.9571C172.721 71.8245 173.686 70.9485 174.907 70.3291C176.146 69.692 177.544 69.3735 179.101 69.3735C180.659 69.3735 182.057 69.692 183.295 70.3291C184.534 70.9485 185.499 71.8245 186.189 72.9571C186.879 74.072 187.224 75.3462 187.224 76.7796C187.224 78.2131 186.879 79.4961 186.189 80.6287C185.499 81.7613 184.534 82.6462 183.295 83.2833C182.057 83.9204 180.659 84.2389 179.101 84.2389ZM179.101 80.2305C179.986 80.2305 180.712 79.9297 181.278 79.328C181.844 78.7086 182.127 77.8592 182.127 76.7796C182.127 75.7178 181.844 74.8861 181.278 74.2844C180.712 73.6827 179.986 73.3818 179.101 73.3818C178.216 73.3818 177.491 73.6827 176.924 74.2844C176.358 74.8861 176.075 75.7178 176.075 76.7796C176.075 77.8592 176.358 78.7086 176.924 79.328C177.491 79.9297 178.216 80.2305 179.101 80.2305ZM212.18 69.6124V84H207.163V73.6207H202.332V84H197.315V69.6124H212.18ZM224.669 69.3735C225.978 69.3735 227.164 69.6832 228.226 70.3025C229.305 70.9042 230.155 71.7714 230.774 72.904C231.411 74.0189 231.73 75.3196 231.73 76.8062C231.73 78.2927 231.411 79.6023 230.774 80.7349C230.155 81.8498 229.305 82.717 228.226 83.3364C227.164 83.9381 225.978 84.2389 224.669 84.2389C222.987 84.2389 221.651 83.7345 220.66 82.7258V89.1498H215.617V69.6124H220.421V71.0458C221.359 69.9309 222.775 69.3735 224.669 69.3735ZM223.607 80.2305C224.492 80.2305 225.217 79.9297 225.783 79.328C226.35 78.7086 226.633 77.868 226.633 76.8062C226.633 75.7444 226.35 74.9126 225.783 74.3109C225.217 73.6915 224.492 73.3818 223.607 73.3818C222.722 73.3818 221.996 73.6915 221.43 74.3109C220.864 74.9126 220.581 75.7444 220.581 76.8062C220.581 77.868 220.864 78.7086 221.43 79.328C221.996 79.9297 222.722 80.2305 223.607 80.2305ZM234.152 69.6124H239.169V77.1513L245.195 69.6124H249.84V84H244.796V76.4345L238.824 84H234.152V69.6124ZM266.079 73.6207H261.46V84H256.443V73.6207H251.798V69.6124H266.079V73.6207ZM283.532 69.6124L277.321 84.584C276.595 86.3537 275.71 87.5925 274.666 88.3004C273.622 89.0259 272.348 89.3887 270.844 89.3887C270.083 89.3887 269.313 89.2648 268.534 89.0171C267.773 88.787 267.154 88.4773 266.676 88.088L268.428 84.5575C268.711 84.8229 269.047 85.0264 269.437 85.168C269.844 85.3273 270.251 85.4069 270.658 85.4069C271.136 85.4069 271.525 85.3096 271.826 85.1149C272.144 84.9202 272.41 84.6105 272.622 84.1858L266.464 69.6124H271.64L275.17 78.3989L278.728 69.6124H283.532ZM298.655 69.6124V84H293.612V73.6207H289.975L289.869 75.824C289.798 77.6999 289.612 79.2484 289.311 80.4695C289.01 81.6905 288.515 82.6462 287.825 83.3364C287.135 84.0088 286.188 84.3451 284.984 84.3451C284.365 84.3451 283.551 84.2301 282.542 84L282.755 79.8855C283.073 79.9208 283.285 79.9385 283.392 79.9385C283.94 79.9385 284.356 79.7616 284.639 79.4076C284.922 79.0537 285.117 78.5847 285.223 78.0007C285.329 77.399 285.4 76.6027 285.436 75.6116L285.648 69.6124H298.655ZM308.787 78.8767H307.088V84H302.045V69.6124H307.088V74.9215H308.894L312.424 69.6124H317.76L312.928 76.5142L318.078 84H312.132L308.787 78.8767ZM334.29 69.6124L328.078 84.584C327.353 86.3537 326.468 87.5925 325.424 88.3004C324.38 89.0259 323.106 89.3887 321.601 89.3887C320.84 89.3887 320.071 89.2648 319.292 89.0171C318.531 88.787 317.912 88.4773 317.434 88.088L319.186 84.5575C319.469 84.8229 319.805 85.0264 320.194 85.168C320.601 85.3273 321.008 85.4069 321.416 85.4069C321.893 85.4069 322.283 85.3096 322.584 85.1149C322.902 84.9202 323.168 84.6105 323.38 84.1858L317.221 69.6124H322.398L325.928 78.3989L329.485 69.6124H334.29ZM340.866 77.2309C340.866 76.3461 341.061 75.6205 341.45 75.0542C341.84 74.4702 342.406 73.8331 343.149 73.1429C343.662 72.6651 344.043 72.2669 344.291 71.9484C344.538 71.6121 344.662 71.2582 344.662 70.8865C344.662 70.3733 344.441 69.9663 343.999 69.6655C343.574 69.3469 343.016 69.1876 342.326 69.1876C341.618 69.1876 340.972 69.3558 340.388 69.692C339.822 70.0282 339.362 70.4972 339.008 71.0989L335.053 68.9753C335.778 67.7365 336.805 66.772 338.132 66.0818C339.459 65.3916 341.061 65.0465 342.937 65.0465C345.043 65.0465 346.733 65.489 348.007 66.3738C349.299 67.241 349.945 68.4621 349.945 70.0371C349.945 70.7627 349.821 71.4086 349.573 71.9749C349.325 72.5235 349.025 72.9925 348.671 73.3818C348.334 73.7535 347.892 74.1782 347.343 74.656C346.742 75.1692 346.299 75.6116 346.016 75.9833C345.733 76.3372 345.591 76.7531 345.591 77.2309H340.866ZM343.229 84.2389C342.362 84.2389 341.645 83.9735 341.079 83.4425C340.512 82.8939 340.229 82.2303 340.229 81.4516C340.229 80.6553 340.503 80.0005 341.052 79.4873C341.618 78.9741 342.344 78.7175 343.229 78.7175C344.114 78.7175 344.839 78.9741 345.406 79.4873C345.972 80.0005 346.255 80.6553 346.255 81.4516C346.255 82.2303 345.972 82.8939 345.406 83.4425C344.839 83.9735 344.114 84.2389 343.229 84.2389Z" fill="#187073"/>
<path d="M78.4313 112.457V131.038H73.2284V116.624H66.1673V131.038H60.9909V112.457H78.4313ZM91.1636 116.412C92.4731 116.412 93.6588 116.722 94.7206 117.341C95.8002 117.943 96.6496 118.81 97.269 119.942C97.9061 121.057 98.2246 122.358 98.2246 123.845C98.2246 125.331 97.9061 126.641 97.269 127.773C96.6496 128.888 95.8002 129.755 94.7206 130.375C93.6588 130.976 92.4731 131.277 91.1636 131.277C89.4823 131.277 88.1462 130.773 87.1552 129.764V136.188H82.1116V116.651H86.9163V118.084C87.8542 116.969 89.27 116.412 91.1636 116.412ZM90.1017 127.269C90.9866 127.269 91.7122 126.968 92.2785 126.366C92.8448 125.747 93.1279 124.906 93.1279 123.845C93.1279 122.783 92.8448 121.951 92.2785 121.349C91.7122 120.73 90.9866 120.42 90.1017 120.42C89.2169 120.42 88.4913 120.73 87.925 121.349C87.3587 121.951 87.0756 122.783 87.0756 123.845C87.0756 124.906 87.3587 125.747 87.925 126.366C88.4913 126.968 89.2169 127.269 90.1017 127.269ZM100.647 116.651H105.664V124.19L111.69 116.651H116.335V131.038H111.291V123.473L105.319 131.038H100.647V116.651ZM136.742 127.003V134.011H132.07V131.038H123.018V134.011H118.319V127.003H118.85C119.717 126.986 120.319 126.517 120.655 125.597C120.992 124.659 121.195 123.349 121.266 121.668L121.452 116.651H134.751V127.003H136.742ZM125.805 122.039C125.752 123.331 125.655 124.367 125.513 125.145C125.372 125.924 125.106 126.543 124.717 127.003H129.707V120.659H125.858L125.805 122.039ZM147.802 117.925C149.2 117.925 150.413 118.199 151.439 118.748C152.465 119.279 153.244 120.049 153.775 121.057C154.324 122.048 154.598 123.207 154.598 124.535C154.598 125.897 154.244 127.101 153.536 128.145C152.846 129.171 151.881 129.977 150.643 130.561C149.421 131.127 148.041 131.41 146.501 131.41C143.971 131.41 141.953 130.622 140.449 129.047C138.945 127.472 138.193 125.11 138.193 121.96C138.193 116.049 140.812 112.598 146.05 111.607L153.032 110.28L153.722 114.501L147.669 115.642C146.13 115.925 144.997 116.385 144.272 117.022C143.564 117.642 143.139 118.544 142.997 119.73C144.289 118.527 145.891 117.925 147.802 117.925ZM146.528 127.587C147.431 127.587 148.138 127.295 148.652 126.711C149.183 126.127 149.448 125.402 149.448 124.535C149.448 123.614 149.183 122.898 148.652 122.385C148.121 121.854 147.413 121.588 146.528 121.588C145.625 121.588 144.9 121.854 144.351 122.385C143.82 122.915 143.555 123.641 143.555 124.561C143.555 125.446 143.829 126.172 144.378 126.738C144.926 127.304 145.643 127.587 146.528 127.587ZM162.482 116.412C164.871 116.412 166.694 116.96 167.95 118.058C169.206 119.137 169.835 120.801 169.835 123.048V131.038H165.136V129.18C164.411 130.578 162.995 131.277 160.889 131.277C159.774 131.277 158.81 131.083 157.995 130.693C157.181 130.304 156.562 129.782 156.137 129.127C155.73 128.455 155.527 127.694 155.527 126.844C155.527 125.482 156.049 124.429 157.093 123.685C158.137 122.924 159.747 122.544 161.924 122.544H164.791C164.703 121.022 163.685 120.261 161.738 120.261C161.048 120.261 160.349 120.376 159.641 120.606C158.933 120.818 158.332 121.119 157.836 121.509L156.137 118.084C156.934 117.553 157.898 117.146 159.031 116.863C160.181 116.562 161.331 116.412 162.482 116.412ZM162.296 128.092C162.88 128.092 163.393 127.95 163.835 127.667C164.278 127.384 164.596 126.968 164.791 126.419V125.172H162.614C161.146 125.172 160.411 125.658 160.411 126.632C160.411 127.074 160.579 127.428 160.915 127.694C161.252 127.959 161.712 128.092 162.296 128.092ZM172.869 116.651H177.886V124.19L183.912 116.651H188.557V131.038H183.514V123.473L177.541 131.038H172.869V116.651ZM180.381 115.27C178.682 115.27 177.426 114.916 176.612 114.209C175.816 113.483 175.409 112.377 175.391 110.89H178.656C178.674 111.51 178.815 111.979 179.081 112.297C179.346 112.598 179.771 112.749 180.355 112.749C180.939 112.749 181.372 112.589 181.656 112.271C181.956 111.952 182.107 111.492 182.107 110.89H185.425C185.425 112.377 185.009 113.483 184.177 114.209C183.363 114.916 182.098 115.27 180.381 115.27ZM214.539 116.651V131.038H209.522V120.659H204.691V131.038H199.674V116.651H214.539ZM225.063 131.277C223.524 131.277 222.134 130.959 220.896 130.322C219.657 129.685 218.683 128.8 217.976 127.667C217.285 126.534 216.94 125.251 216.94 123.818C216.94 122.402 217.285 121.128 217.976 119.995C218.683 118.863 219.648 117.987 220.869 117.367C222.108 116.73 223.506 116.412 225.063 116.412C226.621 116.412 228.019 116.73 229.257 117.367C230.496 117.987 231.461 118.863 232.151 119.995C232.841 121.11 233.186 122.385 233.186 123.818C233.186 125.251 232.841 126.534 232.151 127.667C231.461 128.8 230.496 129.685 229.257 130.322C228.019 130.959 226.621 131.277 225.063 131.277ZM225.063 127.269C225.948 127.269 226.674 126.968 227.24 126.366C227.806 125.747 228.089 124.898 228.089 123.818C228.089 122.756 227.806 121.924 227.24 121.323C226.674 120.721 225.948 120.42 225.063 120.42C224.178 120.42 223.453 120.721 222.886 121.323C222.32 121.924 222.037 122.756 222.037 123.818C222.037 124.898 222.32 125.747 222.886 126.366C223.453 126.968 224.178 127.269 225.063 127.269ZM379.559 127.003V134.038H374.887V131.038H362.835V116.651H367.852V127.003H372.524V116.651H377.568V127.003H379.559ZM381.733 116.651H386.777V131.038H381.733V116.651ZM384.255 115.058C383.335 115.058 382.591 114.801 382.025 114.288C381.459 113.775 381.176 113.138 381.176 112.377C381.176 111.616 381.459 110.979 382.025 110.466C382.591 109.952 383.335 109.696 384.255 109.696C385.175 109.696 385.918 109.944 386.485 110.439C387.051 110.917 387.334 111.536 387.334 112.297C387.334 113.094 387.051 113.757 386.485 114.288C385.918 114.801 385.175 115.058 384.255 115.058ZM390.184 116.651H395.201V121.986H400.377V116.651H405.421V131.038H400.377V125.995H395.201V131.038H390.184V116.651ZM408.823 116.651H413.866V131.038H408.823V116.651ZM411.345 115.058C410.424 115.058 409.681 114.801 409.115 114.288C408.549 113.775 408.265 113.138 408.265 112.377C408.265 111.616 408.549 110.979 409.115 110.466C409.681 109.952 410.424 109.696 411.345 109.696C412.265 109.696 413.008 109.944 413.574 110.439C414.141 110.917 414.424 111.536 414.424 112.297C414.424 113.094 414.141 113.757 413.574 114.288C413.008 114.801 412.265 115.058 411.345 115.058ZM416.584 112.457H422.583L421.574 124.269H417.566L416.584 112.457ZM419.583 131.277C418.698 131.277 417.973 131.012 417.407 130.481C416.84 129.932 416.557 129.269 416.557 128.49C416.557 127.694 416.84 127.039 417.407 126.526C417.973 126.012 418.698 125.756 419.583 125.756C420.468 125.756 421.185 126.012 421.733 126.526C422.3 127.039 422.583 127.694 422.583 128.49C422.583 129.269 422.3 129.932 421.733 130.481C421.167 131.012 420.45 131.277 419.583 131.277Z" fill="#187073"/>
<path d="M250.364 131.277C248.825 131.277 247.435 130.959 246.197 130.322C244.958 129.685 243.985 128.8 243.277 127.667C242.587 126.534 242.241 125.251 242.241 123.818C242.241 122.402 242.587 121.128 243.277 119.995C243.985 118.863 244.949 117.987 246.17 117.367C247.409 116.73 248.807 116.412 250.364 116.412C251.922 116.412 253.32 116.73 254.559 117.367C255.797 117.987 256.762 118.863 257.452 119.995C258.142 121.11 258.487 122.385 258.487 123.818C258.487 125.251 258.142 126.534 257.452 127.667C256.762 128.8 255.797 129.685 254.559 130.322C253.32 130.959 251.922 131.277 250.364 131.277ZM250.364 127.269C251.249 127.269 251.975 126.968 252.541 126.366C253.107 125.747 253.391 124.898 253.391 123.818C253.391 122.756 253.107 121.924 252.541 121.323C251.975 120.721 251.249 120.42 250.364 120.42C249.479 120.42 248.754 120.721 248.188 121.323C247.621 121.924 247.338 122.756 247.338 123.818C247.338 124.898 247.621 125.747 248.188 126.366C248.754 126.968 249.479 127.269 250.364 127.269ZM275.718 116.651V131.038H270.701V120.659H265.87V131.038H260.853V116.651H275.718ZM292.003 120.659H287.384V131.038H282.367V120.659H277.721V116.651H292.003V120.659ZM300.474 131.277C298.934 131.277 297.545 130.959 296.306 130.322C295.068 129.685 294.094 128.8 293.386 127.667C292.696 126.534 292.351 125.251 292.351 123.818C292.351 122.402 292.696 121.128 293.386 119.995C294.094 118.863 295.059 117.987 296.28 117.367C297.519 116.73 298.917 116.412 300.474 116.412C302.031 116.412 303.429 116.73 304.668 117.367C305.907 117.987 306.872 118.863 307.562 119.995C308.252 121.11 308.597 122.385 308.597 123.818C308.597 125.251 308.252 126.534 307.562 127.667C306.872 128.8 305.907 129.685 304.668 130.322C303.429 130.959 302.031 131.277 300.474 131.277ZM300.474 127.269C301.359 127.269 302.084 126.968 302.651 126.366C303.217 125.747 303.5 124.898 303.5 123.818C303.5 122.756 303.217 121.924 302.651 121.323C302.084 120.721 301.359 120.42 300.474 120.42C299.589 120.42 298.864 120.721 298.297 121.323C297.731 121.924 297.448 122.756 297.448 123.818C297.448 124.898 297.731 125.747 298.297 126.366C298.864 126.968 299.589 127.269 300.474 127.269ZM322.563 123.499C324.209 124.048 325.031 125.181 325.031 126.897C325.031 128.189 324.527 129.207 323.518 129.95C322.51 130.676 321.023 131.038 319.059 131.038H310.962V116.651H318.687C320.563 116.651 322.014 116.978 323.041 117.633C324.085 118.288 324.607 119.208 324.607 120.394C324.607 121.084 324.43 121.694 324.076 122.225C323.722 122.756 323.218 123.181 322.563 123.499ZM315.475 122.438H318.236C319.404 122.438 319.988 122.004 319.988 121.137C319.988 120.305 319.404 119.889 318.236 119.889H315.475V122.438ZM318.607 127.773C319.829 127.773 320.439 127.331 320.439 126.446C320.439 125.561 319.846 125.119 318.661 125.119H315.475V127.773H318.607ZM327.579 116.651H332.623V131.038H327.579V116.651ZM330.101 115.058C329.181 115.058 328.438 114.801 327.871 114.288C327.305 113.775 327.022 113.138 327.022 112.377C327.022 111.616 327.305 110.979 327.871 110.466C328.438 109.952 329.181 109.696 330.101 109.696C331.021 109.696 331.765 109.944 332.331 110.439C332.897 110.917 333.18 111.536 333.18 112.297C333.18 113.094 332.897 113.757 332.331 114.288C331.765 114.801 331.021 115.058 330.101 115.058ZM336.03 116.651H341.047V124.19L347.073 116.651H351.719V131.038H346.675V123.473L340.702 131.038H336.03V116.651ZM343.543 115.27C341.844 115.27 340.587 114.916 339.773 114.209C338.977 113.483 338.57 112.377 338.552 110.89H341.817C341.835 111.51 341.976 111.979 342.242 112.297C342.507 112.598 342.932 112.749 343.516 112.749C344.1 112.749 344.534 112.589 344.817 112.271C345.118 111.952 345.268 111.492 345.268 110.89H348.586C348.586 112.377 348.17 113.483 347.339 114.209C346.525 114.916 345.259 115.27 343.543 115.27Z" fill="#FFC727"/>
<defs>
<linearGradient id="paint0_linear" x1="563.469" y1="301.158" x2="568.831" y2="119.327" gradientUnits="userSpaceOnUse">
<stop stop-color="#82ACF5"/>
<stop offset="1" stop-color="#F8BDEC"/>
</linearGradient>
<linearGradient id="paint1_linear" x1="410.566" y1="198.228" x2="422.266" y2="198.228" gradientUnits="userSpaceOnUse">
<stop stop-color="#7F0300"/>
<stop offset="1" stop-color="#93170A"/>
</linearGradient>
<linearGradient id="paint2_linear" x1="415.983" y1="164.939" x2="428.759" y2="164.939" gradientUnits="userSpaceOnUse">
<stop stop-color="#7F0300"/>
<stop offset="1" stop-color="#93170A"/>
</linearGradient>
</defs>
</svg>
