<svg width="930" height="259" viewBox="0 0 930 259" fill="none" xmlns="http://www.w3.org/2000/svg">
<rect width="930" height="258.89" rx="4" fill="#FBFBFB"/>
<path d="M870.241 112.075C870.241 112.075 869.37 111.615 867.95 111.064C861.397 109.043 847.605 109.686 842.472 111.891C839.402 113.223 832.3 116.669 826.251 119.701C828.497 119.976 833.858 121.446 835.553 119.655C835.553 119.655 839.219 128.613 837.753 132.426C836.241 136.285 819.745 137.938 822.952 138.857C826.16 139.776 838.853 136.974 838.853 136.974C838.853 136.974 839.952 146.161 836.47 147.953C832.987 149.745 814.75 147.034 816.445 148.872C818.187 150.663 834.912 152.547 836.836 150.526C836.836 150.526 837.203 161.551 831.109 162.745C825.014 163.894 808.381 154.522 809.801 157.095C811.222 159.667 826.664 167.11 831.383 164.307C831.383 164.307 827.168 174.827 823.319 174.827C819.47 174.827 809.985 161.275 808.06 163.251C806.135 165.226 816.4 174.919 822.082 176.114C822.082 176.114 819.836 182.132 812.505 180.34C805.173 178.548 806.41 166.742 804.165 167.753C801.92 168.763 804.028 181.764 811.497 181.764C811.497 181.764 799.308 184.704 796.467 177.905C795.642 175.976 795.276 174.414 795.092 173.128C793.993 178.502 793.351 184.98 793.03 191.503H791.656C792.114 183.556 793.076 175.516 794.955 169.085C794.038 169.59 792.435 170.279 790.51 170.463C790.418 178.135 790.327 185.301 790.281 191.549H788.815C788.952 186.036 789.09 179.146 789.227 170.509C788.86 170.509 788.448 170.463 788.036 170.371C787.577 177.767 787.303 184.888 787.119 191.503H785.103C785.378 184.658 785.79 177.354 786.294 169.912C784.828 169.407 783.82 168.763 782.766 167.385C782.812 175.976 782.812 184.199 782.812 191.503H780.612C780.658 183.004 780.704 173.174 780.612 163.021C779.467 159.392 779.329 155.349 779.559 153.328C776.122 152.363 771.906 149.791 770.257 148.78C772.869 158.749 776.168 173.587 778.321 191.503H776.809C774.701 174.23 771.586 159.897 769.019 150.066C768.607 151.215 767.966 152.685 766.957 153.695C765.125 155.579 761.596 149.147 761.596 145.932C761.596 142.716 765.4 145.794 765.4 144.002C765.4 142.211 764.85 143.084 759.992 143.084C755.135 143.084 753.394 132.793 753.394 132.793C753.394 132.793 760.726 133.712 760.726 132.288C760.726 130.864 754.906 131.645 751.149 130.634C747.437 129.623 745.329 121.263 745.329 121.263C745.329 121.263 756.006 124.478 756.006 123.054C756.006 121.63 747.758 120.298 746.2 118.69C744.642 117.082 744.092 109.824 744.092 109.824C744.092 109.824 751.195 116.623 752.294 116.623C753.394 116.623 744.78 109.089 745.604 108.262C746.429 107.435 746.704 103.898 746.704 103.898C748.262 105.506 750.782 103.392 752.432 105.092C754.036 106.746 756.968 119.517 758.16 120.757C759.351 121.998 754.86 110.559 756.922 108.446C758.984 106.332 764.529 111.707 765.629 112.81C766.728 113.958 763.017 126.362 764.529 127.878C766.041 129.44 765.72 116.99 766.912 115.75C768.103 114.51 771.265 117.679 772.181 121.354C773.098 125.03 764.987 131.277 767.324 133.666C769.661 136.055 771.815 126.913 773.831 124.8C775.343 123.238 778.505 126.316 780.017 129.026C779.65 117.955 779.1 108.078 778.276 101.049C776.626 105.689 768.057 111.202 762.009 104.862C760.726 105.919 759.122 106.378 757.152 105.643C750.003 102.979 749.316 101.141 750.828 100.406C752.34 99.6713 766.316 91.5401 764.621 90.6673C762.925 89.7944 750.37 99.9469 747.941 98.7525C745.558 97.5122 741.847 92.5048 742.305 92.2751C742.718 92.0454 760.13 85.5681 758.16 84.6033C756.235 83.5927 742.809 93.1939 740.243 88.9675C737.723 84.7412 737.585 82.1686 737.86 81.1579C738.089 80.1473 753.119 78.9988 752.615 77.8503C752.111 76.7478 737.952 79.0447 736.852 76.61C735.753 74.1752 735.478 70.6839 736.715 70.0867C737.952 69.4895 745.238 71.7405 744.688 70.546C744.138 69.3516 736.944 68.9382 737.219 67.7897C737.494 66.6412 738.273 60.2557 737.769 59.1073C737.769 59.1073 742.855 55.6159 744.092 53.9162C745.329 52.1705 746.658 52.8136 747.071 53.7324C747.483 54.6512 750.828 68.8922 751.195 67.2844C751.561 65.6765 747.346 52.9974 748.216 52.5839C749.087 52.1705 753.532 48.6332 754.906 50.7004C756.281 52.7677 756.785 71.6026 758.343 71.7864C759.901 71.9242 756.143 49.9195 756.143 49.9195C756.143 49.9195 761.367 50.2411 763.246 52.6299C765.125 55.0187 763.154 77.1612 764.758 77.0234C766.362 76.8856 765.583 53.7784 765.583 53.7784C765.583 53.7784 772.09 56.9022 772.456 60.1179C772.869 63.3336 768.378 77.8503 769.798 78.5854C771.219 79.3204 772.731 64.3443 772.731 64.3443C772.731 64.3443 778.367 66.9628 778.688 71.327C779.009 75.7371 773.556 81.2039 774.152 82.582C774.793 83.9602 779.65 78.08 780.475 74.4968C781.3 70.9136 787.486 89.2891 782.262 91.8158C780.658 92.5967 779.467 92.8723 778.596 92.8723C781.208 99.7632 781.987 127.189 782.17 134.631C783.179 133.666 783.82 132.931 783.82 132.931C785.195 133.482 786.02 135.274 786.386 137.617C787.073 136.744 787.532 136.239 787.532 136.239C787.532 136.239 788.082 138.168 788.952 140.787C789.823 133.804 789.731 135.687 789.731 134.171C789.594 133.299 789.594 132.564 789.777 132.058C790.464 87.5434 790.281 90.3916 790.51 90.116C790.418 87.0381 789.41 60.026 785.79 52.7677C782.079 45.004 779.604 36 779.604 36C779.604 36 782.904 41.3289 785.836 44.3609C788.769 47.3928 791.289 47.9441 791.289 50.6545C791.289 53.3649 787.44 62.0933 789.914 60.807C792.389 59.5207 791.793 54.2377 792.664 54.2377C793.534 54.2377 797.154 66.3197 797.154 66.9628C797.154 67.606 790.922 72.6133 792.572 74.2671C794.176 75.9209 796.788 67.8357 797.796 68.8922C798.804 69.9029 799.033 78.7691 799.033 81.112C799.033 83.4089 794.267 82.2145 796.421 84.4655C798.575 86.7165 799.033 95.6746 799.033 99.8091C804.211 87.5894 808.839 84.4196 816.445 79.8257C814.796 79.8257 812.688 79.3663 810.947 77.5747C807.51 74.0374 805.952 60.8989 813.834 57.3156C813.467 55.3862 813.742 53.4108 815.117 51.5733C820.157 45.004 821.898 45.2337 821.898 47.255C821.898 49.2763 822.998 68.7544 824.419 67.2844C825.793 65.8603 822.448 46.9794 824.419 44.9581C826.389 42.9368 831.979 41.3749 831.979 41.9721C831.979 42.5693 830.375 64.8956 831.979 63.2418C833.583 61.588 831.063 42.0639 835.507 41.3749C839.998 40.6858 842.106 41.8342 842.885 42.6152C843.618 43.3962 838.578 60.4854 839.723 60.4854C840.823 60.4854 844.58 43.7637 847.009 43.7637C849.437 43.7637 852.416 45.1878 852.416 46.8416C852.416 48.4954 847.65 55.4322 848.888 55.4322C850.079 55.4322 853.287 47.7144 854.111 48.5873C854.936 49.4601 859.885 53.5027 860.985 53.5027C860.985 53.5027 861.809 60.807 862.772 63.058C863.734 65.309 862.68 66.4115 861.764 66.4115C860.847 66.4115 847.834 63.0121 848.979 64.2065C850.079 65.309 862.13 67.0088 862.13 68.1572C862.13 69.3057 863.23 75.9668 861.03 76.4262C858.785 76.8856 843.16 68.0653 842.381 69.6732C841.648 71.327 861.214 78.1719 861.214 78.1719C861.214 78.1719 858.877 83.7764 856.173 84.6033C853.47 85.4762 836.103 72.2917 835.553 74.0833C835.003 75.9209 854.295 86.6247 854.295 86.6247C854.295 86.6247 849.163 92.2292 846.367 91.0348C843.572 89.8863 833.445 77.7125 832.3 78.9069C831.154 80.1013 842.839 89.1972 842.839 89.1972C842.839 89.1972 838.44 94.1127 834.729 92.2751C831.017 90.4376 828.68 81.6633 827.259 81.6633C825.885 81.6633 828.772 89.9782 831.338 92.6886C833.95 95.353 816.445 93.0561 816.445 86.0275C816.445 83.0414 816.949 81.3876 817.499 80.4688C814.383 82.3983 811.038 84.1899 808.106 87.3137C800.545 95.1693 795.688 110.605 792.572 128.521C793.672 127.74 794.497 127.832 794.497 128.797C794.497 130.45 798.391 147.861 800.316 145.886C802.241 143.91 794.863 128.016 797.475 125.351C799.033 123.743 802.607 121.676 805.448 120.619C806.685 119.379 810.397 118.047 809.251 114.372C808.106 110.697 814.109 107.435 814.109 107.435C814.109 107.435 817.82 113.04 821.211 113.04C824.556 113.04 816.904 109.364 816.904 107.251C816.904 105.138 828.451 101.279 828.451 101.279C828.451 101.279 825.197 108.308 825.243 111.202C826.618 110.191 828.084 109.273 829.367 108.538C830.467 105.368 831.017 102.29 832.758 101.463C834.82 100.498 836.607 98.9363 837.844 100.314C835.966 104.541 838.119 109.732 839.998 109.043C840.915 106.7 843.893 97.0528 844.489 97.0528C845.176 97.0528 846.459 97.9716 848.613 98.4769C847.421 101.049 845.909 105.092 848.2 105.092C850.491 105.092 852.874 101.095 854.203 98.5228C859.198 97.65 858.694 98.5688 863.047 103.025C867.491 107.619 870.241 112.075 870.241 112.075ZM819.195 67.6978C819.653 67.2384 816.445 64.0227 814.704 60.1179C814.704 60.4854 814.704 60.8989 814.613 61.3583C814.154 64.0227 818.37 68.5247 819.195 67.6978ZM767.462 95.6746C766.912 95.399 765.949 99.7632 763.842 102.887C764.116 102.749 764.437 102.611 764.804 102.52C767.003 102.014 768.424 96.1799 767.462 95.6746ZM780.292 136.468C780.246 135.32 780.246 134.171 780.2 133.069C778.092 135.55 772.319 138.811 773.693 140.235C774.656 141.2 777.772 138.765 780.292 136.468ZM787.394 156.727C786.524 155.625 785.241 154.293 784.095 152.639C783.453 153.466 783.041 153.512 782.674 153.558C782.674 154.063 782.674 154.522 782.674 155.028C784.095 157.003 785.79 159.254 787.119 159.438C787.257 158.565 787.303 157.646 787.394 156.727ZM790.968 128.016C792.389 119.884 794.222 112.213 797.475 103.576C796.421 104.219 795.046 103.99 793.763 102.657C791.564 100.406 792.48 92.1833 791.06 90.5754C791.197 93.9749 791.106 109.318 790.968 128.016ZM791.106 138.398C790.831 140.465 790.877 139.225 790.831 145.702C792.572 150.434 794.588 154.982 795.917 154.43C797.658 153.604 793.351 144.967 791.106 138.398ZM811.588 123.605C810.855 123.376 810.076 123.146 809.389 122.916C809.022 127.97 807.327 138.765 810.58 138.765C813.467 138.719 811.542 129.026 811.588 123.605ZM824.923 120.344C824.006 120.803 823.135 121.217 822.357 121.63C821.028 124.662 818.507 130.726 820.478 130.267C822.677 129.715 823.64 122.595 824.923 120.344Z" fill="url(#paint0_linear)"/>
<path d="M802.744 214.151H769.248C751.744 208.822 751.057 197.245 767.828 191.503H804.211C820.936 197.245 820.248 208.868 802.744 214.151Z" fill="#99BEFF"/>
<path opacity="0.3" d="M840.09 219.204C840.09 225.176 776.717 230 698.545 230C620.372 230 557 225.176 557 219.204C557 213.232 620.372 208.409 698.545 208.409C776.717 208.409 840.09 213.278 840.09 219.204Z" fill="#838BC5"/>
<path d="M711.925 163.986L704.044 173.679L744.459 172.944L739.372 159.851H711.925V163.986Z" fill="#07506F"/>
<path d="M689.563 98.7066C689.563 98.7066 682.324 102.106 679.666 107.527C678.154 110.651 672.197 120.022 667.431 127.418C671.28 129.807 676.183 134.125 678.887 137.479C683.011 131.92 684.981 125.719 684.981 125.719L689.563 98.7066Z" fill="#FB8603"/>
<path d="M746.612 209.741C735.661 205.606 734.378 199.496 730.025 203.861C724.893 209.006 723.61 209.419 713.804 205.147L711.971 215.207C716.507 215.253 720.402 215.116 723.243 214.84C739.831 213.048 749.087 214.886 752.753 214.886C756.327 214.886 757.564 213.921 746.612 209.741Z" fill="#FD5E5A"/>
<path d="M757.701 219.296C746.75 215.162 745.467 209.052 741.114 213.416C735.982 218.561 734.699 218.975 724.893 214.702L723.06 224.763C727.596 224.809 731.491 224.671 734.332 224.395C750.92 222.604 760.176 224.441 763.841 224.441C767.416 224.441 768.653 223.431 757.701 219.296Z" fill="#FC7575"/>
<path d="M691.442 197.429C677.558 197.705 663.078 200.323 663.078 200.323C663.078 200.323 676.184 199.404 691.442 197.429Z" fill="#07506F"/>
<path d="M714.216 201.793C710.184 198.164 700.928 197.245 691.397 197.429C676.138 199.404 663.033 200.323 663.033 200.323C663.033 200.323 677.512 197.705 691.397 197.429C712.291 194.719 737.265 189.987 738.456 182.82C740.426 170.371 708.58 170.647 708.58 170.647C708.58 170.647 653.135 184.934 646.811 195.316C640.488 205.698 649.423 209.327 650.752 210.522C651.852 211.486 689.655 215.116 711.925 215.299L714.353 202.023C714.308 201.885 714.262 201.839 714.216 201.793Z" fill="#07506F"/>
<path d="M724.847 118.047C724.847 99.8549 712.75 91.9075 712.75 91.9075C712.75 91.9075 704.96 89.3349 697.628 91.8615C690.343 94.4341 679.712 111.018 681.682 122.181C683.653 133.344 707.022 162.883 708.626 164.307C720.402 163.296 734.653 164.077 746.337 162.975C740.793 151.444 724.847 130.312 724.847 118.047Z" fill="#FFDA88"/>
<path d="M724.847 118.047C724.847 99.8549 712.75 91.9075 712.75 91.9075C712.75 91.9075 704.96 89.3349 697.628 91.8615C690.343 94.4341 679.712 111.018 681.682 122.181C683.653 133.344 707.022 162.883 708.626 164.307C720.402 163.296 734.653 164.077 746.337 162.975C740.793 151.444 724.847 130.312 724.847 118.047Z" fill="#FFDA88"/>
<path d="M719.577 99.3038C718.386 97.4663 717.149 95.9503 716.049 94.8018C709.909 98.9823 699.599 104.633 683.332 109.916C682.644 111.799 682.095 113.729 681.774 115.566C700.744 110.099 712.612 103.898 719.577 99.3038Z" fill="#FFF7CF"/>
<path d="M720.723 101.233C713.529 105.965 701.203 112.304 681.453 117.955C681.362 119.425 681.407 120.849 681.637 122.181C681.728 122.687 681.866 123.238 682.049 123.835C703.998 117.404 716.416 110.099 722.647 105.46C722.098 103.944 721.41 102.52 720.723 101.233Z" fill="#FFF7CF"/>
<path d="M724.709 114.509C724.48 112.029 724.022 109.778 723.426 107.71C716.874 112.488 704.456 119.609 682.828 125.902C683.423 127.418 684.248 129.118 685.21 130.91C704.822 125.443 717.286 119.241 724.709 114.509Z" fill="#FFF7CF"/>
<path d="M737.906 148.274C730.895 151.582 719.944 155.441 703.723 158.289C704.868 159.805 705.922 161.045 706.701 162.056C724.022 161.413 735.661 158.794 742.809 156.406C741.297 153.879 739.647 151.123 737.906 148.274Z" fill="#FFF7CF"/>
<path d="M712.75 91.9074C712.75 91.9074 710.779 91.2643 707.847 90.9427C703.036 93.5153 696.941 96.3175 689.289 99.0739C687.456 101.463 685.761 104.311 684.432 107.251C699.095 102.29 708.58 97.1444 714.399 93.2396C713.391 92.3209 712.75 91.9074 712.75 91.9074Z" fill="#FFF7CF"/>
<path d="M703.219 90.8052C701.431 90.8971 699.507 91.2186 697.628 91.9077C695.979 92.5049 694.146 93.7912 692.313 95.5828C696.437 93.929 700.057 92.3671 703.219 90.8052Z" fill="#FFF7CF"/>
<path d="M708.534 164.215C708.58 164.261 708.626 164.307 708.672 164.307C720.448 163.296 734.699 164.077 746.383 162.975C745.696 161.597 744.871 160.035 743.955 158.381C736.898 160.816 725.534 163.434 708.534 164.215Z" fill="#FFF7CF"/>
<path d="M733.095 140.005C725.442 143.727 714.308 147.953 698.591 151.49C699.874 153.236 701.065 154.844 702.211 156.314C718.615 153.512 729.704 149.561 736.76 146.299C735.523 144.232 734.286 142.119 733.095 140.005Z" fill="#FFF7CF"/>
<path d="M724.847 118.047C724.847 117.725 724.847 117.404 724.847 117.082C717.24 121.768 705.051 127.648 686.264 132.885C687.318 134.723 688.464 136.606 689.655 138.536C707.434 133.207 718.752 127.327 725.488 122.916C725.076 121.171 724.847 119.563 724.847 118.047Z" fill="#FFF7CF"/>
<path d="M728.65 131.461C727.642 129.302 726.817 127.188 726.176 125.167C719.302 129.577 708.168 135.274 690.938 140.465C691.763 141.705 692.588 142.946 693.413 144.186C710.184 140.143 721.456 135.366 728.65 131.461Z" fill="#FFF7CF"/>
<path d="M731.995 138.03C731.17 136.514 730.346 134.952 729.612 133.482C722.372 137.387 711.238 142.119 694.742 146.116C695.566 147.264 696.391 148.412 697.17 149.561C713.071 146.024 724.297 141.797 731.995 138.03Z" fill="#FFF7CF"/>
<path opacity="0.28" d="M693.413 144.186C696.162 148.229 699.049 152.133 701.523 155.441C704.639 152.133 724.847 124.34 724.847 118.047C724.847 111.799 723.426 106.746 721.502 102.795C715.132 109.87 704.364 128.934 699.69 135.733C700.515 136.193 699.69 135.733 700.607 136.33C697.216 141.292 693.962 144.737 693.962 144.737C693.962 144.737 693.779 144.553 693.413 144.186Z" fill="#F9B406"/>
<path d="M734.928 165.961C718.432 162.102 696.574 178.87 677.925 189.482C665.415 196.602 657.442 207.214 656.984 215.024C656.663 220.077 659.825 223.568 663.353 224.487C670.731 226.417 720.219 198.486 733.141 195.27C746.108 192.1 747.162 178.87 744.459 172.944C744 171.979 743.634 168.028 734.928 165.961Z" fill="#25A9E0"/>
<path d="M682.69 52.6297C682.69 52.6297 674.213 53.0891 673.068 61.2662C671.922 69.4892 676.917 78.0339 676.825 81.7549C676.688 85.476 671.968 85.7516 672.518 83.8222C672.518 83.8222 670.548 87.1757 674.259 88.5539C677.925 89.932 679.666 88.0486 679.666 88.0486C679.666 88.0486 680.949 93.3775 688.235 92.1371C695.475 90.8508 696.345 87.4054 696.345 87.4054C696.345 87.4054 708.076 91.9993 710 81.2496C706.793 82.444 704.273 80.1471 703.769 77.207C703.173 73.8994 703.356 71.5565 703.081 68.2489C702.715 63.6091 701.707 57.1776 697.674 54.0997C694.054 51.2974 689.335 49.9193 684.615 52.1243C684.019 52.4919 683.332 52.4459 682.69 52.6297Z" fill="#54284E"/>
<path d="M707.297 80.7903C706.243 80.5147 705.052 79.504 704.502 77.5746C703.356 72.0619 704.593 63.1957 700.515 56.6724C699.415 54.9267 698.041 53.962 697.949 53.8701C697.674 53.7783 691.717 48.6331 684.615 52.2163C691.809 49.2303 697.216 54.4214 697.445 54.5133C697.537 54.6052 698.682 55.478 699.69 57.1777C703.677 63.9307 701.936 74.9101 703.448 78.6771C704.318 81.02 706.472 82.6279 709.084 82.1685C706.655 91.1725 695.979 86.8083 695.933 86.8083C695.933 86.8543 695.887 88.0946 694.146 89.4268L693.688 89.7484C690.847 91.54 687.227 92.1372 685.898 92.1372C683.515 92.2291 681.132 91.1266 679.941 88.9215C680.628 90.4375 681.82 91.54 683.469 92.1372C687.456 93.3776 694.604 91.7238 696.529 88.0487C699.186 88.9674 702.394 89.335 705.052 88.4621C710.229 86.8083 710.596 80.8363 710.779 80.285C710.138 80.4687 708.809 81.2956 707.297 80.7903Z" fill="#3F1E3B"/>
<path d="M696.483 74.6805L701.752 93.0101C701.752 93.0101 697.216 113.453 693.413 112.258C689.61 111.064 689.701 94.0208 689.701 94.0208L686.677 82.7657L696.483 74.6805Z" fill="#FC7575"/>
<path d="M696.483 74.6805L697.078 76.7018C696.345 80.6985 692.679 88.0028 688.372 89.1053L686.677 82.8117L696.483 74.6805Z" fill="#FD5E5A"/>
<path d="M681.178 53.6861C681.178 53.6861 674.992 57.6828 675.588 62.6901C676.138 67.6974 677.146 69.535 677.192 72.8426C677.238 76.1502 680.078 84.5111 685.486 85.7974C690.893 87.0837 696.162 77.5743 696.666 73.6695C697.17 69.7188 696.666 64.298 694.375 58.6934C692.13 53.0429 684.707 52.0323 681.178 53.6861Z" fill="#FC7575"/>
<path d="M682.736 75.9667C683.378 74.8183 683.195 72.6591 682.828 71.3269C682.782 72.6591 682.782 74.9561 682.278 75.8749L682.187 76.0586C682.278 76.1045 683.286 76.8855 684.386 76.6099C684.019 76.6099 683.195 76.3342 682.736 75.9667Z" fill="#452140"/>
<path d="M688.235 77.2989C685.944 78.9527 682.232 79.7336 682.232 79.7336C682.232 79.7336 682.599 80.193 683.194 80.6524C684.294 80.3768 686.356 79.7336 688.006 78.723C688.189 77.942 688.235 77.2989 688.235 77.2989Z" fill="white"/>
<path d="M687.96 78.7689C686.31 79.7795 684.248 80.4227 683.149 80.6983C685.394 82.444 687.181 81.5252 687.96 78.7689Z" fill="#2E162B"/>
<path d="M684.432 66.5952C684.432 66.5952 684.936 65.8142 686.173 65.3089C687.41 64.8036 690.389 65.8142 690.389 65.8142C690.389 65.8142 687.548 65.5845 686.769 65.7224C686.036 65.9061 684.936 66.8249 684.936 66.8249L684.432 66.5952Z" fill="#5C2C55"/>
<path d="M680.857 67.7895C680.857 67.7895 680.308 67.3302 679.254 67.2383C678.246 67.1464 676.229 68.4327 676.229 68.4327C676.229 68.4327 678.291 67.6977 678.887 67.6517C679.483 67.6058 680.491 68.0652 680.491 68.0652L680.857 67.7895Z" fill="#5C2C55"/>
<path d="M685.486 69.8566C685.852 69.0756 686.998 68.4784 687.777 68.3866C688.876 68.2947 689.747 68.9378 690.434 68.8919C689.518 69.4432 688.876 68.4325 686.631 69.2135C686.219 69.3972 685.852 69.581 685.486 69.8566Z" fill="#2E162B"/>
<path d="M681.178 71.0513C680.537 70.4541 679.254 70.3162 678.521 70.5459C677.467 70.8675 676.917 71.7863 676.275 72.016C677.329 72.1538 677.558 71.0053 679.895 70.9134C680.353 70.9134 680.766 70.9135 681.178 71.0513Z" fill="#2E162B"/>
<path d="M691.672 71.97C691.947 72.6591 691.168 73.6697 689.93 74.1291C688.693 74.6344 687.456 74.4507 687.181 73.7616C686.906 73.0725 687.685 72.0619 688.922 71.6025C690.159 71.0972 691.397 71.2809 691.672 71.97Z" fill="#FD5E5A"/>
<path d="M678.52 73.3941C678.062 73.3481 677.604 73.3941 677.237 73.4859C677.283 74.1291 677.467 74.91 677.65 75.7829C677.833 75.8288 678.062 75.8748 678.246 75.8748C679.437 75.9666 680.491 75.5072 680.537 74.8182C680.628 74.175 679.712 73.4859 678.52 73.3941Z" fill="#FD5E5A"/>
<path d="M681.27 55.2481C682.095 52.1243 690.709 46.7494 699.415 63.1037C707.938 80.1011 697.628 82.8115 695.154 78.9067C694.879 78.5392 694.787 77.896 695.017 77.3907C694.008 76.5638 692.267 73.6237 693.734 71.7861C694.375 70.9592 695.154 70.6377 695.383 70.4998C695.383 70.4998 693.321 71.924 695.337 73.3481C696.987 74.4965 698.27 71.3727 698.407 70.2702C699.507 62.0471 678.521 63.9765 681.27 55.2481Z" fill="#6D3465"/>
<path d="M683.469 52.6755L681.728 58.4179C681.728 58.4179 675.45 60.6689 676.138 66.1816C676.413 68.2948 676.871 69.5811 676.871 69.5811C676.871 69.5811 675.954 69.2135 674.351 66.0897C672.701 62.828 673.801 56.9938 676.733 55.1103C679.62 53.2268 683.469 52.6755 683.469 52.6755Z" fill="#6D3465"/>
<path d="M681.27 55.2482C680.124 57.4074 680.628 60.2556 685.073 62.4147C688.647 64.1604 693.55 64.7576 696.575 67.3761C698.224 68.4786 698.453 73.1644 696.254 73.1185C694.696 73.2563 694.467 71.4187 695.429 70.454C694.788 70.7756 694.329 71.5565 694.421 72.3834C694.421 74.0832 697.399 74.7723 698.545 72.9806C699.416 71.6944 699.553 69.719 699.141 68.203C697.033 60.5771 679.712 63.701 681.27 55.2482Z" fill="#914587"/>
<path d="M695.704 67.6516C695.704 67.6516 695.841 65.2628 697.537 66.0897C700.149 67.33 698.27 72.7967 696.712 73.0724C695.154 73.348 695.704 67.6516 695.704 67.6516Z" fill="#FC7575"/>
<path d="M696.07 68.3865C696.07 68.3865 696.116 67.4677 696.666 67.3759C697.262 67.284 697.491 71.5104 696.712 71.5104C695.979 71.5563 696.07 68.3865 696.07 68.3865Z" fill="#FD5E5A"/>
<path d="M656.847 215.713C655.014 238.361 726.726 227.106 726.726 227.106V212.727C726.726 212.727 693.046 206.387 681.453 205.79C671.281 205.285 657.351 209.649 656.847 215.713Z" fill="#51BAE6"/>
<path d="M664.362 97.1447C664.362 97.1447 669.035 100.498 669.035 103.117C669.035 105.735 667.065 106.93 665.874 103.99C664.682 101.05 663.583 101.693 661.062 100.177C658.542 98.6607 657.397 96.0881 657.397 96.0881L664.362 97.1447Z" fill="#58391B"/>
<path d="M651.165 124.524C651.165 124.524 653.364 129.118 651.302 131.645C649.286 134.125 650.202 134.814 654.464 137.433C658.725 140.097 657.58 142.44 657.58 142.44C657.58 142.44 649.469 139.133 647.774 138.444C646.078 137.755 644.704 135.504 644.704 135.504L643.375 126.867L651.165 124.524Z" fill="#58391B"/>
<path d="M666.698 86.3489C666.698 86.3489 667.431 82.8576 665.049 80.4688C662.666 78.0799 649.698 77.0233 651.898 79.5959C654.097 82.1685 662.987 82.3982 663.674 83.7304C664.361 85.0627 666.698 86.3489 666.698 86.3489Z" fill="#754C24"/>
<path d="M674.992 123.238C671.922 128.291 666.103 135.32 666.103 135.32C666.103 135.32 648.965 112.121 647.132 110.237C646.949 110.053 646.766 109.778 646.628 109.456C645.299 106.608 645.299 99.1659 645.299 99.1659C645.299 99.1659 644.979 92.6885 642.825 92.6885C640.671 92.6885 645.299 99.1659 643.421 101.555C641.542 103.944 640.213 102.841 639.847 101.325C639.48 99.855 641.679 92.5048 640.167 92.5048C638.655 92.5048 638.38 101.784 637.372 100.774C636.41 99.809 639.113 90.2997 637.785 90.2997C636.41 90.2997 634.806 100.498 634.806 102.841C634.806 105.23 641.679 112.35 644.016 114.739C646.353 117.128 659.825 152.547 667.844 150.204C672.564 148.826 676.184 137.525 681.453 130.083C679.025 126.959 678.383 125.443 674.992 123.238Z" fill="#FD5E5A"/>
<path d="M665.415 85.3383C665.415 85.3383 669.035 86.1652 671.143 89.1513C673.297 92.1373 674.626 94.8936 674.626 94.8936C674.626 94.8936 668.44 101.187 664.087 98.7525C659.779 96.2718 657.809 96.1799 657.305 97.8337C656.801 99.4416 658.817 114.923 657.305 118.966C655.793 123.008 648.095 132.931 640.626 132.242C633.157 131.553 632.469 122.687 633.202 117.633C633.936 112.58 635.86 105.505 636.731 101.325C637.601 97.1446 637.739 93.5614 644.612 89.9782C651.531 86.303 659.963 83.5926 665.415 85.3383Z" fill="#754C24"/>
<path d="M657.305 97.7878C656.984 100.085 659.183 113.775 657.717 118.782C656.663 122.089 651.806 128.107 646.766 130.634C651.073 127.924 657.213 121.263 657.442 116.347C657.717 112.994 657.213 100.039 657.213 100.085C657.167 99.3497 657.121 98.5687 657.305 97.7878Z" fill="url(#paint1_linear)"/>
<path d="M664.316 86.6247C664.316 86.6247 665.049 82.6739 661.887 79.5041C658.725 76.3344 654.051 74.4509 652.218 75.875C650.431 77.2991 657.03 80.377 657.442 81.847C657.855 83.3171 660.696 86.2112 664.316 86.6247Z" fill="#C69C6D"/>
<path d="M664.316 86.6247C664.453 83.2712 662.987 80.7905 660.467 78.7232C658.496 77.1154 654.372 74.5887 652.219 75.875C654.922 73.3943 666.103 78.7692 664.316 86.6247Z" fill="url(#paint2_linear)"/>
<path d="M662.208 85.1084C662.208 85.1084 660.833 80.0552 658.863 78.6311C656.892 77.2069 652.723 75.7369 653.135 77.161C653.547 78.5392 659.55 79.9173 660.054 81.8927C660.65 83.8681 662.208 85.1084 662.208 85.1084Z" fill="#FC7575"/>
<path d="M646.17 117.909C646.17 117.909 648.599 116.163 653.502 120.344C658.405 124.524 655.197 126.867 656.022 128.429C656.847 129.991 660.146 128.107 662.3 125.948C664.407 123.835 667.661 125.075 667.89 126.453C667.89 126.453 664.774 130.083 662.758 131.415C660.787 132.793 654.876 134.355 654.876 134.355C654.876 134.355 650.661 133.115 650.111 131.185C649.607 129.256 647.545 131.185 645.025 131.415C642.504 131.736 635.906 122.457 646.17 117.909Z" fill="#754C24"/>
<path d="M645.024 131.461C642.596 131.507 640.9 128.153 640.488 126.178C639.709 122.457 642.183 119.425 645.345 117.863C646.032 117.541 646.766 117.266 647.499 117.22C651.073 116.99 655.976 121.033 656.342 124.57C656.48 125.856 656.205 126.637 655.838 127.878C655.838 126.408 656.251 125.627 655.93 124.294C655.518 122.457 654.097 121.033 652.585 119.884C651.394 119.011 650.065 118.276 648.644 118.047C645.162 117.495 641.175 120.987 640.854 124.432C640.625 126.959 642.138 129.899 643.97 131.093C644.291 131.323 644.658 131.461 645.024 131.461Z" fill="#3B2612"/>
<path d="M633.523 125.397C633.523 125.397 631.599 124.34 629.124 126.775C626.696 129.21 632.79 133.804 634.898 130.91C637.051 128.016 633.523 125.397 633.523 125.397Z" fill="#754C24"/>
<path d="M669.631 91.1268C669.631 91.8158 669.265 92.3671 668.806 92.3671C668.348 92.3671 667.981 91.8158 667.981 91.1268C667.981 90.4377 668.348 89.8864 668.806 89.8864C669.265 89.8864 669.631 90.4377 669.631 91.1268Z" fill="black"/>
<path d="M653.135 85.7058C653.135 85.7058 656.48 95.7205 660.879 97.1905L659.183 98.1093L651.852 86.3949L653.135 85.7058Z" fill="#2846A6"/>
<path d="M649.011 100.728C648.37 99.8092 649.24 97.9716 649.24 97.8797C649.149 97.9257 648.874 96.7313 646.353 99.3039C646.124 97.5122 646.949 95.8125 646.995 95.7206C646.491 95.9503 646.72 94.9856 642.642 97.9716C642.733 95.0315 646.399 93.6074 646.445 93.5156C645.849 93.4237 646.949 92.5968 641.221 92.9183C642.642 91.7699 646.445 91.3105 648.232 91.1267C640.855 91.0349 640.213 93.4237 640.076 93.4696C640.167 93.4696 643.467 93.3777 644.979 93.5615C640.855 96.0881 642.092 99.166 642 99.3498C642.092 99.3039 644.612 97.2825 645.987 96.5935C645.299 98.9823 646.078 100.223 646.078 100.452C646.17 100.36 647.911 98.1554 648.736 98.0635C647.957 100.406 649.011 100.958 649.011 101.05C649.057 100.958 650.386 99.212 650.981 99.1201C650.432 99.166 649.378 100.36 649.011 100.728Z" fill="#58391B"/>
<path d="M643.604 108.951C643.329 106.011 643.237 105.368 643.191 105.046C642.917 105.276 642.504 104.219 639.892 108.262C639.571 106.149 640.809 103.438 640.854 103.346C640.625 103.438 639.709 102.887 636.868 105.23C636.914 103.714 637.922 101.509 638.609 100.177C635.86 104.265 636.501 106.057 636.456 106.195C636.547 106.149 638.38 104.587 639.846 104.127C638.334 108.124 639.663 109.778 639.663 110.053C639.709 109.962 641.542 106.792 642.642 105.919C642.825 107.251 643.008 108.629 643.237 110.053C643.695 109.502 646.307 106.746 647.911 104.816C647.27 105.414 645.712 106.884 643.604 108.951Z" fill="#58391B"/>
<path d="M659.229 89.6106C658.679 89.4728 657.9 89.3349 657.075 89.1971C657.809 88.8296 659.046 88.6459 659.367 88.554C659.275 88.508 657.442 87.5893 657.534 87.6811C658.496 87.3136 659.229 87.5433 659.504 87.5433C659.367 87.3596 658.175 85.8436 658.221 85.8895C659 85.9814 659.779 86.303 660.466 86.7164C660.1 86.3949 659.687 86.1192 659.275 85.9355C658.404 85.4761 657.717 85.522 657.534 85.4761C657.58 85.568 658.588 87.038 658.542 86.9461C657.213 86.9461 656.571 87.5433 656.342 87.6352C656.434 87.6811 657.854 88.3702 657.763 88.3243C655.838 88.9215 655.792 89.6106 655.792 89.7484C656.022 89.7943 657.03 89.6106 658.542 89.7943C658.496 89.8403 657.763 90.759 657.809 90.6672C657.854 90.6672 659.733 90.6672 660.329 90.6212C659.687 90.5294 659.046 90.4834 658.45 90.3915C658.404 90.4375 659.275 89.5187 659.229 89.6106Z" fill="#58391B"/>
<path d="M663.537 94.2963C662.803 94.2044 661.795 94.0206 660.787 93.8828C661.704 93.3775 663.262 93.0559 663.674 92.9181C663.537 92.8722 661.108 91.8156 661.291 91.9074C662.529 91.4021 663.445 91.6318 663.812 91.6318C663.628 91.4021 661.979 89.5186 662.07 89.6105C663.078 89.7024 664.086 90.0239 665.003 90.5293C664.545 90.1158 663.995 89.8402 663.399 89.5646C662.254 89.0592 661.383 89.1511 661.108 89.1052C661.154 89.197 662.574 91.0346 662.483 90.9427C660.741 91.0346 659.871 91.6777 659.688 91.9993C659.825 92.0453 661.658 92.8721 661.566 92.8262C659.184 93.699 659.229 93.9287 658.863 94.2503C659.184 94.2963 660.65 94.5719 662.62 94.7097C662.574 94.8016 661.658 95.996 661.704 95.9041C661.795 95.9041 664.178 95.7663 664.911 95.6744C664.086 95.5825 663.262 95.5825 662.483 95.4907C662.574 95.4447 663.628 94.2503 663.537 94.2963Z" fill="#58391B"/>
<path d="M697.812 130.955C694.421 136.009 690.022 139.638 690.022 139.638C690.022 139.638 667.34 115.29 665.278 113.407C665.049 113.223 664.865 112.947 664.728 112.626C663.262 109.778 663.262 102.336 663.262 102.336C663.262 102.336 662.895 95.8582 660.558 95.8582C658.175 95.8582 663.262 102.336 661.2 104.724C659.138 107.113 657.671 106.011 657.259 104.495C656.846 103.025 659.275 95.6744 657.58 95.6744C655.884 95.6744 655.609 104.954 654.51 103.943C653.456 102.979 656.434 93.4694 654.922 93.4694C653.41 93.4694 651.623 103.668 651.623 106.011C651.623 108.399 659.229 115.52 661.795 117.909C664.361 120.298 679.254 158.932 688.051 156.543C693.275 155.165 701.431 145.748 707.205 138.306C704.593 135.228 701.569 133.161 697.812 130.955Z" fill="#FC7575"/>
<path d="M697.812 130.956C697.353 131.599 696.941 132.242 696.483 132.793C698.866 134.723 703.035 138.306 705.006 141.2C705.785 140.235 706.564 139.271 707.297 138.306C704.593 135.228 701.569 133.161 697.812 130.956Z" fill="#FD5E5A"/>
<path d="M712.75 91.9075C708.076 93.1479 699.874 123.146 694.65 130.542C698.911 132.931 704.273 137.249 707.251 140.603C711.787 135.044 724.434 121.4 724.618 113.269C724.709 107.665 718.615 90.3456 712.75 91.9075Z" fill="#F9B406"/>
<path d="M712.75 91.9076C708.397 93.9748 701.752 121.906 694.65 130.542C698.591 123.468 707.159 93.4236 712.75 91.9076Z" fill="white"/>
<path d="M738.685 172.071C738.364 172.071 738.089 171.841 737.998 171.52C737.906 171.152 738.089 170.739 738.502 170.601C740.106 170.142 740.976 169.912 740.976 169.912C741.343 169.82 741.755 170.05 741.893 170.417C741.984 170.831 741.755 171.198 741.389 171.29C741.389 171.29 740.518 171.52 738.96 171.979C738.823 172.025 738.731 172.071 738.685 172.071Z" fill="#1C7FA8"/>
<path d="M673.434 201.931C674.671 200.875 676.046 199.818 677.512 198.761C677.833 198.532 677.925 198.072 677.695 197.751C677.466 197.429 677.008 197.337 676.687 197.567C675.221 198.624 673.801 199.726 672.563 200.783C672.243 201.058 672.197 201.518 672.472 201.793C672.609 201.977 672.838 202.069 673.022 202.069C673.159 202.115 673.297 202.069 673.434 201.931ZM681.774 195.913C683.148 195.04 684.66 194.122 686.173 193.249C686.539 193.065 686.631 192.606 686.448 192.238C686.264 191.871 685.806 191.779 685.439 191.962C683.881 192.881 682.369 193.754 680.949 194.673C680.628 194.903 680.491 195.362 680.72 195.683C680.857 195.913 681.086 196.005 681.315 196.005C681.499 196.005 681.636 195.959 681.774 195.913ZM690.709 190.722C692.175 189.941 693.733 189.16 695.337 188.379C695.704 188.195 695.841 187.782 695.658 187.414C695.475 187.047 695.062 186.909 694.696 187.093C693.092 187.874 691.534 188.655 690.022 189.436C689.655 189.62 689.518 190.079 689.701 190.446C689.838 190.676 690.067 190.86 690.342 190.86C690.48 190.814 690.572 190.768 690.709 190.722ZM699.965 186.174C701.477 185.485 703.081 184.796 704.685 184.107C705.051 183.969 705.235 183.51 705.051 183.142C704.914 182.775 704.456 182.591 704.089 182.775C702.485 183.464 700.882 184.199 699.324 184.888C698.957 185.072 698.774 185.485 698.957 185.853C699.094 186.128 699.324 186.266 699.644 186.266C699.782 186.266 699.873 186.22 699.965 186.174ZM709.496 182.086C711.054 181.442 712.658 180.845 714.307 180.202C714.674 180.064 714.857 179.651 714.72 179.237C714.582 178.87 714.17 178.686 713.758 178.824C712.108 179.467 710.458 180.11 708.9 180.707C708.534 180.845 708.351 181.305 708.488 181.672C708.625 181.948 708.855 182.132 709.175 182.132C709.313 182.177 709.404 182.132 709.496 182.086ZM719.165 178.41C720.86 177.813 722.464 177.216 724.068 176.711C724.434 176.573 724.663 176.159 724.526 175.792C724.388 175.424 723.976 175.195 723.609 175.333C722.051 175.884 720.402 176.435 718.706 177.078C718.34 177.216 718.111 177.63 718.248 177.997C718.34 178.319 718.615 178.502 718.935 178.502C719.027 178.456 719.073 178.456 719.165 178.41ZM728.971 175.057C730.758 174.46 732.453 173.954 733.919 173.495C734.286 173.357 734.515 172.99 734.423 172.576C734.286 172.209 733.919 171.979 733.507 172.071C732.041 172.53 730.345 173.036 728.558 173.633C728.192 173.771 727.962 174.184 728.1 174.552C728.192 174.873 728.466 175.057 728.787 175.057C728.833 175.103 728.879 175.103 728.971 175.057Z" fill="#1C7FA8"/>
<path d="M667.477 207.49C667.294 207.49 667.157 207.444 667.019 207.306C666.699 207.031 666.699 206.571 666.928 206.296C667.477 205.652 668.073 205.009 668.669 204.366C668.944 204.09 669.402 204.09 669.723 204.366C669.998 204.642 669.998 205.101 669.723 205.423C669.127 206.066 668.531 206.663 668.027 207.26C667.89 207.398 667.661 207.49 667.477 207.49Z" fill="#1C7FA8"/>
<path d="M707.618 222.282C708.03 222.282 708.351 221.915 708.351 221.547C708.351 221.134 708.03 220.858 707.618 220.812C705.922 220.858 704.227 220.858 702.531 220.812C702.119 220.812 701.798 221.134 701.798 221.547C701.798 221.961 702.119 222.282 702.531 222.282C703.448 222.282 704.319 222.328 705.235 222.328C705.968 222.328 706.793 222.328 707.618 222.282ZM698.087 221.363C698.133 220.95 697.812 220.628 697.399 220.582C695.75 220.49 694.054 220.353 692.313 220.169C691.901 220.123 691.534 220.445 691.534 220.812C691.488 221.225 691.763 221.593 692.176 221.593C693.917 221.777 695.658 221.915 697.308 222.006H697.354C697.72 222.052 698.041 221.777 698.087 221.363ZM712.75 222.006C714.537 221.869 716.278 221.639 717.882 221.363C718.294 221.317 718.569 220.904 718.478 220.536C718.432 220.123 718.019 219.847 717.653 219.939C716.049 220.215 714.354 220.399 712.612 220.536C712.2 220.582 711.925 220.904 711.925 221.317C711.971 221.685 712.292 222.006 712.658 222.006C712.704 222.006 712.75 222.006 712.75 222.006ZM687.914 220.399C687.96 219.985 687.685 219.618 687.273 219.572C685.623 219.342 683.928 219.112 682.232 218.837C681.82 218.791 681.453 219.066 681.407 219.434C681.362 219.847 681.637 220.215 682.003 220.261C683.699 220.536 685.44 220.812 687.089 220.996C687.135 220.996 687.135 220.996 687.181 220.996C687.548 221.042 687.868 220.766 687.914 220.399ZM722.968 220.307C723.426 220.169 723.839 220.077 724.297 219.939C724.664 219.801 724.893 219.434 724.801 219.02C724.664 218.653 724.297 218.423 723.885 218.515C723.472 218.653 723.014 218.745 722.602 218.883C722.189 218.974 721.96 219.388 722.098 219.801C722.189 220.123 722.464 220.353 722.785 220.353C722.831 220.307 722.922 220.307 722.968 220.307ZM677.787 218.791C677.879 218.377 677.604 218.01 677.192 217.918C675.542 217.596 673.847 217.275 672.197 216.907C671.785 216.815 671.418 217.091 671.327 217.459C671.235 217.872 671.51 218.239 671.876 218.331C673.526 218.699 675.221 219.02 676.917 219.342C676.963 219.342 677.009 219.342 677.054 219.342C677.421 219.388 677.742 219.158 677.787 218.791ZM667.752 216.678C667.844 216.264 667.615 215.897 667.203 215.805C664.132 215.07 662.3 214.518 662.254 214.518C661.887 214.427 661.475 214.61 661.337 215.024C661.246 215.391 661.429 215.805 661.841 215.943C661.841 215.943 663.72 216.494 666.836 217.229C666.882 217.229 666.973 217.229 667.019 217.229C667.386 217.229 667.661 217.045 667.752 216.678Z" fill="#7CCBEC"/>
<path d="M657.855 93.0561C657.855 93.0561 660.146 97.3284 662.574 98.6147C665.003 99.901 666.698 102.474 665.874 105.046C665.049 107.619 661.429 106.286 660.512 104.173C659.596 102.06 656.205 100.866 653.456 99.7631C650.706 98.6606 649.561 90.851 653.685 91.1726C657.809 91.4023 657.855 93.0561 657.855 93.0561Z" fill="#754C24"/>
<path d="M662.574 98.6146C660.146 97.3283 658.313 94.8476 657.855 93.0559C657.58 91.9534 657.809 91.4021 653.685 91.1265C652.677 91.0346 652.035 91.4481 651.577 92.0912C651.944 91.8615 652.448 91.7237 652.998 91.7697C657.122 92.0453 656.847 92.5966 657.167 93.6991C657.626 95.4448 659.459 97.9714 661.887 99.2577C664.316 100.544 666.011 103.117 665.186 105.689C665.141 105.873 665.049 106.057 664.957 106.194C665.37 105.965 665.69 105.597 665.874 105.046C666.698 102.427 665.003 99.9008 662.574 98.6146Z" fill="#3B2612"/>
<path d="M674.351 95.261C674.351 95.261 674.03 98.0173 671.83 98.7983C670.96 99.1198 665.965 98.7064 667.844 95.8582C669.723 93.01 673.892 94.0666 673.892 94.0666L674.351 95.261Z" fill="#58391B"/>
<path d="M674.351 95.2612C674.351 95.2612 674.763 95.0775 674.763 94.71C674.488 94.2046 674.167 94.0209 674.167 94.0209C674.167 94.0209 673.801 94.1128 673.755 94.7559C674.076 95.399 674.351 95.2612 674.351 95.2612Z" fill="#FC7575"/>
<path d="M140.171 97.7382H145.815V109.635L154.181 97.7382H159.564V118H153.92V106.132L145.584 118H140.171V97.7382ZM149.839 96.5225C147.793 96.5225 146.288 96.1269 145.323 95.3357C144.378 94.5445 143.905 93.3674 143.905 91.8044H147.755C147.774 92.4798 147.948 92.9815 148.276 93.3095C148.604 93.6376 149.125 93.8016 149.839 93.8016C150.553 93.8016 151.083 93.6376 151.431 93.3095C151.778 92.9815 151.961 92.4798 151.981 91.8044H155.83C155.83 93.3674 155.348 94.5445 154.383 95.3357C153.418 96.1269 151.903 96.5225 149.839 96.5225ZM182.151 113.6V121.242H177.056V118H167.186V121.242H162.063V113.6H162.642C163.587 113.581 164.243 113.07 164.61 112.066C164.977 111.043 165.198 109.615 165.276 107.782L165.478 102.312H179.98V113.6H182.151ZM170.225 108.187C170.167 109.596 170.061 110.725 169.907 111.574C169.753 112.423 169.463 113.099 169.039 113.6H174.48V106.682H170.283L170.225 108.187ZM200.405 110.185C200.405 110.223 200.377 110.677 200.319 111.545H188.914C189.146 112.356 189.59 112.983 190.246 113.427C190.921 113.851 191.76 114.063 192.764 114.063C193.516 114.063 194.163 113.957 194.703 113.745C195.263 113.533 195.822 113.185 196.382 112.703L199.277 115.713C197.752 117.411 195.523 118.261 192.59 118.261C190.757 118.261 189.146 117.913 187.756 117.218C186.367 116.524 185.286 115.559 184.514 114.324C183.762 113.089 183.386 111.69 183.386 110.127C183.386 108.583 183.752 107.203 184.485 105.988C185.238 104.753 186.27 103.788 187.583 103.093C188.895 102.398 190.371 102.051 192.011 102.051C193.574 102.051 194.993 102.379 196.266 103.035C197.54 103.672 198.543 104.608 199.277 105.843C200.029 107.059 200.405 108.506 200.405 110.185ZM192.04 105.959C191.191 105.959 190.477 106.2 189.898 106.682C189.339 107.165 188.982 107.821 188.827 108.651H195.253C195.099 107.821 194.732 107.165 194.153 106.682C193.594 106.2 192.889 105.959 192.04 105.959ZM228.176 102.312V118H203.312V102.312H208.783V113.6H213.038V102.312H218.508V113.6H222.734V102.312H228.176ZM258.868 113.6V121.242H253.773V118H243.903V121.242H238.779V113.6H239.358C240.304 113.581 240.96 113.07 241.327 112.066C241.693 111.043 241.915 109.615 241.992 107.782L242.195 102.312H256.697V113.6H258.868ZM246.942 108.187C246.884 109.596 246.778 110.725 246.624 111.574C246.469 112.423 246.18 113.099 245.755 113.6H251.197V106.682H247L246.942 108.187ZM268.96 118.261C267.281 118.261 265.766 117.913 264.415 117.218C263.064 116.524 262.003 115.559 261.231 114.324C260.479 113.089 260.102 111.69 260.102 110.127C260.102 108.583 260.479 107.194 261.231 105.959C262.003 104.724 263.055 103.768 264.386 103.093C265.737 102.398 267.261 102.051 268.96 102.051C270.658 102.051 272.182 102.398 273.533 103.093C274.884 103.768 275.935 104.724 276.688 105.959C277.441 107.174 277.817 108.564 277.817 110.127C277.817 111.69 277.441 113.089 276.688 114.324C275.935 115.559 274.884 116.524 273.533 117.218C272.182 117.913 270.658 118.261 268.96 118.261ZM268.96 113.89C269.924 113.89 270.716 113.562 271.333 112.906C271.951 112.23 272.259 111.304 272.259 110.127C272.259 108.969 271.951 108.062 271.333 107.406C270.716 106.75 269.924 106.422 268.96 106.422C267.995 106.422 267.204 106.75 266.586 107.406C265.969 108.062 265.66 108.969 265.66 110.127C265.66 111.304 265.969 112.23 266.586 112.906C267.204 113.562 267.995 113.89 268.96 113.89ZM305.029 102.312V118H299.559V106.682H294.291V118H288.82V102.312H305.029ZM318.647 102.051C320.075 102.051 321.368 102.389 322.525 103.064C323.703 103.72 324.629 104.666 325.304 105.901C325.999 107.117 326.346 108.535 326.346 110.156C326.346 111.777 325.999 113.205 325.304 114.44C324.629 115.655 323.703 116.601 322.525 117.276C321.368 117.932 320.075 118.261 318.647 118.261C316.814 118.261 315.357 117.711 314.276 116.611V123.615H308.776V102.312H314.015V103.875C315.038 102.659 316.582 102.051 318.647 102.051ZM317.489 113.89C318.454 113.89 319.245 113.562 319.862 112.906C320.48 112.23 320.789 111.314 320.789 110.156C320.789 108.998 320.48 108.091 319.862 107.435C319.245 106.76 318.454 106.422 317.489 106.422C316.524 106.422 315.733 106.76 315.115 107.435C314.498 108.091 314.189 108.998 314.189 110.156C314.189 111.314 314.498 112.23 315.115 112.906C315.733 113.562 316.524 113.89 317.489 113.89ZM328.987 102.312H334.458V110.532L341.029 102.312H346.094V118H340.594V109.751L334.082 118H328.987V102.312ZM363.801 106.682H358.765V118H353.294V106.682H348.229V102.312H363.801V106.682ZM382.832 102.312L376.059 118.637C375.268 120.566 374.303 121.917 373.165 122.689C372.026 123.48 370.637 123.876 368.996 123.876C368.167 123.876 367.327 123.741 366.478 123.471C365.648 123.22 364.973 122.882 364.452 122.458L366.362 118.608C366.671 118.897 367.038 119.119 367.462 119.274C367.906 119.447 368.35 119.534 368.794 119.534C369.315 119.534 369.739 119.428 370.067 119.216C370.415 119.003 370.704 118.666 370.936 118.203L364.22 102.312H369.865L373.715 111.893L377.593 102.312H382.832ZM399.323 102.312V118H393.823V106.682H389.858L389.742 109.085C389.665 111.13 389.462 112.819 389.134 114.15C388.806 115.482 388.266 116.524 387.513 117.276C386.76 118.01 385.728 118.376 384.416 118.376C383.74 118.376 382.853 118.251 381.753 118L381.984 113.513C382.332 113.552 382.563 113.571 382.679 113.571C383.277 113.571 383.731 113.378 384.04 112.992C384.348 112.606 384.561 112.095 384.676 111.458C384.792 110.802 384.869 109.934 384.908 108.853L385.139 102.312H399.323ZM410.371 112.414H408.518V118H403.019V102.312H408.518V108.101H410.487L414.336 102.312H420.154L414.886 109.837L420.502 118H414.018L410.371 112.414ZM438.179 102.312L431.406 118.637C430.615 120.566 429.65 121.917 428.511 122.689C427.373 123.48 425.984 123.876 424.343 123.876C423.514 123.876 422.674 123.741 421.825 123.471C420.995 123.22 420.32 122.882 419.799 122.458L421.709 118.608C422.018 118.897 422.385 119.119 422.809 119.274C423.253 119.447 423.697 119.534 424.141 119.534C424.662 119.534 425.086 119.428 425.414 119.216C425.762 119.003 426.051 118.666 426.283 118.203L419.567 102.312H425.212L429.061 111.893L432.94 102.312H438.179ZM445.35 110.619C445.35 109.654 445.562 108.863 445.987 108.245C446.411 107.609 447.029 106.914 447.839 106.161C448.399 105.64 448.814 105.206 449.084 104.859C449.354 104.492 449.489 104.106 449.489 103.701C449.489 103.141 449.248 102.698 448.766 102.369C448.302 102.022 447.695 101.848 446.942 101.848C446.17 101.848 445.466 102.032 444.829 102.398C444.212 102.765 443.71 103.276 443.324 103.933L439.011 101.617C439.802 100.266 440.921 99.2144 442.369 98.4618C443.816 97.7092 445.562 97.3329 447.608 97.3329C449.904 97.3329 451.747 97.8154 453.136 98.7802C454.545 99.7258 455.249 101.057 455.249 102.775C455.249 103.566 455.114 104.27 454.844 104.888C454.574 105.486 454.246 105.997 453.86 106.422C453.493 106.827 453.011 107.29 452.413 107.811C451.757 108.371 451.274 108.853 450.965 109.258C450.657 109.644 450.502 110.098 450.502 110.619H445.35ZM447.926 118.261C446.981 118.261 446.199 117.971 445.582 117.392C444.964 116.794 444.655 116.07 444.655 115.221C444.655 114.353 444.954 113.639 445.553 113.079C446.17 112.52 446.961 112.24 447.926 112.24C448.891 112.24 449.682 112.52 450.3 113.079C450.917 113.639 451.226 114.353 451.226 115.221C451.226 116.07 450.917 116.794 450.3 117.392C449.682 117.971 448.891 118.261 447.926 118.261Z" fill="#187073"/>
<path d="M159.188 149.029V169.291H153.515V153.574H145.815V169.291H140.171V149.029H159.188ZM173.071 153.342C174.499 153.342 175.792 153.68 176.95 154.355C178.127 155.011 179.054 155.957 179.729 157.192C180.424 158.408 180.771 159.826 180.771 161.447C180.771 163.068 180.424 164.496 179.729 165.731C179.054 166.947 178.127 167.892 176.95 168.568C175.792 169.224 174.499 169.552 173.071 169.552C171.238 169.552 169.781 169.002 168.701 167.902V174.907H163.201V153.603H168.44V155.166C169.463 153.95 171.007 153.342 173.071 153.342ZM171.914 165.181C172.879 165.181 173.67 164.853 174.287 164.197C174.905 163.521 175.213 162.605 175.213 161.447C175.213 160.289 174.905 159.382 174.287 158.726C173.67 158.051 172.879 157.713 171.914 157.713C170.949 157.713 170.158 158.051 169.54 158.726C168.923 159.382 168.614 160.289 168.614 161.447C168.614 162.605 168.923 163.521 169.54 164.197C170.158 164.853 170.949 165.181 171.914 165.181ZM183.412 153.603H188.883V161.823L195.453 153.603H200.519V169.291H195.019V161.042L188.506 169.291H183.412V153.603ZM222.771 164.891V172.533H217.676V169.291H207.806V172.533H202.682V164.891H203.261C204.207 164.872 204.863 164.361 205.23 163.357C205.596 162.335 205.818 160.907 205.895 159.073L206.098 153.603H220.6V164.891H222.771ZM210.845 159.479C210.787 160.887 210.681 162.016 210.527 162.865C210.372 163.714 210.083 164.39 209.658 164.891H215.1V157.973H210.903L210.845 159.479ZM234.831 154.992C236.355 154.992 237.677 155.291 238.796 155.889C239.916 156.468 240.765 157.308 241.344 158.408C241.942 159.488 242.241 160.752 242.241 162.2C242.241 163.685 241.855 164.998 241.083 166.136C240.331 167.255 239.279 168.133 237.928 168.77C236.597 169.388 235.091 169.696 233.413 169.696C230.653 169.696 228.453 168.838 226.813 167.12C225.173 165.403 224.353 162.827 224.353 159.392C224.353 152.947 227.209 149.184 232.921 148.103L240.533 146.656L241.286 151.258L234.686 152.503C233.007 152.812 231.772 153.313 230.981 154.008C230.209 154.683 229.746 155.667 229.592 156.96C231 155.648 232.747 154.992 234.831 154.992ZM233.442 165.528C234.426 165.528 235.198 165.21 235.757 164.573C236.336 163.936 236.626 163.145 236.626 162.2C236.626 161.196 236.336 160.415 235.757 159.855C235.178 159.276 234.406 158.987 233.442 158.987C232.457 158.987 231.666 159.276 231.068 159.855C230.489 160.434 230.2 161.225 230.2 162.228C230.2 163.193 230.499 163.984 231.097 164.602C231.695 165.219 232.477 165.528 233.442 165.528ZM250.838 153.342C253.443 153.342 255.43 153.94 256.8 155.137C258.17 156.314 258.855 158.128 258.855 160.579V169.291H253.732V167.265C252.941 168.789 251.397 169.552 249.101 169.552C247.885 169.552 246.833 169.339 245.946 168.915C245.058 168.49 244.383 167.921 243.92 167.207C243.476 166.474 243.254 165.644 243.254 164.718C243.254 163.232 243.823 162.084 244.962 161.273C246.1 160.443 247.856 160.029 250.23 160.029H253.356C253.259 158.369 252.15 157.539 250.027 157.539C249.274 157.539 248.512 157.665 247.74 157.916C246.968 158.147 246.312 158.475 245.772 158.9L243.92 155.166C244.788 154.587 245.84 154.143 247.075 153.834C248.329 153.506 249.583 153.342 250.838 153.342ZM250.635 166.078C251.272 166.078 251.831 165.924 252.314 165.615C252.796 165.306 253.144 164.853 253.356 164.255V162.894H250.982C249.381 162.894 248.58 163.425 248.58 164.486C248.58 164.969 248.763 165.355 249.13 165.644C249.496 165.933 249.998 166.078 250.635 166.078ZM262.164 153.603H267.635V161.823L274.205 153.603H279.271V169.291H273.771V161.042L267.258 169.291H262.164V153.603ZM270.356 152.098C268.503 152.098 267.133 151.712 266.245 150.94C265.377 150.149 264.933 148.942 264.914 147.322H268.474C268.493 147.997 268.648 148.508 268.937 148.856C269.227 149.184 269.69 149.348 270.327 149.348C270.963 149.348 271.436 149.174 271.745 148.827C272.073 148.479 272.237 147.978 272.237 147.322H275.855C275.855 148.942 275.402 150.149 274.495 150.94C273.607 151.712 272.227 152.098 270.356 152.098ZM307.602 153.603V169.291H302.131V157.973H296.863V169.291H291.392V153.603H307.602ZM319.077 169.552C317.398 169.552 315.883 169.204 314.533 168.51C313.182 167.815 312.121 166.85 311.349 165.615C310.596 164.38 310.22 162.981 310.22 161.418C310.22 159.874 310.596 158.485 311.349 157.25C312.121 156.015 313.172 155.06 314.504 154.384C315.855 153.69 317.379 153.342 319.077 153.342C320.775 153.342 322.3 153.69 323.65 154.384C325.001 155.06 326.053 156.015 326.806 157.25C327.558 158.466 327.934 159.855 327.934 161.418C327.934 162.981 327.558 164.38 326.806 165.615C326.053 166.85 325.001 167.815 323.65 168.51C322.3 169.204 320.775 169.552 319.077 169.552ZM319.077 165.181C320.042 165.181 320.833 164.853 321.451 164.197C322.068 163.521 322.377 162.595 322.377 161.418C322.377 160.26 322.068 159.353 321.451 158.697C320.833 158.041 320.042 157.713 319.077 157.713C318.112 157.713 317.321 158.041 316.704 158.697C316.086 159.353 315.777 160.26 315.777 161.418C315.777 162.595 316.086 163.521 316.704 164.197C317.321 164.853 318.112 165.181 319.077 165.181ZM487.541 164.891V172.562H482.446V169.291H469.305V153.603H474.776V164.891H479.87V153.603H485.37V164.891H487.541ZM489.912 153.603H495.411V169.291H489.912V153.603ZM492.661 151.866C491.658 151.866 490.847 151.586 490.23 151.027C489.612 150.467 489.304 149.772 489.304 148.942C489.304 148.113 489.612 147.418 490.23 146.858C490.847 146.299 491.658 146.019 492.661 146.019C493.665 146.019 494.475 146.289 495.093 146.829C495.71 147.35 496.019 148.026 496.019 148.856C496.019 149.724 495.71 150.448 495.093 151.027C494.475 151.586 493.665 151.866 492.661 151.866ZM499.127 153.603H504.597V159.421H510.242V153.603H515.741V169.291H510.242V163.792H504.597V169.291H499.127V153.603ZM519.451 153.603H524.95V169.291H519.451V153.603ZM522.2 151.866C521.197 151.866 520.387 151.586 519.769 151.027C519.152 150.467 518.843 149.772 518.843 148.942C518.843 148.113 519.152 147.418 519.769 146.858C520.387 146.299 521.197 146.019 522.2 146.019C523.204 146.019 524.014 146.289 524.632 146.829C525.249 147.35 525.558 148.026 525.558 148.856C525.558 149.724 525.249 150.448 524.632 151.027C524.014 151.586 523.204 151.866 522.2 151.866ZM527.913 149.029H534.455L533.355 161.91H528.984L527.913 149.029ZM531.184 169.552C530.219 169.552 529.428 169.262 528.81 168.683C528.193 168.085 527.884 167.361 527.884 166.512C527.884 165.644 528.193 164.93 528.81 164.37C529.428 163.811 530.219 163.531 531.184 163.531C532.149 163.531 532.93 163.811 533.529 164.37C534.146 164.93 534.455 165.644 534.455 166.512C534.455 167.361 534.146 168.085 533.529 168.683C532.911 169.262 532.13 169.552 531.184 169.552Z" fill="#187073"/>
<path d="M346.666 169.552C344.987 169.552 343.472 169.204 342.121 168.51C340.771 167.815 339.709 166.85 338.937 165.615C338.185 164.38 337.808 162.981 337.808 161.418C337.808 159.874 338.185 158.485 338.937 157.25C339.709 156.015 340.761 155.06 342.092 154.384C343.443 153.69 344.968 153.342 346.666 153.342C348.364 153.342 349.888 153.69 351.239 154.384C352.59 155.06 353.642 156.015 354.394 157.25C355.147 158.466 355.523 159.855 355.523 161.418C355.523 162.981 355.147 164.38 354.394 165.615C353.642 166.85 352.59 167.815 351.239 168.51C349.888 169.204 348.364 169.552 346.666 169.552ZM346.666 165.181C347.631 165.181 348.422 164.853 349.039 164.197C349.657 163.521 349.966 162.595 349.966 161.418C349.966 160.26 349.657 159.353 349.039 158.697C348.422 158.041 347.631 157.713 346.666 157.713C345.701 157.713 344.91 158.041 344.292 158.697C343.675 159.353 343.366 160.26 343.366 161.418C343.366 162.595 343.675 163.521 344.292 164.197C344.91 164.853 345.701 165.181 346.666 165.181ZM374.312 153.603V169.291H368.841V157.973H363.573V169.291H358.102V153.603H374.312ZM392.069 157.973H387.032V169.291H381.561V157.973H376.496V153.603H392.069V157.973ZM401.306 169.552C399.627 169.552 398.112 169.204 396.762 168.51C395.411 167.815 394.349 166.85 393.577 165.615C392.825 164.38 392.449 162.981 392.449 161.418C392.449 159.874 392.825 158.485 393.577 157.25C394.349 156.015 395.401 155.06 396.733 154.384C398.083 153.69 399.608 153.342 401.306 153.342C403.004 153.342 404.529 153.69 405.879 154.384C407.23 155.06 408.282 156.015 409.034 157.25C409.787 158.466 410.163 159.855 410.163 161.418C410.163 162.981 409.787 164.38 409.034 165.615C408.282 166.85 407.23 167.815 405.879 168.51C404.529 169.204 403.004 169.552 401.306 169.552ZM401.306 165.181C402.271 165.181 403.062 164.853 403.679 164.197C404.297 163.521 404.606 162.595 404.606 161.418C404.606 160.26 404.297 159.353 403.679 158.697C403.062 158.041 402.271 157.713 401.306 157.713C400.341 157.713 399.55 158.041 398.932 158.697C398.315 159.353 398.006 160.26 398.006 161.418C398.006 162.595 398.315 163.521 398.932 164.197C399.55 164.853 400.341 165.181 401.306 165.181ZM425.392 161.071C427.186 161.669 428.084 162.904 428.084 164.776C428.084 166.184 427.534 167.294 426.434 168.104C425.334 168.896 423.713 169.291 421.571 169.291H412.743V153.603H421.166C423.211 153.603 424.794 153.96 425.913 154.674C427.051 155.388 427.621 156.391 427.621 157.684C427.621 158.437 427.428 159.102 427.042 159.681C426.656 160.26 426.106 160.723 425.392 161.071ZM417.663 159.913H420.674C421.947 159.913 422.584 159.44 422.584 158.494C422.584 157.588 421.947 157.134 420.674 157.134H417.663V159.913ZM421.079 165.731C422.41 165.731 423.076 165.248 423.076 164.284C423.076 163.319 422.43 162.836 421.137 162.836H417.663V165.731H421.079ZM430.862 153.603H436.361V169.291H430.862V153.603ZM433.612 151.866C432.608 151.866 431.798 151.586 431.18 151.027C430.563 150.467 430.254 149.772 430.254 148.942C430.254 148.113 430.563 147.418 431.18 146.858C431.798 146.299 432.608 146.019 433.612 146.019C434.615 146.019 435.425 146.289 436.043 146.829C436.66 147.35 436.969 148.026 436.969 148.856C436.969 149.724 436.66 150.448 436.043 151.027C435.425 151.586 434.615 151.866 433.612 151.866ZM440.077 153.603H445.547V161.823L452.118 153.603H457.184V169.291H451.684V161.042L445.171 169.291H440.077V153.603ZM448.268 152.098C446.416 152.098 445.046 151.712 444.158 150.94C443.29 150.149 442.846 148.942 442.827 147.322H446.387C446.406 147.997 446.561 148.508 446.85 148.856C447.139 149.184 447.603 149.348 448.239 149.348C448.876 149.348 449.349 149.174 449.658 148.827C449.986 148.479 450.15 147.978 450.15 147.322H453.768C453.768 148.942 453.315 150.149 452.408 150.94C451.52 151.712 450.14 152.098 448.268 152.098Z" fill="#FFC727"/>
<defs>
<linearGradient id="paint0_linear" x1="799.469" y1="217.158" x2="804.831" y2="35.3269" gradientUnits="userSpaceOnUse">
<stop stop-color="#82ACF5"/>
<stop offset="1" stop-color="#F8BDEC"/>
</linearGradient>
<linearGradient id="paint1_linear" x1="646.566" y1="114.228" x2="658.266" y2="114.228" gradientUnits="userSpaceOnUse">
<stop stop-color="#7F0300"/>
<stop offset="1" stop-color="#93170A"/>
</linearGradient>
<linearGradient id="paint2_linear" x1="651.983" y1="80.9391" x2="664.759" y2="80.9391" gradientUnits="userSpaceOnUse">
<stop stop-color="#7F0300"/>
<stop offset="1" stop-color="#93170A"/>
</linearGradient>
</defs>
</svg>
